SplineFontDB: 3.0
FontName: DVSp8
FullName: DVSp8
FamilyName: DVSp8
Weight: Book
Copyright: qopirait font77.com
Version: 0.01
ItalicAngle: 0
UnderlinePosition: -175
UnderlineWidth: 90
Ascent: 1556
Descent: 492
InvalidEm: 0
sfntRevision: 0x0000028f
LayerCount: 2
Layer: 0 1 "Back" 1
Layer: 1 1 "Fore" 0
XUID: [1021 542 582384140 399014]
StyleMap: 0x0040
FSType: 0
OS2Version: 1
OS2_WeightWidthSlopeOnly: 0
OS2_UseTypoMetrics: 0
CreationTime: 1377445568
ModificationTime: 1465107192
PfmFamily: 17
TTFWeight: 400
TTFWidth: 5
LineGap: 0
VLineGap: 0
Panose: 2 6 6 3 5 6 5 2 2 4
OS2TypoAscent: 1556
OS2TypoAOffset: 0
OS2TypoDescent: -492
OS2TypoDOffset: 0
OS2TypoLinegap: 410
OS2WinAscent: 1901
OS2WinAOffset: 0
OS2WinDescent: 483
OS2WinDOffset: 0
HheadAscent: 1901
HheadAOffset: 0
HheadDescent: -483
HheadDOffset: 0
OS2SubXSize: 1331
OS2SubYSize: 1433
OS2SubXOff: 0
OS2SubYOff: 286
OS2SupXSize: 1331
OS2SupYSize: 1433
OS2SupXOff: 0
OS2SupYOff: 983
OS2StrikeYSize: 102
OS2StrikeYPos: 530
OS2Vendor: 'PfEd'
OS2CodePages: 6000009f.dfd70000
OS2UnicodeRanges: e40006ff.5200f9fb.0a040020.00000000
Lookup: 6 0 0 "'ccmp' Glyph Composition/Decomposition lookup 0" { "'ccmp' Glyph Composition/Decomposition lookup 0 subtable"  } ['ccmp' ('DFLT' <'dflt' > 'cyrl' <'MKD ' 'SRB ' 'dflt' > 'grek' <'dflt' > 'latn' <'AZE ' 'CRT ' 'GAG ' 'ISM ' 'KAZ ' 'KRK ' 'KSM ' 'LSM ' 'MOL ' 'NSM ' 'ROM ' 'SKS ' 'SSM ' 'TAT ' 'TRK ' 'dflt' > ) ]
Lookup: 1 0 0 "'locl' Localized Forms in Cyrillic lookup 1" { "'locl' Localized Forms in Cyrillic lookup 1 subtable"  } ['locl' ('cyrl' <'MKD ' 'SRB ' > ) ]
Lookup: 1 0 0 "'locl' Localized Forms in Latin lookup 2" { "'locl' Localized Forms in Latin lookup 2 subtable"  } ['locl' ('latn' <'ISM ' 'KSM ' 'LSM ' 'NSM ' 'SKS ' 'SSM ' > ) ]

StartChar: .notdef
Encoding: 1114112 -1 0
Width: 1229
Flags: W
LayerCount: 2
Fore
SplineSet
102 -362 m 1,0,-1
 102 1444 l 1,1,-1
 1126 1444 l 1,2,-1
 1126 -362 l 1,3,-1
 102 -362 l 1,0,-1
217 -248 m 1,4,-1
 1012 -248 l 1,5,-1
 1012 1329 l 1,6,-1
 217 1329 l 1,7,-1
 217 -248 l 1,4,-1
EndSplineSet
Validated: 1
EndChar

StartChar: exclam
Encoding: 33 33 4
Width: 823
GlyphClass: 2
Flags: W
LayerCount: 2
Fore
SplineSet
279 104 m 256,0,1
 279 160 279 160 317 199 c 128,-1,2
 355 238 355 238 412 238 c 0,3,4
 467 238 467 238 506 199 c 128,-1,5
 545 160 545 160 545 104 c 0,6,7
 545 49 545 49 506 10 c 128,-1,8
 467 -29 467 -29 412 -29 c 0,9,10
 355 -29 355 -29 317 9.5 c 128,-1,11
 279 48 279 48 279 104 c 256,0,1
283 1493 m 1,12,-1
 541 1493 l 1,13,-1
 473 672 l 1,14,-1
 473 420 l 1,15,-1
 350 420 l 1,16,-1
 350 672 l 1,17,-1
 283 1493 l 1,12,-1
EndSplineSet
Validated: 1
EndChar

StartChar: quotedbl
Encoding: 34 34 5
Width: 942
GlyphClass: 2
Flags: W
LayerCount: 2
Fore
SplineSet
360 1493 m 1,0,-1
 360 938 l 1,1,-1
 201 938 l 1,2,-1
 201 1493 l 1,3,-1
 360 1493 l 1,0,-1
741 1493 m 1,4,-1
 741 938 l 1,5,-1
 582 938 l 1,6,-1
 582 1493 l 1,7,-1
 741 1493 l 1,4,-1
EndSplineSet
Validated: 1
EndChar

StartChar: numbersign
Encoding: 35 35 6
Width: 1716
GlyphClass: 2
Flags: W
LayerCount: 2
Fore
SplineSet
1042 901 m 1,0,-1
 760 901 l 1,1,-1
 676 567 l 1,2,-1
 961 567 l 1,3,-1
 1042 901 l 1,0,-1
901 1470 m 1,4,-1
 799 1055 l 1,5,-1
 1081 1055 l 1,6,-1
 1184 1470 l 1,7,-1
 1356 1470 l 1,8,-1
 1251 1055 l 1,9,-1
 1559 1055 l 1,10,-1
 1559 901 l 1,11,-1
 1212 901 l 1,12,-1
 1130 567 l 1,13,-1
 1444 567 l 1,14,-1
 1444 414 l 1,15,-1
 1092 414 l 1,16,-1
 989 0 l 1,17,-1
 817 0 l 1,18,-1
 922 414 l 1,19,-1
 639 414 l 1,20,-1
 535 0 l 1,21,-1
 365 0 l 1,22,-1
 467 414 l 1,23,-1
 158 414 l 1,24,-1
 158 567 l 1,25,-1
 506 567 l 1,26,-1
 588 901 l 1,27,-1
 272 901 l 1,28,-1
 272 1055 l 1,29,-1
 627 1055 l 1,30,-1
 731 1470 l 1,31,-1
 901 1470 l 1,4,-1
EndSplineSet
Validated: 1
EndChar

StartChar: dollar
Encoding: 36 36 7
Width: 1303
GlyphClass: 2
Flags: W
LayerCount: 2
Fore
SplineSet
690 68 m 1,0,1
 803 78 803 78 862.5 133 c 128,-1,2
 922 188 922 188 922 283 c 0,3,4
 922 369 922 369 863 429 c 128,-1,5
 804 489 804 489 690 520 c 1,6,-1
 690 68 l 1,0,1
590 1187 m 1,7,8
 487 1180 487 1180 430 1127.5 c 128,-1,9
 373 1075 373 1075 373 987 c 0,10,11
 373 907 373 907 425.5 854 c 128,-1,12
 478 801 478 801 590 768 c 1,13,-1
 590 1187 l 1,7,8
176 72 m 1,14,-1
 176 348 l 1,15,-1
 284 348 l 1,16,17
 288 211 288 211 364 141 c 128,-1,18
 440 71 440 71 590 68 c 1,19,-1
 590 553 l 1,20,21
 360 617 360 617 267 700.5 c 128,-1,22
 174 784 174 784 174 922 c 0,23,24
 174 1082 174 1082 284 1179 c 128,-1,25
 394 1276 394 1276 590 1288 c 1,26,-1
 590 1556 l 1,27,-1
 690 1556 l 1,28,-1
 690 1288 l 1,29,30
 791 1280 791 1280 884.5 1255.5 c 128,-1,31
 978 1231 978 1231 1067 1190 c 1,32,-1
 1067 928 l 1,33,-1
 958 928 l 1,34,35
 946 1044 946 1044 877 1111 c 128,-1,36
 808 1178 808 1178 690 1187 c 1,37,-1
 690 735 l 1,38,39
 936 668 936 668 1034.5 581.5 c 128,-1,40
 1133 495 1133 495 1133 350 c 0,41,42
 1133 184 1133 184 1017 84 c 128,-1,43
 901 -16 901 -16 690 -31 c 1,44,-1
 690 -301 l 1,45,-1
 590 -301 l 1,46,-1
 590 -31 l 1,47,48
 494 -29 494 -29 391 -3.5 c 128,-1,49
 288 22 288 22 176 72 c 1,14,-1
EndSplineSet
Validated: 1
EndChar

StartChar: percent
Encoding: 37 37 8
Width: 1946
GlyphClass: 2
Flags: W
LayerCount: 2
Fore
SplineSet
459 1427 m 0,0,1
 371 1427 371 1427 321.5 1344 c 128,-1,2
 272 1261 272 1261 272 1112 c 0,3,4
 272 965 272 965 322.5 881 c 128,-1,5
 373 797 373 797 459 797 c 0,6,7
 544 797 544 797 593.5 880.5 c 128,-1,8
 643 964 643 964 643 1112 c 256,9,10
 643 1260 643 1260 593.5 1343.5 c 128,-1,11
 544 1427 544 1427 459 1427 c 0,0,1
1489 694 m 0,12,13
 1402 694 1402 694 1352.5 610 c 128,-1,14
 1303 526 1303 526 1303 377 c 0,15,16
 1303 230 1303 230 1353 146.5 c 128,-1,17
 1403 63 1403 63 1489 63 c 256,18,19
 1575 63 1575 63 1624 146.5 c 128,-1,20
 1673 230 1673 230 1673 377 c 0,21,22
 1673 525 1673 525 1623.5 609.5 c 128,-1,23
 1574 694 1574 694 1489 694 c 0,12,13
1489 784 m 0,24,25
 1647 784 1647 784 1740 674 c 128,-1,26
 1833 564 1833 564 1833 377 c 256,27,28
 1833 190 1833 190 1739.5 80.5 c 128,-1,29
 1646 -29 1646 -29 1489 -29 c 0,30,31
 1329 -29 1329 -29 1236 80.5 c 128,-1,32
 1143 190 1143 190 1143 377 c 0,33,34
 1143 565 1143 565 1236.5 674.5 c 128,-1,35
 1330 784 1330 784 1489 784 c 0,24,25
1364 1520 m 1,36,-1
 1516 1520 l 1,37,-1
 582 -29 l 1,38,-1
 430 -29 l 1,39,-1
 1364 1520 l 1,36,-1
457 1520 m 256,40,41
 615 1520 615 1520 709 1410.5 c 128,-1,42
 803 1301 803 1301 803 1114 c 0,43,44
 803 925 803 925 709.5 816 c 128,-1,45
 616 707 616 707 457 707 c 256,46,47
 298 707 298 707 205.5 816.5 c 128,-1,48
 113 926 113 926 113 1114 c 0,49,50
 113 1300 113 1300 206 1410 c 128,-1,51
 299 1520 299 1520 457 1520 c 256,40,41
EndSplineSet
Validated: 1
EndChar

StartChar: ampersand
Encoding: 38 38 9
Width: 1823
GlyphClass: 2
Flags: W
LayerCount: 2
Fore
SplineSet
1106 231 m 1,0,-1
 524 844 l 1,1,2
 437 766 437 766 393.5 675.5 c 128,-1,3
 350 585 350 585 350 483 c 0,4,5
 350 317 350 317 465 204.5 c 128,-1,6
 580 92 580 92 752 92 c 0,7,8
 854 92 854 92 944.5 127.5 c 128,-1,9
 1035 163 1035 163 1106 231 c 1,0,-1
1726 0 m 1,10,-1
 1325 0 l 1,11,-1
 1188 145 l 1,12,13
 1083 57 1083 57 964 14 c 128,-1,14
 845 -29 845 -29 707 -29 c 0,15,16
 449 -29 449 -29 298 103 c 128,-1,17
 147 235 147 235 147 461 c 0,18,19
 147 594 147 594 223.5 709.5 c 128,-1,20
 300 825 300 825 455 926 c 1,21,22
 404 987 404 987 380 1047.5 c 128,-1,23
 356 1108 356 1108 356 1174 c 0,24,25
 356 1333 356 1333 470.5 1426.5 c 128,-1,26
 585 1520 585 1520 782 1520 c 0,27,28
 849 1520 849 1520 938.5 1503 c 128,-1,29
 1028 1486 1028 1486 1143 1452 c 1,30,-1
 1143 1194 l 1,31,-1
 1030 1194 l 1,32,33
 1016 1301 1016 1301 952 1357 c 128,-1,34
 888 1413 888 1413 778 1413 c 0,35,36
 675 1413 675 1413 611 1356.5 c 128,-1,37
 547 1300 547 1300 547 1210 c 0,38,39
 547 1149 547 1149 581 1088.5 c 128,-1,40
 615 1028 615 1028 723 915 c 2,41,-1
 1239 371 l 1,42,43
 1308 451 1308 451 1347.5 543.5 c 128,-1,44
 1387 636 1387 636 1397 741 c 1,45,-1
 1217 741 l 1,46,-1
 1217 848 l 1,47,-1
 1690 848 l 1,48,-1
 1690 741 l 1,49,-1
 1518 741 l 1,50,51
 1501 611 1501 611 1451.5 498 c 128,-1,52
 1402 385 1402 385 1319 289 c 1,53,-1
 1491 106 l 1,54,-1
 1726 106 l 1,55,-1
 1726 0 l 1,10,-1
EndSplineSet
Validated: 1
EndChar

StartChar: quotesingle
Encoding: 39 39 10
Width: 563
GlyphClass: 2
Flags: W
LayerCount: 2
Fore
SplineSet
360 1493 m 1,0,-1
 360 938 l 1,1,-1
 201 938 l 1,2,-1
 201 1493 l 1,3,-1
 360 1493 l 1,0,-1
EndSplineSet
Validated: 1
EndChar

StartChar: parenleft
Encoding: 40 40 11
Width: 799
GlyphClass: 2
Flags: W
LayerCount: 2
Fore
SplineSet
653 -319 m 1,0,1
 410 -210 410 -210 286 26.5 c 128,-1,2
 162 263 162 263 162 618 c 0,3,4
 162 974 162 974 286 1210.5 c 128,-1,5
 410 1447 410 1447 653 1556 c 1,6,-1
 653 1458 l 1,7,8
 499 1352 499 1352 432 1159.5 c 128,-1,9
 365 967 365 967 365 618 c 0,10,11
 365 270 365 270 432 77.5 c 128,-1,12
 499 -115 499 -115 653 -221 c 1,13,-1
 653 -319 l 1,0,1
EndSplineSet
Validated: 1
EndChar

StartChar: parenright
Encoding: 41 41 12
Width: 799
GlyphClass: 2
Flags: W
LayerCount: 2
Fore
SplineSet
145 -319 m 1,0,-1
 145 -221 l 1,1,2
 299 -115 299 -115 366.5 77.5 c 128,-1,3
 434 270 434 270 434 618 c 0,4,5
 434 967 434 967 366.5 1159.5 c 128,-1,6
 299 1352 299 1352 145 1458 c 1,7,-1
 145 1556 l 1,8,9
 389 1447 389 1447 513 1210.5 c 128,-1,10
 637 974 637 974 637 618 c 0,11,12
 637 263 637 263 513 26.5 c 128,-1,13
 389 -210 389 -210 145 -319 c 1,0,-1
EndSplineSet
Validated: 1
EndChar

StartChar: asterisk
Encoding: 42 42 13
Width: 1024
GlyphClass: 2
Flags: W
LayerCount: 2
Fore
SplineSet
991 1237 m 1,0,-1
 600 1055 l 1,1,-1
 991 870 l 1,2,-1
 915 752 l 1,3,-1
 567 969 l 1,4,-1
 580 588 l 1,5,-1
 444 588 l 1,6,-1
 457 969 l 1,7,-1
 109 752 l 1,8,-1
 33 870 l 1,9,-1
 424 1053 l 1,10,-1
 33 1237 l 1,11,-1
 109 1356 l 1,12,-1
 457 1139 l 1,13,-1
 444 1520 l 1,14,-1
 580 1520 l 1,15,-1
 567 1139 l 1,16,-1
 915 1356 l 1,17,-1
 991 1237 l 1,0,-1
EndSplineSet
Validated: 1
EndChar

StartChar: plus
Encoding: 43 43 14
Width: 1716
GlyphClass: 2
Flags: W
LayerCount: 2
Fore
SplineSet
938 1284 m 1,0,-1
 938 723 l 1,1,-1
 1499 723 l 1,2,-1
 1499 561 l 1,3,-1
 938 561 l 1,4,-1
 938 0 l 1,5,-1
 778 0 l 1,6,-1
 778 561 l 1,7,-1
 217 561 l 1,8,-1
 217 723 l 1,9,-1
 778 723 l 1,10,-1
 778 1284 l 1,11,-1
 938 1284 l 1,0,-1
EndSplineSet
Validated: 1
EndChar

StartChar: comma
Encoding: 44 44 15
Width: 651
GlyphClass: 2
Flags: W
LayerCount: 2
Fore
SplineSet
74 -199 m 1,0,1
 168 -130 168 -130 212 -36.5 c 128,-1,2
 256 57 256 57 256 190 c 2,3,-1
 256 227 l 1,4,-1
 453 227 l 1,5,6
 445 56 445 56 372.5 -66.5 c 128,-1,7
 300 -189 300 -189 154 -279 c 1,8,-1
 74 -199 l 1,0,1
EndSplineSet
Validated: 1
EndChar

StartChar: hyphen
Encoding: 45 45 16
Width: 692
GlyphClass: 2
Flags: W
LayerCount: 2
Fore
SplineSet
90 627 m 1,0,-1
 602 627 l 1,1,-1
 602 471 l 1,2,-1
 90 471 l 1,3,-1
 90 627 l 1,0,-1
EndSplineSet
Validated: 1
EndChar

StartChar: period
Encoding: 46 46 17
Width: 651
GlyphClass: 2
Flags: W
LayerCount: 2
Fore
SplineSet
193 104 m 256,0,1
 193 160 193 160 231 199 c 128,-1,2
 269 238 269 238 326 238 c 0,3,4
 381 238 381 238 420 199 c 128,-1,5
 459 160 459 160 459 104 c 0,6,7
 459 49 459 49 420 10 c 128,-1,8
 381 -29 381 -29 326 -29 c 0,9,10
 269 -29 269 -29 231 9.5 c 128,-1,11
 193 48 193 48 193 104 c 256,0,1
EndSplineSet
Validated: 1
EndChar

StartChar: slash
Encoding: 47 47 18
Width: 690
GlyphClass: 2
Flags: W
LayerCount: 2
Fore
SplineSet
530 1493 m 1,0,-1
 690 1493 l 1,1,-1
 160 -190 l 1,2,-1
 0 -190 l 1,3,-1
 530 1493 l 1,0,-1
EndSplineSet
Validated: 1
EndChar

StartChar: zero
Encoding: 48 48 19
Width: 1303
GlyphClass: 2
Flags: W
LayerCount: 2
Fore
SplineSet
651 70 m 256,0,1
 804 70 804 70 880 238 c 128,-1,2
 956 406 956 406 956 745 c 0,3,4
 956 1085 956 1085 880 1253 c 128,-1,5
 804 1421 804 1421 651 1421 c 256,6,7
 498 1421 498 1421 422 1253 c 128,-1,8
 346 1085 346 1085 346 745 c 0,9,10
 346 406 346 406 422 238 c 128,-1,11
 498 70 498 70 651 70 c 256,0,1
651 -29 m 0,12,13
 408 -29 408 -29 271.5 175 c 128,-1,14
 135 379 135 379 135 745 c 0,15,16
 135 1112 135 1112 271.5 1316 c 128,-1,17
 408 1520 408 1520 651 1520 c 0,18,19
 895 1520 895 1520 1031 1316 c 128,-1,20
 1167 1112 1167 1112 1167 745 c 0,21,22
 1167 379 1167 379 1031 175 c 128,-1,23
 895 -29 895 -29 651 -29 c 0,12,13
EndSplineSet
Validated: 1
EndChar

StartChar: one
Encoding: 49 49 20
Width: 1303
GlyphClass: 2
Flags: W
LayerCount: 2
Fore
SplineSet
291 0 m 1,0,-1
 291 106 l 1,1,-1
 551 106 l 1,2,-1
 551 1348 l 1,3,-1
 250 1153 l 1,4,-1
 250 1284 l 1,5,-1
 614 1520 l 1,6,-1
 752 1520 l 1,7,-1
 752 106 l 1,8,-1
 1012 106 l 1,9,-1
 1012 0 l 1,10,-1
 291 0 l 1,0,-1
EndSplineSet
Validated: 1
EndChar

StartChar: two
Encoding: 50 50 21
Width: 1303
GlyphClass: 2
Flags: W
LayerCount: 2
Fore
SplineSet
262 1137 m 1,0,-1
 150 1137 l 1,1,-1
 150 1403 l 1,2,3
 257 1460 257 1460 365.5 1490 c 128,-1,4
 474 1520 474 1520 578 1520 c 0,5,6
 811 1520 811 1520 946 1407 c 128,-1,7
 1081 1294 1081 1294 1081 1100 c 0,8,9
 1081 881 1081 881 775 576 c 0,10,11
 751 553 751 553 739 541 c 2,12,-1
 362 164 l 1,13,-1
 985 164 l 1,14,-1
 985 348 l 1,15,-1
 1102 348 l 1,16,-1
 1102 0 l 1,17,-1
 139 0 l 1,18,-1
 139 109 l 1,19,-1
 592 561 l 2,20,21
 742 711 742 711 806 836.5 c 128,-1,22
 870 962 870 962 870 1100 c 0,23,24
 870 1251 870 1251 791.5 1336 c 128,-1,25
 713 1421 713 1421 575 1421 c 0,26,27
 432 1421 432 1421 354 1350 c 128,-1,28
 276 1279 276 1279 262 1137 c 1,0,-1
EndSplineSet
Validated: 1
EndChar

StartChar: three
Encoding: 51 51 22
Width: 1303
GlyphClass: 2
Flags: W
LayerCount: 2
Fore
SplineSet
199 1430 m 1,0,1
 316 1474 316 1474 423.5 1497 c 128,-1,2
 531 1520 531 1520 625 1520 c 0,3,4
 844 1520 844 1520 967 1425.5 c 128,-1,5
 1090 1331 1090 1331 1090 1163 c 0,6,7
 1090 1028 1090 1028 1005 937.5 c 128,-1,8
 920 847 920 847 764 815 c 1,9,10
 948 789 948 789 1049.5 681.5 c 128,-1,11
 1151 574 1151 574 1151 403 c 0,12,13
 1151 194 1151 194 1010.5 82.5 c 128,-1,14
 870 -29 870 -29 606 -29 c 0,15,16
 489 -29 489 -29 377.5 -4 c 128,-1,17
 266 21 266 21 156 72 c 1,18,-1
 156 362 l 1,19,-1
 268 362 l 1,20,21
 278 218 278 218 365 144 c 128,-1,22
 452 70 452 70 610 70 c 0,23,24
 763 70 763 70 851.5 158.5 c 128,-1,25
 940 247 940 247 940 401 c 0,26,27
 940 577 940 577 849 667.5 c 128,-1,28
 758 758 758 758 582 758 c 2,29,-1
 487 758 l 1,30,-1
 487 860 l 1,31,-1
 537 860 l 2,32,33
 712 860 712 860 799.5 932.5 c 128,-1,34
 887 1005 887 1005 887 1151 c 0,35,36
 887 1282 887 1282 815 1351.5 c 128,-1,37
 743 1421 743 1421 608 1421 c 256,38,39
 473 1421 473 1421 398.5 1357 c 128,-1,40
 324 1293 324 1293 311 1167 c 1,41,-1
 199 1167 l 1,42,-1
 199 1430 l 1,0,1
EndSplineSet
Validated: 1
EndChar

StartChar: four
Encoding: 52 52 23
Width: 1303
GlyphClass: 2
Flags: W
LayerCount: 2
Fore
SplineSet
715 506 m 1,0,-1
 715 1300 l 1,1,-1
 205 506 l 1,2,-1
 715 506 l 1,0,-1
1155 0 m 1,3,-1
 475 0 l 1,4,-1
 475 106 l 1,5,-1
 715 106 l 1,6,-1
 715 399 l 1,7,-1
 63 399 l 1,8,-1
 63 508 l 1,9,-1
 717 1520 l 1,10,-1
 915 1520 l 1,11,-1
 915 506 l 1,12,-1
 1200 506 l 1,13,-1
 1200 399 l 1,14,-1
 915 399 l 1,15,-1
 915 106 l 1,16,-1
 1155 106 l 1,17,-1
 1155 0 l 1,3,-1
EndSplineSet
Validated: 1
EndChar

StartChar: five
Encoding: 53 53 24
Width: 1303
GlyphClass: 2
Flags: W
LayerCount: 2
Fore
SplineSet
1030 1493 m 1,0,-1
 1030 1329 l 1,1,-1
 346 1329 l 1,2,-1
 346 901 l 1,3,4
 398 937 398 937 467.5 955 c 128,-1,5
 537 973 537 973 623 973 c 0,6,7
 865 973 865 973 1005 839 c 128,-1,8
 1145 705 1145 705 1145 473 c 0,9,10
 1145 236 1145 236 1003.5 103.5 c 128,-1,11
 862 -29 862 -29 606 -29 c 0,12,13
 503 -29 503 -29 395 -4 c 128,-1,14
 287 21 287 21 174 72 c 1,15,-1
 174 362 l 1,16,-1
 287 362 l 1,17,18
 296 220 296 220 377.5 145 c 128,-1,19
 459 70 459 70 606 70 c 0,20,21
 764 70 764 70 849 174 c 128,-1,22
 934 278 934 278 934 473 c 0,23,24
 934 667 934 667 849.5 770.5 c 128,-1,25
 765 874 765 874 606 874 c 0,26,27
 516 874 516 874 447.5 842 c 128,-1,28
 379 810 379 810 326 743 c 1,29,-1
 240 743 l 1,30,-1
 240 1493 l 1,31,-1
 1030 1493 l 1,0,-1
EndSplineSet
Validated: 1
EndChar

StartChar: six
Encoding: 54 54 25
Width: 1303
GlyphClass: 2
Flags: W
LayerCount: 2
Fore
SplineSet
670 70 m 256,0,1
 811 70 811 70 887 173.5 c 128,-1,2
 963 277 963 277 963 471 c 256,3,4
 963 665 963 665 887 768.5 c 128,-1,5
 811 872 811 872 670 872 c 0,6,7
 527 872 527 872 452 772 c 128,-1,8
 377 672 377 672 377 483 c 0,9,10
 377 284 377 284 453 177 c 128,-1,11
 529 70 529 70 670 70 c 256,0,1
344 822 m 1,12,13
 412 897 412 897 498 934 c 128,-1,14
 584 971 584 971 692 971 c 0,15,16
 915 971 915 971 1044.5 837 c 128,-1,17
 1174 703 1174 703 1174 471 c 0,18,19
 1174 244 1174 244 1034.5 107.5 c 128,-1,20
 895 -29 895 -29 662 -29 c 0,21,22
 409 -29 409 -29 273 159.5 c 128,-1,23
 137 348 137 348 137 698 c 0,24,25
 137 1090 137 1090 298 1305 c 128,-1,26
 459 1520 459 1520 752 1520 c 0,27,28
 831 1520 831 1520 918 1505 c 128,-1,29
 1005 1490 1005 1490 1096 1460 c 1,30,-1
 1096 1214 l 1,31,-1
 983 1214 l 1,32,33
 971 1315 971 1315 906 1368 c 128,-1,34
 841 1421 841 1421 731 1421 c 0,35,36
 537 1421 537 1421 442 1274 c 128,-1,37
 347 1127 347 1127 344 822 c 1,12,13
EndSplineSet
Validated: 1
EndChar

StartChar: seven
Encoding: 55 55 26
Width: 1303
GlyphClass: 2
Flags: W
LayerCount: 2
Fore
SplineSet
1155 1391 m 1,0,-1
 571 0 l 1,1,-1
 422 0 l 1,2,-1
 979 1329 l 1,3,-1
 289 1329 l 1,4,-1
 289 1145 l 1,5,-1
 172 1145 l 1,6,-1
 172 1493 l 1,7,-1
 1155 1493 l 1,8,-1
 1155 1391 l 1,0,-1
EndSplineSet
Validated: 1
EndChar

StartChar: eight
Encoding: 56 56 27
Width: 1303
GlyphClass: 2
Flags: W
LayerCount: 2
Fore
SplineSet
954 408 m 0,0,1
 954 568 954 568 874.5 656.5 c 128,-1,2
 795 745 795 745 651 745 c 256,3,4
 507 745 507 745 427.5 656.5 c 128,-1,5
 348 568 348 568 348 408 c 0,6,7
 348 247 348 247 427.5 158.5 c 128,-1,8
 507 70 507 70 651 70 c 256,9,10
 795 70 795 70 874.5 158.5 c 128,-1,11
 954 247 954 247 954 408 c 0,0,1
913 1133 m 0,12,13
 913 1269 913 1269 844 1345 c 128,-1,14
 775 1421 775 1421 651 1421 c 0,15,16
 528 1421 528 1421 458.5 1345 c 128,-1,17
 389 1269 389 1269 389 1133 c 0,18,19
 389 996 389 996 458.5 920 c 128,-1,20
 528 844 528 844 651 844 c 0,21,22
 775 844 775 844 844 920 c 128,-1,23
 913 996 913 996 913 1133 c 0,12,13
805 795 m 1,24,25
 975 772 975 772 1070 669.5 c 128,-1,26
 1165 567 1165 567 1165 408 c 0,27,28
 1165 198 1165 198 1032 84.5 c 128,-1,29
 899 -29 899 -29 651 -29 c 0,30,31
 404 -29 404 -29 270.5 84.5 c 128,-1,32
 137 198 137 198 137 408 c 0,33,34
 137 567 137 567 232 669.5 c 128,-1,35
 327 772 327 772 498 795 c 1,36,37
 347 822 347 822 266.5 909.5 c 128,-1,38
 186 997 186 997 186 1133 c 0,39,40
 186 1313 186 1313 310 1416.5 c 128,-1,41
 434 1520 434 1520 651 1520 c 256,42,43
 868 1520 868 1520 992 1416.5 c 128,-1,44
 1116 1313 1116 1313 1116 1133 c 0,45,46
 1116 997 1116 997 1035.5 909.5 c 128,-1,47
 955 822 955 822 805 795 c 1,24,25
EndSplineSet
Validated: 1
EndChar

StartChar: nine
Encoding: 57 57 28
Width: 1303
GlyphClass: 2
Flags: W
LayerCount: 2
Fore
SplineSet
958 669 m 1,0,1
 891 594 891 594 804 557 c 128,-1,2
 717 520 717 520 608 520 c 0,3,4
 386 520 386 520 257.5 654 c 128,-1,5
 129 788 129 788 129 1020 c 0,6,7
 129 1247 129 1247 268.5 1383.5 c 128,-1,8
 408 1520 408 1520 641 1520 c 0,9,10
 894 1520 894 1520 1029.5 1331.5 c 128,-1,11
 1165 1143 1165 1143 1165 793 c 0,12,13
 1165 401 1165 401 1004 186 c 128,-1,14
 843 -29 843 -29 551 -29 c 0,15,16
 472 -29 472 -29 385 -14 c 128,-1,17
 298 1 298 1 207 31 c 1,18,-1
 207 279 l 1,19,-1
 319 279 l 1,20,21
 332 178 332 178 397 124 c 128,-1,22
 462 70 462 70 571 70 c 0,23,24
 765 70 765 70 860 216.5 c 128,-1,25
 955 363 955 363 958 669 c 1,0,1
633 1421 m 0,26,27
 491 1421 491 1421 415.5 1317.5 c 128,-1,28
 340 1214 340 1214 340 1020 c 256,29,30
 340 826 340 826 415.5 722 c 128,-1,31
 491 618 491 618 633 618 c 256,32,33
 775 618 775 618 850.5 718.5 c 128,-1,34
 926 819 926 819 926 1008 c 0,35,36
 926 1207 926 1207 850 1314 c 128,-1,37
 774 1421 774 1421 633 1421 c 0,26,27
EndSplineSet
Validated: 1
EndChar

StartChar: colon
Encoding: 58 58 29
Width: 690
GlyphClass: 2
Flags: W
LayerCount: 2
Fore
SplineSet
213 104 m 256,0,1
 213 160 213 160 251.5 199 c 128,-1,2
 290 238 290 238 346 238 c 256,3,4
 402 238 402 238 440.5 199 c 128,-1,5
 479 160 479 160 479 104 c 256,6,7
 479 48 479 48 441 9.5 c 128,-1,8
 403 -29 403 -29 346 -29 c 256,9,10
 289 -29 289 -29 251 9.5 c 128,-1,11
 213 48 213 48 213 104 c 256,0,1
213 756 m 256,12,13
 213 812 213 812 251.5 850.5 c 128,-1,14
 290 889 290 889 346 889 c 0,15,16
 403 889 403 889 441 851 c 128,-1,17
 479 813 479 813 479 756 c 256,18,19
 479 699 479 699 441 661 c 128,-1,20
 403 623 403 623 346 623 c 0,21,22
 290 623 290 623 251.5 661.5 c 128,-1,23
 213 700 213 700 213 756 c 256,12,13
EndSplineSet
Validated: 1
EndChar

StartChar: semicolon
Encoding: 59 59 30
Width: 690
GlyphClass: 2
Flags: W
LayerCount: 2
Fore
SplineSet
74 -199 m 1,0,1
 168 -130 168 -130 212 -36.5 c 128,-1,2
 256 57 256 57 256 190 c 2,3,-1
 256 227 l 1,4,-1
 453 227 l 1,5,6
 445 56 445 56 372.5 -66.5 c 128,-1,7
 300 -189 300 -189 154 -279 c 1,8,-1
 74 -199 l 1,0,1
217 756 m 256,9,10
 217 812 217 812 255.5 850.5 c 128,-1,11
 294 889 294 889 350 889 c 256,12,13
 406 889 406 889 444.5 850 c 128,-1,14
 483 811 483 811 483 756 c 0,15,16
 483 700 483 700 444.5 661.5 c 128,-1,17
 406 623 406 623 350 623 c 256,18,19
 294 623 294 623 255.5 661.5 c 128,-1,20
 217 700 217 700 217 756 c 256,9,10
EndSplineSet
Validated: 1
EndChar

StartChar: less
Encoding: 60 60 31
Width: 1716
GlyphClass: 2
Flags: W
LayerCount: 2
Fore
SplineSet
1499 1020 m 1,0,-1
 461 641 l 1,1,-1
 1499 264 l 1,2,-1
 1499 94 l 1,3,-1
 217 559 l 1,4,-1
 217 725 l 1,5,-1
 1499 1190 l 1,6,-1
 1499 1020 l 1,0,-1
EndSplineSet
Validated: 1
EndChar

StartChar: equal
Encoding: 61 61 32
Width: 1716
GlyphClass: 2
Flags: W
LayerCount: 2
Fore
SplineSet
217 926 m 1,0,-1
 1499 926 l 1,1,-1
 1499 766 l 1,2,-1
 217 766 l 1,3,-1
 217 926 l 1,0,-1
217 518 m 1,4,-1
 1499 518 l 1,5,-1
 1499 358 l 1,6,-1
 217 358 l 1,7,-1
 217 518 l 1,4,-1
EndSplineSet
Validated: 1
EndChar

StartChar: greater
Encoding: 62 62 33
Width: 1716
GlyphClass: 2
Flags: W
LayerCount: 2
Fore
SplineSet
217 1020 m 1,0,-1
 217 1190 l 1,1,-1
 1499 725 l 1,2,-1
 1499 559 l 1,3,-1
 217 94 l 1,4,-1
 217 264 l 1,5,-1
 1255 641 l 1,6,-1
 217 1020 l 1,0,-1
EndSplineSet
Validated: 1
EndChar

StartChar: question
Encoding: 63 63 34
Width: 1098
GlyphClass: 2
Flags: W
LayerCount: 2
Fore
SplineSet
360 104 m 256,0,1
 360 160 360 160 398.5 199 c 128,-1,2
 437 238 437 238 494 238 c 0,3,4
 549 238 549 238 588 199 c 128,-1,5
 627 160 627 160 627 104 c 0,6,7
 627 49 627 49 588 10 c 128,-1,8
 549 -29 549 -29 494 -29 c 0,9,10
 437 -29 437 -29 398.5 9.5 c 128,-1,11
 360 48 360 48 360 104 c 256,0,1
139 1427 m 1,12,13
 245 1474 245 1474 340.5 1497 c 128,-1,14
 436 1520 436 1520 520 1520 c 0,15,16
 742 1520 742 1520 870.5 1413 c 128,-1,17
 999 1306 999 1306 999 1124 c 0,18,19
 999 938 999 938 888.5 820 c 128,-1,20
 778 702 778 702 555 651 c 1,21,-1
 555 397 l 1,22,-1
 432 397 l 1,23,-1
 432 725 l 1,24,25
 609 768 609 768 698.5 869 c 128,-1,26
 788 970 788 970 788 1126 c 0,27,28
 788 1263 788 1263 715 1342 c 128,-1,29
 642 1421 642 1421 516 1421 c 0,30,31
 402 1421 402 1421 329.5 1355.5 c 128,-1,32
 257 1290 257 1290 236 1167 c 1,33,-1
 139 1167 l 1,34,-1
 139 1427 l 1,12,13
EndSplineSet
Validated: 1
EndChar

StartChar: at
Encoding: 64 64 35
Width: 2048
GlyphClass: 2
Flags: W
LayerCount: 2
Fore
SplineSet
1294 248 m 1,0,1
 1235 166 1235 166 1161.5 126 c 128,-1,2
 1088 86 1088 86 995 86 c 0,3,4
 820 86 820 86 711 211 c 128,-1,5
 602 336 602 336 602 537 c 256,6,7
 602 738 602 738 711 862.5 c 128,-1,8
 820 987 820 987 995 987 c 0,9,10
 1088 987 1088 987 1161.5 947 c 128,-1,11
 1235 907 1235 907 1294 825 c 1,12,-1
 1294 967 l 1,13,-1
 1450 967 l 1,14,-1
 1450 195 l 1,15,16
 1620 232 1620 232 1714 357 c 128,-1,17
 1808 482 1808 482 1808 670 c 0,18,19
 1808 781 1808 781 1774 880 c 128,-1,20
 1740 979 1740 979 1673 1063 c 0,21,22
 1567 1196 1567 1196 1414.5 1266.5 c 128,-1,23
 1262 1337 1262 1337 1083 1337 c 0,24,25
 993 1337 993 1337 905 1318 c 128,-1,26
 817 1299 817 1299 731 1260 c 0,27,28
 529 1167 529 1167 417 978.5 c 128,-1,29
 305 790 305 790 305 543 c 0,30,31
 305 376 305 376 355 235.5 c 128,-1,32
 405 95 405 95 500 -8 c 0,33,34
 609 -127 609 -127 758.5 -189.5 c 128,-1,35
 908 -252 908 -252 1081 -252 c 0,36,37
 1210 -252 1210 -252 1322 -214 c 128,-1,38
 1434 -176 1434 -176 1530 -100 c 1,39,-1
 1583 -170 l 1,40,41
 1475 -263 1475 -263 1338 -309.5 c 128,-1,42
 1201 -356 1201 -356 1038 -356 c 0,43,44
 855 -356 855 -356 688.5 -289.5 c 128,-1,45
 522 -223 522 -223 397 -100 c 0,46,47
 268 27 268 27 201.5 190.5 c 128,-1,48
 135 354 135 354 135 543 c 0,49,50
 135 727 135 727 202 890 c 128,-1,51
 269 1053 269 1053 397 1180 c 0,52,53
 524 1306 524 1306 696.5 1374 c 128,-1,54
 869 1442 869 1442 1063 1442 c 0,55,56
 1277 1442 1277 1442 1453.5 1359 c 128,-1,57
 1630 1276 1630 1276 1749 1120 c 0,58,59
 1825 1022 1825 1022 1864 907 c 128,-1,60
 1903 792 1903 792 1903 668 c 0,61,62
 1903 400 1903 400 1740 244.5 c 128,-1,63
 1577 89 1577 89 1295 86 c 1,64,-1
 1294 248 l 1,0,1
1294 485 m 2,65,-1
 1294 590 l 2,66,67
 1294 715 1294 715 1222.5 792.5 c 128,-1,68
 1151 870 1151 870 1036 870 c 0,69,70
 915 870 915 870 847.5 782.5 c 128,-1,71
 780 695 780 695 780 537 c 0,72,73
 780 378 780 378 848 290.5 c 128,-1,74
 916 203 916 203 1038 203 c 0,75,76
 1152 203 1152 203 1223 281.5 c 128,-1,77
 1294 360 1294 360 1294 485 c 2,65,-1
EndSplineSet
Validated: 1
EndChar

StartChar: A
Encoding: 65 65 36
Width: 1479
GlyphClass: 2
Flags: W
AnchorPoint: "Anchor-2" 630.965 5549.07 basechar 0
AnchorPoint: "Anchor-1" 630.965 5549.07 basechar 0
LayerCount: 2
Fore
SplineSet
434.466796875 388.092773438 m 5,0,-1
 918.672851562 388.092773438 l 5,1,-1
 676.569335938 895.979492188 l 5,2,-1
 434.466796875 388.092773438 l 5,0,-1
61.5927734375 1.0986328125 m 5,3,-1
 61.5927734375 76.923828125 l 5,4,-1
 177.342773438 76.923828125 l 5,5,-1
 647.411132812 1069.08886719 l 5,6,-1
 795.854492188 1069.08886719 l 5,7,-1
 1266.80566406 76.923828125 l 5,8,-1
 1396.69335938 76.923828125 l 5,9,-1
 1396.69335938 1.0986328125 l 5,10,-1
 916.905273438 1.0986328125 l 5,11,-1
 916.905273438 76.923828125 l 5,12,-1
 1063.58007812 76.923828125 l 5,13,-1
 953.131835938 311.551757812 l 5,14,-1
 398.240234375 311.551757812 l 5,15,-1
 287.791015625 76.923828125 l 5,16,-1
 432.700195312 76.923828125 l 5,17,-1
 432.700195312 1.0986328125 l 5,18,-1
 61.5927734375 1.0986328125 l 5,3,-1
EndSplineSet
EndChar

StartChar: C
Encoding: 67 67 38
Width: 1147
GlyphClass: 2
Flags: W
LayerCount: 2
Fore
SplineSet
1053 319 m 1,0,1
 1014 149 1014 149 903 60 c 0,2,3
 792 -29 792 -29 616 -29 c 0,4,5
 384 -29 384 -29 243 124.5 c 0,6,7
 102 278 102 278 102 532 c 0,8,9
 102 787 102 787 243 939.5 c 0,10,11
 384 1092 384 1092 616 1092 c 0,12,13
 717 1092 717 1092 817 1068.5 c 0,14,15
 917 1045 917 1045 1018 997 c 1,16,-1
 1018 725 l 1,17,-1
 911 725 l 1,18,19
 890 865 890 865 819.5 929 c 0,20,21
 749 993 749 993 618 993 c 0,22,23
 469 993 469 993 393 877.5 c 0,24,25
 317 762 317 762 317 532 c 256,26,27
 317 302 317 302 392.5 186 c 0,28,29
 468 70 468 70 618 70 c 0,30,31
 737 70 737 70 808 132 c 0,32,33
 879 194 879 194 905 319 c 1,34,-1
 1053 319 l 1,0,1
EndSplineSet
Refer: 544 729 N 1 0 0 1 104 0 2
EndChar

StartChar: E
Encoding: 69 69 40
Width: 1716
GlyphClass: 2
Flags: W
LayerCount: 2
Fore
SplineSet
217 722 m 1,0,-1
 1499 722 l 1,1,-1
 1499 562 l 1,2,-1
 217 562 l 1,3,-1
 217 722 l 1,0,-1
217 1094 m 1,4,-1
 1499 1094 l 1,5,-1
 1499 934 l 1,6,-1
 217 934 l 1,7,-1
 217 1094 l 1,4,-1
217 350 m 1,8,-1
 1499 350 l 1,9,-1
 1499 190 l 1,10,-1
 217 190 l 1,11,-1
 217 350 l 1,8,-1
EndSplineSet
Validated: 1
EndChar

StartChar: F
Encoding: 70 70 41
Width: 1716
GlyphClass: 2
Flags: W
LayerCount: 2
Fore
SplineSet
117 743 m 1,0,-1
 1405 743 l 1,1,-1
 1212 1080 l 1,2,-1
 1223 1080 l 1,3,-1
 1640 667 l 1,4,-1
 1640 657 l 1,5,-1
 1223 244 l 1,6,-1
 1212 244 l 1,7,-1
 1405 581 l 1,8,-1
 117 581 l 1,9,-1
 117 743 l 1,0,-1
EndSplineSet
Validated: 1
EndChar

StartChar: G
Encoding: 71 71 42
Width: 1311
GlyphClass: 2
Flags: W
LayerCount: 2
Fore
SplineSet
891 479 m 1,0,-1
 650 479 l 1,1,-1
 650 586 l 1,2,-1
 891 586 l 1,3,4
 891 776 891 776 818 876 c 0,5,6
 744 977 744 977 604 977 c 0,7,8
 462 977 462 977 389.5 865 c 128,-1,9
 317 753 317 753 317 532 c 0,10,11
 317 312 317 312 389.5 199 c 128,-1,12
 462 86 462 86 604 86 c 0,13,14
 744 86 744 86 817.5 186.5 c 128,-1,15
 891 287 891 287 891 479 c 1,0,-1
1075 479 m 1,16,-1
 1075 23 l 2,17,18
 1075 -206 1075 -206 949 -330.5 c 128,-1,19
 823 -455 823 -455 590 -455 c 0,20,21
 485 -455 485 -455 389 -436 c 128,-1,22
 293 -417 293 -417 205 -379 c 1,23,-1
 205 -156 l 1,24,-1
 301 -156 l 1,25,26
 319 -260 319 -260 386 -308 c 128,-1,27
 453 -356 453 -356 578 -356 c 0,28,29
 740 -356 740 -356 815.5 -264.5 c 128,-1,30
 891 -173 891 -173 891 23 c 2,31,-1
 891 166 l 1,32,33
 837 66 837 66 753.5 18.5 c 128,-1,34
 670 -29 670 -29 547 -29 c 0,35,36
 351 -29 351 -29 226.5 126.5 c 128,-1,37
 102 282 102 282 102 532 c 128,-1,38
 102 782 102 782 226 937 c 128,-1,39
 350 1092 350 1092 547 1092 c 0,40,41
 670 1092 670 1092 753.5 1044.5 c 128,-1,42
 837 997 837 997 891 897 c 1,43,-1
 891 1063 l 1,44,-1
 1251 1063 l 1,45,-1
 1251 956 l 1,46,-1
 1075 956 l 1,47,-1
 1075 586 l 1,48,-1
 1251 586 l 1,49,-1
 1251 479 l 1,50,-1
 1075 479 l 1,16,-1
EndSplineSet
EndChar

StartChar: H
Encoding: 72 72 43
Width: 1716
GlyphClass: 2
Flags: W
LayerCount: 2
Fore
SplineSet
725 1012 m 0,0,1
 725 1068 725 1068 763.5 1106.5 c 128,-1,2
 802 1145 802 1145 858 1145 c 0,3,4
 913 1145 913 1145 952 1106 c 128,-1,5
 991 1067 991 1067 991 1012 c 0,6,7
 991 956 991 956 952 917.5 c 128,-1,8
 913 879 913 879 858 879 c 0,9,10
 801 879 801 879 763 917 c 128,-1,11
 725 955 725 955 725 1012 c 0,0,1
725 272 m 256,12,13
 725 328 725 328 763.5 367 c 128,-1,14
 802 406 802 406 858 406 c 0,15,16
 913 406 913 406 952 367 c 128,-1,17
 991 328 991 328 991 272 c 0,18,19
 991 217 991 217 952 178 c 128,-1,20
 913 139 913 139 858 139 c 0,21,22
 801 139 801 139 763 177.5 c 128,-1,23
 725 216 725 216 725 272 c 256,12,13
217 723 m 1,24,-1
 1499 723 l 1,25,-1
 1499 561 l 1,26,-1
 217 561 l 1,27,-1
 217 723 l 1,24,-1
EndSplineSet
Validated: 1
EndChar

StartChar: I
Encoding: 73 73 44
Width: 940
GlyphClass: 2
Flags: W
LayerCount: 2
Fore
SplineSet
389 851 m 1,0,-1
 18 851 l 1,1,-1
 18 1013 l 1,2,-1
 389 1013 l 1,3,-1
 389 1493 l 1,4,-1
 551 1493 l 1,5,-1
 551 1013 l 1,6,-1
 922 1013 l 1,7,-1
 922 851 l 1,8,-1
 551 851 l 1,9,-1
 551 642 l 1,10,-1
 922 642 l 1,11,-1
 922 480 l 1,12,-1
 551 480 l 1,13,-1
 551 0 l 1,14,-1
 389 0 l 1,15,-1
 389 480 l 1,16,-1
 18 480 l 1,17,-1
 18 642 l 1,18,-1
 389 642 l 1,19,-1
 389 851 l 1,0,-1
EndSplineSet
EndChar

StartChar: J
Encoding: 74 74 45
Width: 1319
GlyphClass: 2
Flags: W
AnchorPoint: "Anchor-2" 118 -430 basechar 0
LayerCount: 2
Fore
SplineSet
250 956 m 1,0,-1
 76 956 l 1,1,-1
 76 1063 l 1,2,-1
 434 1063 l 1,3,-1
 434 570 l 1,4,-1
 608 570 l 1,5,-1
 608 464 l 1,6,-1
 434 464 l 1,7,-1
 434 -104 l 2,8,9
 434 -268 434 -268 336.5 -361.5 c 0,10,11
 239 -455 239 -455 68 -455 c 0,12,13
 -4 -455 -4 -455 -69.5 -438.5 c 0,14,15
 -135 -422 -135 -422 -197 -389 c 1,16,-1
 -197 -170 l 1,17,-1
 -102 -170 l 1,18,19
 -95 -266 -95 -266 -52.5 -311 c 0,20,21
 -10 -356 -10 -356 72 -356 c 0,22,23
 163 -356 163 -356 206.5 -294.5 c 0,24,25
 250 -233 250 -233 250 -104 c 2,26,-1
 250 464 l 1,27,-1
 74 464 l 1,28,-1
 74 570 l 1,29,-1
 250 570 l 1,30,-1
 250 956 l 1,0,-1
EndSplineSet
Refer: 1126 -1 N 1 0 0 1 0 0 2
EndChar

StartChar: K
Encoding: 75 75 46
Width: 1716
GlyphClass: 2
Flags: W
LayerCount: 2
Fore
SplineSet
1499 612 m 1,0,-1
 1499 465 l 1,1,2
 1400 375 1400 375 1309.5 333 c 128,-1,3
 1219 291 1219 291 1126 291 c 0,4,5
 1034 291 1034 291 868 354 c 0,6,7
 853 360 853 360 845 363 c 0,8,9
 835 367 835 367 813 375 c 0,10,11
 666 432 666 432 571 432 c 0,12,13
 479 432 479 432 392.5 395.5 c 128,-1,14
 306 359 306 359 217 283 c 1,15,-1
 217 430 l 1,16,17
 318 520 318 520 407.5 561 c 128,-1,18
 497 602 497 602 590 602 c 0,19,20
 686 602 686 602 860 536 c 2,21,-1
 870 532 l 2,22,23
 881 529 881 529 901 520 c 0,24,25
 1046 463 1046 463 1143 463 c 0,26,27
 1235 463 1235 463 1323 499.5 c 128,-1,28
 1411 536 1411 536 1499 612 c 1,0,-1
1499 1001 m 1,29,-1
 1499 854 l 1,30,31
 1401 765 1401 765 1310.5 723.5 c 128,-1,32
 1220 682 1220 682 1126 682 c 0,33,34
 1030 682 1030 682 856 748 c 2,35,-1
 846 752 l 2,36,37
 835 756 835 756 813 764 c 0,38,39
 666 821 666 821 571 821 c 0,40,41
 479 821 479 821 392.5 784.5 c 128,-1,42
 306 748 306 748 217 672 c 1,43,-1
 217 819 l 1,44,45
 318 909 318 909 407.5 950 c 128,-1,46
 497 991 497 991 590 991 c 0,47,48
 686 991 686 991 860 926 c 1,49,-1
 870 922 l 2,50,51
 881 918 881 918 901 909 c 0,52,53
 1046 852 1046 852 1143 852 c 0,54,55
 1235 852 1235 852 1323 888.5 c 128,-1,56
 1411 925 1411 925 1499 1001 c 1,29,-1
EndSplineSet
Validated: 1
EndChar

StartChar: L
Encoding: 76 76 47
Width: 655
GlyphClass: 2
Flags: W
LayerCount: 2
Fore
SplineSet
84 0 m 1,0,-1
 84 106 l 1,1,-1
 274 106 l 1,2,-1
 274 956 l 1,3,-1
 84 956 l 1,4,-1
 84 1063 l 1,5,-1
 667 1063 l 1,6,-1
 667 956 l 1,7,-1
 477 956 l 1,8,-1
 477 123 l 1,9,-1
 937 123 l 1,10,-1
 937 373 l 1,11,-1
 1060 373 l 1,12,-1
 1060 0 l 1,13,-1
 84 0 l 1,0,-1
EndSplineSet
EndChar

StartChar: M
Encoding: 77 77 48
Width: 1716
GlyphClass: 2
Flags: W
LayerCount: 2
Fore
SplineSet
1499 156 m 1,0,-1
 1499 0 l 1,1,-1
 217 0 l 1,2,-1
 217 156 l 1,3,-1
 1499 156 l 1,0,-1
217 1026 m 1,4,-1
 217 1192 l 1,5,-1
 1499 825 l 1,6,-1
 1499 655 l 1,7,-1
 217 287 l 1,8,-1
 217 453 l 1,9,-1
 1272 739 l 1,10,-1
 217 1026 l 1,4,-1
EndSplineSet
Validated: 1
EndChar

StartChar: O
Encoding: 79 79 50
Width: 1716
GlyphClass: 2
Flags: W
LayerCount: 2
Fore
SplineSet
1499 1026 m 1,0,-1
 444 739 l 1,1,-1
 1499 453 l 1,2,-1
 1499 287 l 1,3,-1
 217 655 l 1,4,-1
 217 825 l 1,5,-1
 1499 1192 l 1,6,-1
 1499 1026 l 1,0,-1
217 156 m 1,7,-1
 1499 156 l 1,8,-1
 1499 0 l 1,9,-1
 217 0 l 1,10,-1
 217 156 l 1,7,-1
EndSplineSet
Validated: 1
EndChar

StartChar: P
Encoding: 80 80 51
Width: 1716
GlyphClass: 2
Flags: W
LayerCount: 2
Fore
SplineSet
1599 743 m 1,0,-1
 1599 581 l 1,1,-1
 311 581 l 1,2,-1
 504 244 l 1,3,-1
 493 244 l 1,4,-1
 76 657 l 1,5,-1
 76 667 l 1,6,-1
 493 1080 l 1,7,-1
 504 1080 l 1,8,-1
 311 743 l 1,9,-1
 1599 743 l 1,0,-1
EndSplineSet
Validated: 1
EndChar

StartChar: Q
Encoding: 81 81 52
Width: 1311
GlyphClass: 2
Flags: W
AnchorPoint: "Anchor-2" 983 -430 basechar 0
AnchorPoint: "Anchor-1" 569 1092 basechar 0
LayerCount: 2
Fore
SplineSet
781 1468 m 4,0,1
 828 1468 828 1468 862.5 1433.5 c 132,-1,2
 897 1399 897 1399 897 1351 c 4,3,4
 897 1300 897 1300 864 1267 c 132,-1,5
 831 1234 831 1234 781 1234 c 4,6,7
 730 1234 730 1234 697 1267 c 132,-1,8
 664 1300 664 1300 664 1351 c 4,9,10
 664 1399 664 1399 698.5 1433.5 c 132,-1,11
 733 1468 733 1468 781 1468 c 4,0,1
1075 956 m 1,12,-1
 1075 -319 l 1,13,-1
 1251 -319 l 1,14,-1
 1251 -426 l 1,15,-1
 717 -426 l 1,16,-1
 717 -319 l 1,17,-1
 891 -319 l 1,18,-1
 891 166 l 1,19,20
 837 66 837 66 753.5 18.5 c 128,-1,21
 670 -29 670 -29 547 -29 c 0,22,23
 351 -29 351 -29 226.5 126.5 c 128,-1,24
 102 282 102 282 102 532 c 256,25,26
 102 782 102 782 226 937 c 128,-1,27
 350 1092 350 1092 547 1092 c 0,28,29
 670 1092 670 1092 753.5 1044.5 c 128,-1,30
 837 997 837 997 891 897 c 1,31,-1
 891 1063 l 1,32,-1
 1251 1063 l 1,33,-1
 1251 956 l 1,34,-1
 1075 956 l 1,12,-1
891 584 m 2,35,36
 891 775 891 775 817.5 876 c 128,-1,37
 744 977 744 977 604 977 c 0,38,39
 462 977 462 977 389.5 865 c 128,-1,40
 317 753 317 753 317 532 c 0,41,42
 317 312 317 312 389.5 199 c 128,-1,43
 462 86 462 86 604 86 c 0,44,45
 744 86 744 86 817.5 186.5 c 128,-1,46
 891 287 891 287 891 479 c 2,47,-1
 891 584 l 2,35,36
EndSplineSet
EndChar

StartChar: R
Encoding: 82 82 53
Width: 979
GlyphClass: 2
Flags: W
AnchorPoint: "Anchor-2" 328 0 basechar 0
AnchorPoint: "Anchor-1" 552 1092 basechar 0
LayerCount: 2
Fore
SplineSet
473 1468 m 4,0,1
 520 1468 520 1468 554.5 1433.5 c 132,-1,2
 589 1399 589 1399 589 1351 c 4,3,4
 589 1300 589 1300 556 1267 c 132,-1,5
 523 1234 523 1234 473 1234 c 4,6,7
 422 1234 422 1234 389 1267 c 132,-1,8
 356 1300 356 1300 356 1351 c 4,9,10
 356 1399 356 1399 390.5 1433.5 c 132,-1,11
 425 1468 425 1468 473 1468 c 4,0,1
979 1065 m 1,12,-1
 979 799 l 1,13,-1
 873 799 l 1,14,15
 868 878 868 878 829 917 c 128,-1,16
 790 956 790 956 715 956 c 0,17,18
 579 956 579 956 506.5 862 c 128,-1,19
 434 768 434 768 434 592 c 2,20,-1
 434 570 l 1,21,-1
 725 570 l 1,22,-1
 725 464 l 1,23,-1
 434 464 l 1,24,-1
 434 106 l 1,25,-1
 647 106 l 1,26,-1
 647 0 l 1,27,-1
 84 0 l 1,28,-1
 84 106 l 1,29,-1
 250 106 l 1,30,-1
 250 464 l 1,31,-1
 74 464 l 1,32,-1
 74 570 l 1,33,-1
 250 570 l 1,34,-1
 250 958 l 1,35,-1
 74 958 l 1,36,-1
 74 1063 l 1,37,-1
 434 1063 l 1,38,-1
 434 874 l 1,39,40
 488 985 488 985 573 1038.5 c 128,-1,41
 658 1092 658 1092 780 1092 c 0,42,43
 825 1092 825 1092 874.5 1085 c 128,-1,44
 924 1078 924 1078 979 1065 c 1,12,-1
EndSplineSet
EndChar

StartChar: T
Encoding: 84 84 55
Width: 823
GlyphClass: 2
Flags: W
LayerCount: 2
Fore
SplineSet
689 738 m 4,0,1
 736 738 736 738 770.5 703.5 c 4,2,3
 805 669 805 669 805 621 c 4,4,5
 805 570 805 570 772 537 c 4,6,7
 739 504 739 504 689 504 c 4,8,9
 638 504 638 504 605 537 c 4,10,11
 572 570 572 570 572 621 c 4,12,13
 572 669 572 669 606.5 703.5 c 4,14,15
 641 738 641 738 689 738 c 4,0,1
EndSplineSet
Refer: 87 116 N 1 0 0 1 0 0 3
EndChar

StartChar: U
Encoding: 85 85 56
Width: 1716
GlyphClass: 2
Flags: W
LayerCount: 2
Fore
SplineSet
777 0 m 1,0,-1
 777 1288 l 1,1,-1
 440 1095 l 1,2,-1
 440 1106 l 1,3,-1
 853 1523 l 1,4,-1
 863 1523 l 1,5,-1
 1276 1106 l 1,6,-1
 1276 1095 l 1,7,-1
 939 1288 l 1,8,-1
 939 0 l 1,9,-1
 777 0 l 1,0,-1
EndSplineSet
Validated: 1
EndChar

StartChar: V
Encoding: 86 86 57
Width: 1716
GlyphClass: 2
Flags: W
LayerCount: 2
Fore
SplineSet
939 1482 m 1,0,-1
 939 194 l 1,1,-1
 1276 387 l 1,2,-1
 1276 376 l 1,3,-1
 863 -41 l 1,4,-1
 853 -41 l 1,5,-1
 440 376 l 1,6,-1
 440 387 l 1,7,-1
 777 194 l 1,8,-1
 777 1482 l 1,9,-1
 939 1482 l 1,0,-1
EndSplineSet
Validated: 1
EndChar

StartChar: W
Encoding: 87 87 58
Width: 1653
GlyphClass: 2
Flags: W
LayerCount: 2
Fore
SplineSet
597.915039062 76.2060546875 m 5,0,-1
 744.55859375 76.2060546875 l 6,1,2
 971.541992188 76.2060546875 971.541992188 76.2060546875 1093.22363281 193.01953125 c 132,-1,3
 1214.90722656 309.831054688 1214.90722656 309.831054688 1214.90722656 527.975585938 c 260,4,5
 1214.90722656 746.115234375 1214.90722656 746.115234375 1093.61425781 861.521484375 c 132,-1,6
 972.322265625 976.926757812 972.322265625 976.926757812 744.55859375 976.926757812 c 6,7,-1
 597.915039062 976.926757812 l 5,8,-1
 597.915039062 595.52734375 l 5,9,-1
 860 595.52734375 l 5,10,-1
 860 507.567382812 l 5,11,-1
 597.915039062 507.567382812 l 5,12,-1
 597.915039062 76.2060546875 l 5,0,-1
292.930664062 1.6162109375 m 5,13,-1
 292.930664062 76.2060546875 l 5,14,-1
 441.1328125 76.2060546875 l 5,15,-1
 441.1328125 507.567382812 l 5,16,-1
 285.130859375 507.567382812 l 5,17,-1
 285.130859375 595.52734375 l 5,18,-1
 441.1328125 595.52734375 l 5,19,-1
 441.1328125 976.926757812 l 5,20,-1
 292.930664062 976.926757812 l 5,21,-1
 292.930664062 1052.21972656 l 5,22,-1
 756.258789062 1052.21972656 l 6,23,24
 1057.34375 1052.21972656 1057.34375 1052.21972656 1225.43652344 913.59375 c 132,-1,25
 1393.53027344 774.96875 1393.53027344 774.96875 1393.53027344 527.975585938 c 4,26,27
 1393.53027344 280.276367188 1393.53027344 280.276367188 1225.046875 140.9453125 c 132,-1,28
 1056.56445312 1.6162109375 1056.56445312 1.6162109375 756.258789062 1.6162109375 c 6,29,-1
 292.930664062 1.6162109375 l 5,13,-1
EndSplineSet
EndChar

StartChar: X
Encoding: 88 88 59
Width: 1133
GlyphClass: 2
Flags: W
LayerCount: 2
Fore
SplineSet
385 1484 m 4,0,1
 433 1484 433 1484 467.5 1449.5 c 132,-1,2
 502 1415 502 1415 502 1367 c 4,3,4
 502 1316 502 1316 469 1283 c 132,-1,5
 436 1250 436 1250 385 1250 c 4,6,7
 335 1250 335 1250 302 1283 c 132,-1,8
 269 1316 269 1316 269 1367 c 4,9,10
 269 1415 269 1415 303.5 1449.5 c 132,-1,11
 338 1484 338 1484 385 1484 c 4,0,1
775 1484 m 4,12,13
 822 1484 822 1484 856.5 1449.5 c 132,-1,14
 891 1415 891 1415 891 1367 c 4,15,16
 891 1316 891 1316 858 1283 c 132,-1,17
 825 1250 825 1250 775 1250 c 4,18,19
 724 1250 724 1250 691 1283 c 132,-1,20
 658 1316 658 1316 658 1367 c 4,21,22
 658 1415 658 1415 692.5 1449.5 c 132,-1,23
 727 1484 727 1484 775 1484 c 4,12,13
1055 1063 m 1,24,-1
 1055 774 l 1,25,-1
 950 774 l 1,26,-1
 950 940 l 1,27,-1
 661 940 l 1,28,-1
 661 106 l 1,29,-1
 827 106 l 1,30,-1
 827 0 l 1,31,-1
 311 0 l 1,32,-1
 311 106 l 1,33,-1
 477 106 l 1,34,-1
 477 940 l 1,35,-1
 188 940 l 1,36,-1
 188 774 l 1,37,-1
 83 774 l 1,38,-1
 83 1063 l 1,39,-1
 1055 1063 l 1,24,-1
EndSplineSet
EndChar

StartChar: Y
Encoding: 89 89 60
Width: 1157
GlyphClass: 2
Flags: W
LayerCount: 2
Fore
SplineSet
385 1569 m 4,0,1
 433 1569 433 1569 467.5 1534.5 c 4,2,3
 502 1500 502 1500 502 1452 c 4,4,5
 502 1401 502 1401 469 1368 c 4,6,7
 436 1335 436 1335 385 1335 c 4,8,9
 335 1335 335 1335 302 1368 c 4,10,11
 269 1401 269 1401 269 1452 c 4,12,13
 269 1500 269 1500 303.5 1534.5 c 4,14,15
 338 1569 338 1569 385 1569 c 4,0,1
775 1569 m 4,16,17
 822 1569 822 1569 856.5 1534.5 c 4,18,19
 891 1500 891 1500 891 1452 c 4,20,21
 891 1401 891 1401 858 1368 c 4,22,23
 825 1335 825 1335 775 1335 c 4,24,25
 724 1335 724 1335 691 1368 c 4,26,27
 658 1401 658 1401 658 1452 c 4,28,29
 658 1500 658 1500 692.5 1534.5 c 4,30,31
 727 1569 727 1569 775 1569 c 4,16,17
EndSplineSet
Refer: 92 121 N 1 0 0 1 0 0 3
Validated: 1
EndChar

StartChar: bracketleft
Encoding: 91 91 62
Width: 799
GlyphClass: 2
Flags: W
LayerCount: 2
Fore
SplineSet
176 1556 m 1,0,-1
 641 1556 l 1,1,-1
 641 1450 l 1,2,-1
 367 1450 l 1,3,-1
 367 -164 l 1,4,-1
 641 -164 l 1,5,-1
 641 -270 l 1,6,-1
 176 -270 l 1,7,-1
 176 1556 l 1,0,-1
EndSplineSet
Validated: 1
EndChar

StartChar: backslash
Encoding: 92 92 63
Width: 690
GlyphClass: 2
Flags: W
LayerCount: 2
Fore
SplineSet
160 1493 m 1,0,-1
 690 -190 l 1,1,-1
 530 -190 l 1,2,-1
 0 1493 l 1,3,-1
 160 1493 l 1,0,-1
EndSplineSet
Validated: 1
EndChar

StartChar: bracketright
Encoding: 93 93 64
Width: 799
GlyphClass: 2
Flags: W
LayerCount: 2
Fore
SplineSet
623 1556 m 1,0,-1
 623 -270 l 1,1,-1
 158 -270 l 1,2,-1
 158 -164 l 1,3,-1
 432 -164 l 1,4,-1
 432 1450 l 1,5,-1
 158 1450 l 1,6,-1
 158 1556 l 1,7,-1
 623 1556 l 1,0,-1
EndSplineSet
Validated: 1
EndChar

StartChar: asciicircum
Encoding: 94 94 65
Width: 1716
GlyphClass: 2
Flags: W
LayerCount: 2
Fore
SplineSet
956 1493 m 1,0,-1
 1499 936 l 1,1,-1
 1346 936 l 1,2,-1
 858 1317 l 1,3,-1
 371 936 l 1,4,-1
 217 936 l 1,5,-1
 760 1493 l 1,6,-1
 956 1493 l 1,0,-1
EndSplineSet
Validated: 1
EndChar

StartChar: underscore
Encoding: 95 95 66
Width: 1024
GlyphClass: 2
Flags: W
LayerCount: 2
Fore
SplineSet
1024 -403 m 1,0,-1
 1024 -483 l 1,1,-1
 0 -483 l 1,2,-1
 0 -403 l 1,3,-1
 1024 -403 l 1,0,-1
EndSplineSet
Validated: 1
EndChar

StartChar: grave
Encoding: 96 96 67
Width: 1024
GlyphClass: 2
Flags: W
LayerCount: 2
Fore
SplineSet
367 1636 m 1,0,-1
 627 1260 l 1,1,-1
 510 1260 l 1,2,-1
 170 1636 l 1,3,-1
 367 1636 l 1,0,-1
EndSplineSet
Validated: 1
EndChar

StartChar: a
Encoding: 97 97 68
Width: 1221
GlyphClass: 2
Flags: W
AnchorPoint: "Anchor-2" 569 0 basechar 0
AnchorPoint: "Anchor-1" 569 1092 basechar 0
LayerCount: 2
Fore
SplineSet
815 334 m 2,0,-1
 815 559 l 1,1,-1
 578 559 l 2,2,3
 441 559 441 559 374 500 c 128,-1,4
 307 441 307 441 307 319 c 0,5,6
 307 208 307 208 375 143 c 128,-1,7
 443 78 443 78 559 78 c 0,8,9
 674 78 674 78 744.5 149 c 128,-1,10
 815 220 815 220 815 334 c 2,0,-1
999 664 m 2,11,-1
 999 106 l 1,12,-1
 1163 106 l 1,13,-1
 1163 0 l 1,14,-1
 815 0 l 1,15,-1
 815 115 l 1,16,17
 754 41 754 41 674 6 c 128,-1,18
 594 -29 594 -29 487 -29 c 0,19,20
 310 -29 310 -29 206 65 c 128,-1,21
 102 159 102 159 102 319 c 0,22,23
 102 484 102 484 221 575 c 128,-1,24
 340 666 340 666 557 666 c 2,25,-1
 815 666 l 1,26,-1
 815 739 l 2,27,28
 815 860 815 860 741.5 926.5 c 128,-1,29
 668 993 668 993 535 993 c 0,30,31
 425 993 425 993 360 943 c 128,-1,32
 295 893 295 893 279 795 c 1,33,-1
 184 795 l 1,34,-1
 184 1010 l 1,35,36
 280 1051 280 1051 370.5 1071.5 c 128,-1,37
 461 1092 461 1092 547 1092 c 0,38,39
 768 1092 768 1092 883.5 982.5 c 128,-1,40
 999 873 999 873 999 664 c 2,11,-1
EndSplineSet
Validated: 1
EndChar

StartChar: b
Encoding: 98 98 69
Width: 1311
GlyphClass: 2
Flags: W
AnchorPoint: "Anchor-2" 729 0 basechar 0
AnchorPoint: "Anchor-1" 328 1536 basechar 0
LayerCount: 2
Fore
SplineSet
236 106 m 1,0,-1
 236 1450 l 1,1,-1
 59 1450 l 1,2,-1
 59 1556 l 1,3,-1
 420 1556 l 1,4,-1
 420 897 l 1,5,6
 474 997 474 997 557.5 1044.5 c 128,-1,7
 641 1092 641 1092 764 1092 c 0,8,9
 960 1092 960 1092 1084 937 c 128,-1,10
 1208 782 1208 782 1208 532 c 256,11,12
 1208 282 1208 282 1084 126.5 c 128,-1,13
 960 -29 960 -29 764 -29 c 0,14,15
 641 -29 641 -29 557.5 18.5 c 128,-1,16
 474 66 474 66 420 166 c 1,17,-1
 420 0 l 1,18,-1
 59 0 l 1,19,-1
 59 106 l 1,20,-1
 236 106 l 1,0,-1
420 479 m 2,21,22
 420 287 420 287 493.5 186.5 c 128,-1,23
 567 86 567 86 707 86 c 0,24,25
 848 86 848 86 920.5 199 c 128,-1,26
 993 312 993 312 993 532 c 0,27,28
 993 753 993 753 920.5 865 c 128,-1,29
 848 977 848 977 707 977 c 0,30,31
 567 977 567 977 493.5 876 c 128,-1,32
 420 775 420 775 420 584 c 2,33,-1
 420 479 l 2,21,22
EndSplineSet
Validated: 1
EndChar

StartChar: c
Encoding: 99 99 70
Width: 1147
GlyphClass: 2
Flags: W
LayerCount: 2
Fore
SplineSet
1053 319 m 1,0,1
 1014 149 1014 149 903 60 c 128,-1,2
 792 -29 792 -29 616 -29 c 0,3,4
 384 -29 384 -29 243 124.5 c 128,-1,5
 102 278 102 278 102 532 c 0,6,7
 102 787 102 787 243 939.5 c 128,-1,8
 384 1092 384 1092 616 1092 c 0,9,10
 717 1092 717 1092 817 1068.5 c 128,-1,11
 917 1045 917 1045 1018 997 c 1,12,-1
 1018 725 l 1,13,-1
 911 725 l 1,14,15
 890 865 890 865 819.5 929 c 128,-1,16
 749 993 749 993 618 993 c 0,17,18
 469 993 469 993 393 877.5 c 128,-1,19
 317 762 317 762 317 532 c 256,20,21
 317 302 317 302 392.5 186 c 128,-1,22
 468 70 468 70 618 70 c 0,23,24
 737 70 737 70 808 132 c 128,-1,25
 879 194 879 194 905 319 c 1,26,-1
 1053 319 l 1,0,1
515 537 m 0,27,28
 515 593 515 593 553.5 631.5 c 128,-1,29
 592 670 592 670 649 670 c 0,30,31
 704 670 704 670 743 631 c 128,-1,32
 782 592 782 592 782 537 c 0,33,34
 782 481 782 481 743 442.5 c 128,-1,35
 704 404 704 404 649 404 c 0,36,37
 592 404 592 404 553.5 442 c 128,-1,38
 515 480 515 480 515 537 c 0,27,28
EndSplineSet
EndChar

StartChar: d
Encoding: 100 100 71
Width: 1311
GlyphClass: 2
Flags: W
AnchorPoint: "Anchor-2" 569 0 basechar 0
AnchorPoint: "Anchor-1" 983 1536 basechar 0
LayerCount: 2
Fore
SplineSet
1075 106 m 1,0,-1
 1251 106 l 1,1,-1
 1251 0 l 1,2,-1
 891 0 l 1,3,-1
 891 166 l 1,4,5
 837 66 837 66 753.5 18.5 c 128,-1,6
 670 -29 670 -29 547 -29 c 0,7,8
 351 -29 351 -29 226.5 126.5 c 128,-1,9
 102 282 102 282 102 532 c 256,10,11
 102 782 102 782 226 937 c 128,-1,12
 350 1092 350 1092 547 1092 c 0,13,14
 670 1092 670 1092 753.5 1044.5 c 128,-1,15
 837 997 837 997 891 897 c 1,16,-1
 891 1450 l 1,17,-1
 717 1450 l 1,18,-1
 717 1556 l 1,19,-1
 1075 1556 l 1,20,-1
 1075 106 l 1,0,-1
891 479 m 2,21,-1
 891 584 l 2,22,23
 891 775 891 775 817.5 876 c 128,-1,24
 744 977 744 977 604 977 c 0,25,26
 462 977 462 977 389.5 865 c 128,-1,27
 317 753 317 753 317 532 c 0,28,29
 317 312 317 312 389.5 199 c 128,-1,30
 462 86 462 86 604 86 c 0,31,32
 744 86 744 86 817.5 186.5 c 128,-1,33
 891 287 891 287 891 479 c 2,21,-1
EndSplineSet
Validated: 1
EndChar

StartChar: e
Encoding: 101 101 72
Width: 1212
GlyphClass: 2
Flags: W
AnchorPoint: "Anchor-2" 606 0 basechar 0
AnchorPoint: "Anchor-1" 606 1092 basechar 0
LayerCount: 2
Fore
SplineSet
1110 512 m 1,0,-1
 317 512 l 1,1,-1
 317 504 l 2,2,3
 317 289 317 289 398 179.5 c 128,-1,4
 479 70 479 70 637 70 c 0,5,6
 758 70 758 70 835.5 133.5 c 128,-1,7
 913 197 913 197 944 322 c 1,8,-1
 1092 322 l 1,9,10
 1048 147 1048 147 929.5 59 c 128,-1,11
 811 -29 811 -29 618 -29 c 0,12,13
 385 -29 385 -29 243.5 124.5 c 128,-1,14
 102 278 102 278 102 532 c 0,15,16
 102 784 102 784 241 938 c 128,-1,17
 380 1092 380 1092 606 1092 c 0,18,19
 847 1092 847 1092 976 943.5 c 128,-1,20
 1105 795 1105 795 1110 512 c 1,0,-1
893 618 m 1,21,22
 887 804 887 804 814.5 898.5 c 128,-1,23
 742 993 742 993 606 993 c 0,24,25
 479 993 479 993 406 898 c 128,-1,26
 333 803 333 803 317 618 c 1,27,-1
 893 618 l 1,21,22
EndSplineSet
Validated: 1
EndChar

StartChar: f
Encoding: 102 102 73
Width: 758
GlyphClass: 2
Flags: W
AnchorPoint: "Anchor-2" 342 0 basechar 0
AnchorPoint: "Anchor-1" 565 1536 basechar 0
LayerCount: 2
Fore
SplineSet
881 1305 m 1,0,-1
 784 1305 l 1,1,2
 783 1380 783 1380 741.5 1419 c 128,-1,3
 700 1458 700 1458 621 1458 c 0,4,5
 518 1458 518 1458 476 1401.5 c 128,-1,6
 434 1345 434 1345 434 1200 c 2,7,-1
 434 1063 l 1,8,-1
 731 1063 l 1,9,-1
 731 956 l 1,10,-1
 434 956 l 1,11,-1
 434 106 l 1,12,-1
 670 106 l 1,13,-1
 670 0 l 1,14,-1
 74 0 l 1,15,-1
 74 106 l 1,16,-1
 250 106 l 1,17,-1
 250 956 l 1,18,-1
 74 956 l 1,19,-1
 74 1063 l 1,20,-1
 250 1063 l 1,21,-1
 250 1196 l 2,22,23
 250 1374 250 1374 342.5 1465 c 128,-1,24
 435 1556 435 1556 614 1556 c 0,25,26
 681 1556 681 1556 748 1544 c 128,-1,27
 815 1532 815 1532 881 1507 c 1,28,-1
 881 1305 l 1,0,-1
EndSplineSet
Validated: 1
EndChar

StartChar: g
Encoding: 103 103 74
Width: 1311
GlyphClass: 2
Flags: W
AnchorPoint: "Anchor-2" 604 -430 basechar 0
AnchorPoint: "Anchor-1" 604 1092 basechar 0
LayerCount: 2
Fore
SplineSet
1075 956 m 1,0,-1
 1075 23 l 2,1,2
 1075 -206 1075 -206 949 -330.5 c 128,-1,3
 823 -455 823 -455 590 -455 c 0,4,5
 485 -455 485 -455 389 -436 c 128,-1,6
 293 -417 293 -417 205 -379 c 1,7,-1
 205 -156 l 1,8,-1
 301 -156 l 1,9,10
 319 -260 319 -260 386 -308 c 128,-1,11
 453 -356 453 -356 578 -356 c 0,12,13
 740 -356 740 -356 815.5 -264.5 c 128,-1,14
 891 -173 891 -173 891 23 c 2,15,-1
 891 166 l 1,16,17
 837 66 837 66 753.5 18.5 c 128,-1,18
 670 -29 670 -29 547 -29 c 0,19,20
 351 -29 351 -29 226.5 126.5 c 128,-1,21
 102 282 102 282 102 532 c 256,22,23
 102 782 102 782 226 937 c 128,-1,24
 350 1092 350 1092 547 1092 c 0,25,26
 670 1092 670 1092 753.5 1044.5 c 128,-1,27
 837 997 837 997 891 897 c 1,28,-1
 891 1063 l 1,29,-1
 1251 1063 l 1,30,-1
 1251 956 l 1,31,-1
 1075 956 l 1,0,-1
891 584 m 2,32,33
 891 775 891 775 817.5 876 c 128,-1,34
 744 977 744 977 604 977 c 0,35,36
 462 977 462 977 389.5 865 c 128,-1,37
 317 753 317 753 317 532 c 0,38,39
 317 312 317 312 389.5 199 c 128,-1,40
 462 86 462 86 604 86 c 0,41,42
 744 86 744 86 817.5 186.5 c 128,-1,43
 891 287 891 287 891 479 c 2,44,-1
 891 584 l 2,32,33
EndSplineSet
Validated: 1
AlternateSubs2: "'aalt' Access All Alternates lookup 7 subtable" g.alt
AlternateSubs2: "'salt' Stylistic Alternatives lookup 6 subtable" g.alt
EndChar

StartChar: i
Encoding: 105 105 76
Width: 655
GlyphClass: 2
Flags: W
AnchorPoint: "Anchor-2" 328 0 basechar 0
AnchorPoint: "Anchor-1" 328 1536 basechar 0
LayerCount: 2
Fore
SplineSet
199 1393 m 0,0,1
 199 1439 199 1439 232.5 1473 c 128,-1,2
 266 1507 266 1507 313 1507 c 0,3,4
 359 1507 359 1507 392.5 1473 c 128,-1,5
 426 1439 426 1439 426 1393 c 0,6,7
 426 1346 426 1346 393 1313 c 128,-1,8
 360 1280 360 1280 313 1280 c 256,9,10
 266 1280 266 1280 232.5 1313 c 128,-1,11
 199 1346 199 1346 199 1393 c 0,0,1
434 106 m 1,12,-1
 608 106 l 1,13,-1
 608 0 l 1,14,-1
 74 0 l 1,15,-1
 74 106 l 1,16,-1
 250 106 l 1,17,-1
 250 956 l 1,18,-1
 74 956 l 1,19,-1
 74 1063 l 1,20,-1
 434 1063 l 1,21,-1
 434 106 l 1,12,-1
EndSplineSet
Validated: 1
Substitution2: "Single Substitution lookup 9 subtable" dotlessi
EndChar

StartChar: j
Encoding: 106 106 77
Width: 635
GlyphClass: 2
Flags: W
AnchorPoint: "Anchor-2" 118 -430 basechar 0
AnchorPoint: "Anchor-1" 328 1536 basechar 0
LayerCount: 2
Fore
SplineSet
205 1393 m 0,0,1
 205 1439 205 1439 238.5 1473 c 128,-1,2
 272 1507 272 1507 319 1507 c 0,3,4
 365 1507 365 1507 398.5 1473 c 128,-1,5
 432 1439 432 1439 432 1393 c 0,6,7
 432 1346 432 1346 399.5 1313 c 128,-1,8
 367 1280 367 1280 319 1280 c 0,9,10
 272 1280 272 1280 238.5 1313 c 128,-1,11
 205 1346 205 1346 205 1393 c 0,0,1
250 956 m 1,12,-1
 76 956 l 1,13,-1
 76 1063 l 1,14,-1
 434 1063 l 1,15,-1
 434 -104 l 2,16,17
 434 -268 434 -268 336.5 -361.5 c 128,-1,18
 239 -455 239 -455 68 -455 c 0,19,20
 -4 -455 -4 -455 -69.5 -438.5 c 128,-1,21
 -135 -422 -135 -422 -197 -389 c 1,22,-1
 -197 -170 l 1,23,-1
 -102 -170 l 1,24,25
 -95 -266 -95 -266 -52.5 -311 c 128,-1,26
 -10 -356 -10 -356 72 -356 c 0,27,28
 163 -356 163 -356 206.5 -294.5 c 128,-1,29
 250 -233 250 -233 250 -104 c 2,30,-1
 250 956 l 1,12,-1
EndSplineSet
Validated: 1
Substitution2: "Single Substitution lookup 9 subtable" dotlessj
EndChar

StartChar: k
Encoding: 107 107 78
Width: 1430
GlyphClass: 2
Flags: W
LayerCount: 2
Fore
SplineSet
1075 164 m 1,0,-1
 657 1253 l 1,1,-1
 238 164 l 1,2,-1
 1075 164 l 1,0,-1
51 0 m 1,3,-1
 623 1493 l 1,4,-1
 795 1493 l 1,5,-1
 1366 0 l 1,6,-1
 51 0 l 1,3,-1
EndSplineSet
EndChar

StartChar: l
Encoding: 108 108 79
Width: 655
GlyphClass: 2
Flags: W
AnchorPoint: "Anchor-2" 328 0 basechar 0
AnchorPoint: "Anchor-1" 328 1536 basechar 0
LayerCount: 2
Fore
SplineSet
420 106 m 1,0,-1
 594 106 l 1,1,-1
 594 0 l 1,2,-1
 59 0 l 1,3,-1
 59 106 l 1,4,-1
 236 106 l 1,5,-1
 236 1450 l 1,6,-1
 59 1450 l 1,7,-1
 59 1556 l 1,8,-1
 420 1556 l 1,9,-1
 420 106 l 1,0,-1
EndSplineSet
Validated: 1
EndChar

StartChar: m
Encoding: 109 109 80
Width: 1942
GlyphClass: 2
Flags: W
AnchorPoint: "Anchor-2" 985 0 basechar 0
AnchorPoint: "Anchor-1" 985 1092 basechar 0
LayerCount: 2
Fore
SplineSet
1061 856 m 1,0,1
 1114 973 1114 973 1196.5 1032.5 c 128,-1,2
 1279 1092 1279 1092 1389 1092 c 0,3,4
 1556 1092 1556 1092 1638 988.5 c 128,-1,5
 1720 885 1720 885 1720 676 c 2,6,-1
 1720 106 l 1,7,-1
 1886 106 l 1,8,-1
 1886 0 l 1,9,-1
 1376 0 l 1,10,-1
 1376 106 l 1,11,-1
 1536 106 l 1,12,-1
 1536 655 l 2,13,14
 1536 818 1536 818 1488 887 c 128,-1,15
 1440 956 1440 956 1329 956 c 0,16,17
 1206 956 1206 956 1141.5 863 c 128,-1,18
 1077 770 1077 770 1077 592 c 2,19,-1
 1077 106 l 1,20,-1
 1237 106 l 1,21,-1
 1237 0 l 1,22,-1
 733 0 l 1,23,-1
 733 106 l 1,24,-1
 893 106 l 1,25,-1
 893 662 l 2,26,27
 893 821 893 821 845 888.5 c 128,-1,28
 797 956 797 956 686 956 c 0,29,30
 563 956 563 956 498.5 863 c 128,-1,31
 434 770 434 770 434 592 c 2,32,-1
 434 106 l 1,33,-1
 594 106 l 1,34,-1
 594 0 l 1,35,-1
 84 0 l 1,36,-1
 84 106 l 1,37,-1
 250 106 l 1,38,-1
 250 958 l 1,39,-1
 74 958 l 1,40,-1
 74 1063 l 1,41,-1
 434 1063 l 1,42,-1
 434 874 l 1,43,44
 485 980 485 980 564 1036 c 128,-1,45
 643 1092 643 1092 743 1092 c 0,46,47
 867 1092 867 1092 950 1030.5 c 128,-1,48
 1033 969 1033 969 1061 856 c 1,0,1
EndSplineSet
EndChar

StartChar: n
Encoding: 110 110 81
Width: 1319
GlyphClass: 2
Flags: W
AnchorPoint: "Anchor-2" 673 0 basechar 0
AnchorPoint: "Anchor-1" 594 1092 basechar 0
LayerCount: 2
Fore
SplineSet
84 0 m 1,0,-1
 84 106 l 1,1,-1
 250 106 l 1,2,-1
 250 956 l 1,3,-1
 74 956 l 1,4,-1
 74 1063 l 1,5,-1
 434 1063 l 1,6,-1
 434 874 l 1,7,8
 485 982 485 982 566.5 1037 c 128,-1,9
 648 1092 648 1092 756 1092 c 0,10,11
 932 1092 932 1092 1015 991 c 128,-1,12
 1098 890 1098 890 1098 676 c 2,13,-1
 1098 106 l 1,14,-1
 1262 106 l 1,15,-1
 1262 0 l 1,16,-1
 754 0 l 1,17,-1
 754 106 l 1,18,-1
 913 106 l 1,19,-1
 913 618 l 2,20,21
 913 813 913 813 865 885.5 c 128,-1,22
 817 958 817 958 696 958 c 0,23,24
 568 958 568 958 501 864.5 c 128,-1,25
 434 771 434 771 434 592 c 2,26,-1
 434 106 l 1,27,-1
 594 106 l 1,28,-1
 594 0 l 1,29,-1
 84 0 l 1,0,-1
EndSplineSet
Validated: 1
EndChar

StartChar: o
Encoding: 111 111 82
Width: 1233
GlyphClass: 2
Flags: W
AnchorPoint: "Anchor-2" 616 0 basechar 0
AnchorPoint: "Anchor-1" 616 1092 basechar 0
LayerCount: 2
Fore
SplineSet
616 70 m 0,0,1
 764 70 764 70 839.5 187 c 128,-1,2
 915 304 915 304 915 532 c 256,3,4
 915 760 915 760 839.5 876.5 c 128,-1,5
 764 993 764 993 616 993 c 256,6,7
 468 993 468 993 392.5 876.5 c 128,-1,8
 317 760 317 760 317 532 c 256,9,10
 317 304 317 304 393 187 c 128,-1,11
 469 70 469 70 616 70 c 0,0,1
616 -29 m 0,12,13
 384 -29 384 -29 243 124.5 c 128,-1,14
 102 278 102 278 102 532 c 256,15,16
 102 786 102 786 242.5 939 c 128,-1,17
 383 1092 383 1092 616 1092 c 256,18,19
 849 1092 849 1092 989.5 939 c 128,-1,20
 1130 786 1130 786 1130 532 c 256,21,22
 1130 278 1130 278 989.5 124.5 c 128,-1,23
 849 -29 849 -29 616 -29 c 0,12,13
EndSplineSet
Validated: 1
EndChar

StartChar: p
Encoding: 112 112 83
Width: 1311
GlyphClass: 2
Flags: W
AnchorPoint: "Anchor-2" 328 -430 basechar 0
AnchorPoint: "Anchor-1" 709 1092 basechar 0
LayerCount: 2
Fore
SplineSet
420 584 m 2,0,-1
 420 479 l 2,1,2
 420 287 420 287 493.5 186.5 c 128,-1,3
 567 86 567 86 707 86 c 0,4,5
 848 86 848 86 920.5 199 c 128,-1,6
 993 312 993 312 993 532 c 0,7,8
 993 753 993 753 920.5 865 c 128,-1,9
 848 977 848 977 707 977 c 0,10,11
 567 977 567 977 493.5 876 c 128,-1,12
 420 775 420 775 420 584 c 2,0,-1
236 956 m 1,13,-1
 59 956 l 1,14,-1
 59 1063 l 1,15,-1
 420 1063 l 1,16,-1
 420 897 l 1,17,18
 474 997 474 997 557.5 1044.5 c 128,-1,19
 641 1092 641 1092 764 1092 c 0,20,21
 960 1092 960 1092 1084 937 c 128,-1,22
 1208 782 1208 782 1208 532 c 256,23,24
 1208 282 1208 282 1084 126.5 c 128,-1,25
 960 -29 960 -29 764 -29 c 0,26,27
 641 -29 641 -29 557.5 18.5 c 128,-1,28
 474 66 474 66 420 166 c 1,29,-1
 420 -319 l 1,30,-1
 594 -319 l 1,31,-1
 594 -426 l 1,32,-1
 59 -426 l 1,33,-1
 59 -319 l 1,34,-1
 236 -319 l 1,35,-1
 236 956 l 1,13,-1
EndSplineSet
Validated: 1
EndChar

StartChar: q
Encoding: 113 113 84
Width: 1311
GlyphClass: 2
Flags: W
AnchorPoint: "Anchor-2" 983 -430 basechar 0
AnchorPoint: "Anchor-1" 569 1092 basechar 0
LayerCount: 2
Fore
SplineSet
1075 956 m 1,0,-1
 1075 -319 l 1,1,-1
 1251 -319 l 1,2,-1
 1251 -426 l 1,3,-1
 717 -426 l 1,4,-1
 717 -319 l 1,5,-1
 891 -319 l 1,6,-1
 891 166 l 1,7,8
 837 66 837 66 753.5 18.5 c 128,-1,9
 670 -29 670 -29 547 -29 c 0,10,11
 351 -29 351 -29 226.5 126.5 c 128,-1,12
 102 282 102 282 102 532 c 256,13,14
 102 782 102 782 226 937 c 128,-1,15
 350 1092 350 1092 547 1092 c 0,16,17
 670 1092 670 1092 753.5 1044.5 c 128,-1,18
 837 997 837 997 891 897 c 1,19,-1
 891 1063 l 1,20,-1
 1251 1063 l 1,21,-1
 1251 956 l 1,22,-1
 1075 956 l 1,0,-1
891 584 m 2,23,24
 891 775 891 775 817.5 876 c 128,-1,25
 744 977 744 977 604 977 c 0,26,27
 462 977 462 977 389.5 865 c 128,-1,28
 317 753 317 753 317 532 c 0,29,30
 317 312 317 312 389.5 199 c 128,-1,31
 462 86 462 86 604 86 c 0,32,33
 744 86 744 86 817.5 186.5 c 128,-1,34
 891 287 891 287 891 479 c 2,35,-1
 891 584 l 2,23,24
EndSplineSet
Validated: 1
EndChar

StartChar: r
Encoding: 114 114 85
Width: 979
GlyphClass: 2
Flags: W
AnchorPoint: "Anchor-2" 328 0 basechar 0
AnchorPoint: "Anchor-1" 552 1092 basechar 0
LayerCount: 2
Fore
SplineSet
979 1065 m 1,0,-1
 979 799 l 1,1,-1
 873 799 l 1,2,3
 868 878 868 878 829 917 c 128,-1,4
 790 956 790 956 715 956 c 0,5,6
 579 956 579 956 506.5 862 c 128,-1,7
 434 768 434 768 434 592 c 2,8,-1
 434 106 l 1,9,-1
 647 106 l 1,10,-1
 647 0 l 1,11,-1
 84 0 l 1,12,-1
 84 106 l 1,13,-1
 250 106 l 1,14,-1
 250 958 l 1,15,-1
 74 958 l 1,16,-1
 74 1063 l 1,17,-1
 434 1063 l 1,18,-1
 434 874 l 1,19,20
 488 985 488 985 573 1038.5 c 128,-1,21
 658 1092 658 1092 780 1092 c 0,22,23
 825 1092 825 1092 874.5 1085 c 128,-1,24
 924 1078 924 1078 979 1065 c 1,0,-1
EndSplineSet
Validated: 1
EndChar

StartChar: s
Encoding: 115 115 86
Width: 1051
GlyphClass: 2
Flags: W
AnchorPoint: "Anchor-2" 526 0 basechar 0
AnchorPoint: "Anchor-1" 526 1092 basechar 0
LayerCount: 2
Fore
SplineSet
115 59 m 1,0,-1
 115 307 l 1,1,-1
 221 307 l 1,2,3
 225 188 225 188 295.5 129 c 128,-1,4
 366 70 366 70 504 70 c 0,5,6
 628 70 628 70 693 116.5 c 128,-1,7
 758 163 758 163 758 252 c 0,8,9
 758 322 758 322 710.5 365 c 128,-1,10
 663 408 663 408 510 457 c 2,11,-1
 377 502 l 2,12,13
 240 546 240 546 178.5 612 c 128,-1,14
 117 678 117 678 117 780 c 0,15,16
 117 926 117 926 224 1009 c 128,-1,17
 331 1092 331 1092 520 1092 c 0,18,19
 604 1092 604 1092 697 1070 c 128,-1,20
 790 1048 790 1048 889 1006 c 1,21,-1
 889 774 l 1,22,-1
 783 774 l 1,23,24
 779 877 779 877 711 935 c 128,-1,25
 643 993 643 993 526 993 c 0,26,27
 410 993 410 993 350.5 952 c 128,-1,28
 291 911 291 911 291 829 c 0,29,30
 291 762 291 762 336 721.5 c 128,-1,31
 381 681 381 681 516 639 c 2,32,-1
 662 594 l 2,33,34
 813 547 813 547 879.5 476.5 c 128,-1,35
 946 406 946 406 946 295 c 0,36,37
 946 144 946 144 830.5 57.5 c 128,-1,38
 715 -29 715 -29 512 -29 c 0,39,40
 409 -29 409 -29 311 -7 c 128,-1,41
 213 15 213 15 115 59 c 1,0,-1
EndSplineSet
Validated: 1
EndChar

StartChar: t
Encoding: 116 116 87
Width: 823
GlyphClass: 2
Flags: W
AnchorPoint: "Anchor-2" 514 0 basechar 0
AnchorPoint: "Anchor-1" 313 1536 basechar 0
LayerCount: 2
Fore
SplineSet
221 956 m 1,0,-1
 59 956 l 1,1,-1
 59 1063 l 1,2,-1
 221 1063 l 1,3,-1
 221 1393 l 1,4,-1
 406 1393 l 1,5,-1
 406 1063 l 1,6,-1
 752 1063 l 1,7,-1
 752 956 l 1,8,-1
 406 956 l 1,9,-1
 406 281 l 2,10,11
 406 146 406 146 432 108 c 128,-1,12
 458 70 458 70 528 70 c 0,13,14
 600 70 600 70 633 112.5 c 128,-1,15
 666 155 666 155 668 250 c 1,16,-1
 807 250 l 1,17,18
 799 105 799 105 728 38 c 128,-1,19
 657 -29 657 -29 512 -29 c 0,20,21
 353 -29 353 -29 287 41.5 c 128,-1,22
 221 112 221 112 221 281 c 2,23,-1
 221 956 l 1,0,-1
EndSplineSet
Validated: 1
EndChar

StartChar: u
Encoding: 117 117 88
Width: 1319
GlyphClass: 2
Flags: W
AnchorPoint: "Anchor-2" 594 0 basechar 0
AnchorPoint: "Anchor-1" 584 1092 basechar 0
LayerCount: 2
Fore
SplineSet
725 1063 m 1,0,-1
 1069 1063 l 1,1,-1
 1069 106 l 1,2,-1
 1243 106 l 1,3,-1
 1243 0 l 1,4,-1
 885 0 l 1,5,-1
 885 188 l 1,6,7
 834 82 834 82 753 26.5 c 128,-1,8
 672 -29 672 -29 565 -29 c 0,9,10
 388 -29 388 -29 304.5 71.5 c 128,-1,11
 221 172 221 172 221 387 c 2,12,-1
 221 956 l 1,13,-1
 55 956 l 1,14,-1
 55 1063 l 1,15,-1
 406 1063 l 1,16,-1
 406 444 l 2,17,18
 406 250 406 250 453.5 178 c 128,-1,19
 501 106 501 106 623 106 c 0,20,21
 751 106 751 106 818 200 c 128,-1,22
 885 294 885 294 885 473 c 2,23,-1
 885 956 l 1,24,-1
 725 956 l 1,25,-1
 725 1063 l 1,0,-1
EndSplineSet
Validated: 1
EndChar

StartChar: v
Encoding: 118 118 89
Width: 1157
GlyphClass: 2
Flags: W
AnchorPoint: "Anchor-2" 578 0 basechar 0
AnchorPoint: "Anchor-1" 578 1092 basechar 0
LayerCount: 2
Fore
SplineSet
506 0 m 1,0,-1
 115 956 l 1,1,-1
 -6 956 l 1,2,-1
 -6 1063 l 1,3,-1
 483 1063 l 1,4,-1
 483 956 l 1,5,-1
 313 956 l 1,6,-1
 612 225 l 1,7,-1
 911 956 l 1,8,-1
 752 956 l 1,9,-1
 752 1063 l 1,10,-1
 1151 1063 l 1,11,-1
 1151 956 l 1,12,-1
 1032 956 l 1,13,-1
 641 0 l 1,14,-1
 506 0 l 1,0,-1
EndSplineSet
Validated: 1
EndChar

StartChar: w
Encoding: 119 119 90
Width: 1642
GlyphClass: 2
Flags: W
LayerCount: 2
Fore
SplineSet
563.096679688 76.8056640625 m 5,0,-1
 716.747070312 76.8056640625 l 6,1,2
 957.134765625 76.8056640625 957.134765625 76.8056640625 1085.58886719 195.100585938 c 132,-1,3
 1214.04394531 313.396484375 1214.04394531 313.396484375 1214.04394531 534.30859375 c 260,4,5
 1214.04394531 755.220703125 1214.04394531 755.220703125 1086.00195312 872.091796875 c 132,-1,6
 957.9609375 988.959960938 957.9609375 988.959960938 716.747070312 988.959960938 c 6,7,-1
 563.096679688 988.959960938 l 5,8,-1
 563.096679688 76.8056640625 l 5,0,-1
238.450195312 1.2685546875 m 5,9,-1
 238.450195312 76.8056640625 l 5,10,-1
 395.404296875 76.8056640625 l 5,11,-1
 395.404296875 988.959960938 l 5,12,-1
 238.450195312 988.959960938 l 5,13,-1
 238.450195312 1065.2109375 l 5,14,-1
 729.138671875 1065.2109375 l 6,15,16
 1048.00292969 1065.2109375 1048.00292969 1065.2109375 1226.02246094 924.825195312 c 132,-1,17
 1404.04199219 784.438476562 1404.04199219 784.438476562 1404.04199219 534.30859375 c 4,18,19
 1404.04199219 283.465820312 1404.04199219 283.465820312 1225.609375 142.3671875 c 132,-1,20
 1047.17773438 1.2685546875 1047.17773438 1.2685546875 729.138671875 1.2685546875 c 6,21,-1
 238.450195312 1.2685546875 l 5,9,-1
EndSplineSet
EndChar

StartChar: x
Encoding: 120 120 91
Width: 1133
GlyphClass: 2
Flags: W
LayerCount: 2
Fore
SplineSet
1055 1063 m 1,0,-1
 1055 774 l 1,1,-1
 950 774 l 1,2,-1
 950 940 l 1,3,-1
 661 940 l 1,4,-1
 661 106 l 1,5,-1
 827 106 l 1,6,-1
 827 0 l 1,7,-1
 311 0 l 1,8,-1
 311 106 l 1,9,-1
 477 106 l 1,10,-1
 477 940 l 1,11,-1
 188 940 l 1,12,-1
 188 774 l 1,13,-1
 83 774 l 1,14,-1
 83 1063 l 1,15,-1
 1055 1063 l 1,0,-1
EndSplineSet
EndChar

StartChar: y
Encoding: 121 121 92
Width: 1157
GlyphClass: 2
Flags: W
AnchorPoint: "Anchor-2" 572 -430 basechar 0
AnchorPoint: "Anchor-1" 572 1092 basechar 0
LayerCount: 2
Fore
SplineSet
442 -195 m 2,0,-1
 512 -18 l 1,1,-1
 115 956 l 1,2,-1
 -6 956 l 1,3,-1
 -6 1063 l 1,4,-1
 483 1063 l 1,5,-1
 483 956 l 1,6,-1
 313 956 l 1,7,-1
 612 225 l 1,8,-1
 911 956 l 1,9,-1
 752 956 l 1,10,-1
 752 1063 l 1,11,-1
 1151 1063 l 1,12,-1
 1151 956 l 1,13,-1
 1032 956 l 1,14,-1
 545 -240 l 2,15,16
 495 -364 495 -364 434 -409.5 c 128,-1,17
 373 -455 373 -455 262 -455 c 0,18,19
 215 -455 215 -455 165.5 -447 c 128,-1,20
 116 -439 116 -439 66 -424 c 1,21,-1
 66 -221 l 1,22,-1
 160 -221 l 1,23,24
 166 -289 166 -289 194.5 -318.5 c 128,-1,25
 223 -348 223 -348 283 -348 c 0,26,27
 338 -348 338 -348 371.5 -317.5 c 128,-1,28
 405 -287 405 -287 442 -195 c 2,0,-1
EndSplineSet
Validated: 1
EndChar

StartChar: braceleft
Encoding: 123 123 94
Width: 1303
GlyphClass: 2
Flags: W
LayerCount: 2
Fore
SplineSet
1047 -229 m 1,0,-1
 1047 -334 l 1,1,-1
 985 -334 l 2,2,3
 736 -334 736 -334 651.5 -260 c 128,-1,4
 567 -186 567 -186 567 35 c 2,5,-1
 567 293 l 2,6,7
 567 443 567 443 513 501 c 128,-1,8
 459 559 459 559 317 559 c 2,9,-1
 256 559 l 1,10,-1
 256 664 l 1,11,-1
 317 664 l 2,12,13
 459 664 459 664 513 722 c 128,-1,14
 567 780 567 780 567 930 c 2,15,-1
 567 1188 l 2,16,17
 567 1409 567 1409 651.5 1482.5 c 128,-1,18
 736 1556 736 1556 985 1556 c 2,19,-1
 1047 1556 l 1,20,-1
 1047 1452 l 1,21,-1
 979 1452 l 2,22,23
 838 1452 838 1452 795 1408 c 128,-1,24
 752 1364 752 1364 752 1223 c 2,25,-1
 752 936 l 2,26,27
 752 778 752 778 702 710 c 128,-1,28
 652 642 652 642 522 612 c 1,29,30
 654 578 654 578 703 511 c 128,-1,31
 752 444 752 444 752 287 c 2,32,-1
 752 0 l 2,33,34
 752 -141 752 -141 795 -185 c 128,-1,35
 838 -229 838 -229 979 -229 c 2,36,-1
 1047 -229 l 1,0,-1
EndSplineSet
Validated: 1
EndChar

StartChar: bar
Encoding: 124 124 95
Width: 690
GlyphClass: 2
Flags: W
LayerCount: 2
Fore
SplineSet
426 1565 m 1,0,-1
 426 -483 l 1,1,-1
 264 -483 l 1,2,-1
 264 1565 l 1,3,-1
 426 1565 l 1,0,-1
EndSplineSet
Validated: 1
EndChar

StartChar: braceright
Encoding: 125 125 96
Width: 1303
GlyphClass: 2
Flags: W
LayerCount: 2
Fore
SplineSet
256 -229 m 1,0,-1
 326 -229 l 2,1,2
 466 -229 466 -229 508.5 -185.5 c 128,-1,3
 551 -142 551 -142 551 0 c 2,4,-1
 551 287 l 2,5,6
 551 444 551 444 600 511 c 128,-1,7
 649 578 649 578 780 612 c 1,8,9
 650 642 650 642 600.5 710 c 128,-1,10
 551 778 551 778 551 936 c 2,11,-1
 551 1223 l 2,12,13
 551 1365 551 1365 508.5 1408.5 c 128,-1,14
 466 1452 466 1452 326 1452 c 2,15,-1
 256 1452 l 1,16,-1
 256 1556 l 1,17,-1
 319 1556 l 2,18,19
 568 1556 568 1556 651.5 1482.5 c 128,-1,20
 735 1409 735 1409 735 1188 c 2,21,-1
 735 930 l 2,22,23
 735 780 735 780 789 722 c 128,-1,24
 843 664 843 664 985 664 c 2,25,-1
 1047 664 l 1,26,-1
 1047 559 l 1,27,-1
 985 559 l 2,28,29
 843 559 843 559 789 501 c 128,-1,30
 735 443 735 443 735 293 c 2,31,-1
 735 35 l 2,32,33
 735 -186 735 -186 651.5 -260 c 128,-1,34
 568 -334 568 -334 319 -334 c 2,35,-1
 256 -334 l 1,36,-1
 256 -229 l 1,0,-1
EndSplineSet
Validated: 1
EndChar

StartChar: asciitilde
Encoding: 126 126 97
Width: 1716
GlyphClass: 2
Flags: W
LayerCount: 2
Fore
SplineSet
1499 807 m 1,0,-1
 1499 659 l 1,1,2
 1399 571 1399 571 1309 529 c 128,-1,3
 1219 487 1219 487 1126 487 c 0,4,5
 1030 487 1030 487 856 553 c 2,6,-1
 846 557 l 2,7,8
 835 561 835 561 813 570 c 0,9,10
 666 627 666 627 571 627 c 0,11,12
 479 627 479 627 392.5 590.5 c 128,-1,13
 306 554 306 554 217 477 c 1,14,-1
 217 629 l 1,15,16
 317 716 317 716 406.5 756.5 c 128,-1,17
 496 797 496 797 590 797 c 0,18,19
 686 797 686 797 860 731 c 2,20,-1
 870 727 l 2,21,22
 881 723 881 723 901 715 c 0,23,24
 1046 657 1046 657 1143 657 c 0,25,26
 1235 657 1235 657 1323 694 c 128,-1,27
 1411 731 1411 731 1499 807 c 1,0,-1
EndSplineSet
Validated: 1
EndChar

StartChar: exclamdown
Encoding: 161 161 99
Width: 1115
GlyphClass: 2
Flags: W
LayerCount: 2
Fore
SplineSet
420 106 m 1,0,-1
 647 106 l 2,1,2
 748 106 748 106 807 162 c 128,-1,3
 866 218 866 218 866 310 c 256,4,5
 866 402 866 402 806.5 457.5 c 128,-1,6
 747 513 747 513 647 513 c 2,7,-1
 420 513 l 1,8,-1
 420 106 l 1,0,-1
1029 308 m 0,9,10
 1029 0 1029 0 646 0 c 2,11,-1
 60 0 l 1,12,-1
 60 106 l 1,13,-1
 236 106 l 1,14,-1
 236 957 l 1,15,-1
 60 957 l 1,16,-1
 60 1063 l 1,17,-1
 586 1063 l 1,18,-1
 586 957 l 1,19,-1
 420 957 l 1,20,-1
 420 623 l 1,21,-1
 615 623 l 2,22,23
 1029 623 1029 623 1029 308 c 0,9,10
EndSplineSet
EndChar

StartChar: currency
Encoding: 164 164 102
Width: 1786
GlyphClass: 2
Flags: W
AnchorPoint: "Anchor-2" 893 0 basechar 0
AnchorPoint: "Anchor-1" 893 1465 basechar 0
LayerCount: 2
Fore
SplineSet
113 0 m 1,0,-1
 113 106 l 1,1,-1
 303 106 l 1,2,-1
 303 1386 l 1,3,-1
 113 1386 l 1,4,-1
 113 1493 l 1,5,-1
 696 1493 l 1,6,-1
 696 1386 l 1,7,-1
 506 1386 l 1,8,-1
 506 870 l 1,9,-1
 1280 870 l 1,10,-1
 1280 1386 l 1,11,-1
 1090 1386 l 1,12,-1
 1090 1493 l 1,13,-1
 1673 1493 l 1,14,-1
 1673 1386 l 1,15,-1
 1483 1386 l 1,16,-1
 1483 106 l 1,17,-1
 1673 106 l 1,18,-1
 1673 0 l 1,19,-1
 1090 0 l 1,20,-1
 1090 106 l 1,21,-1
 1280 106 l 1,22,-1
 1280 748 l 1,23,-1
 506 748 l 1,24,-1
 506 106 l 1,25,-1
 696 106 l 1,26,-1
 696 0 l 1,27,-1
 113 0 l 1,0,-1
EndSplineSet
EndChar

StartChar: yen
Encoding: 165 165 103
Width: 1112
GlyphClass: 2
Flags: W
LayerCount: 2
Fore
SplineSet
84 0 m 1,0,-1
 84 106 l 1,1,-1
 274 106 l 1,2,-1
 274 956 l 1,3,-1
 84 956 l 1,4,-1
 84 1063 l 1,5,-1
 667 1063 l 1,6,-1
 667 956 l 1,7,-1
 477 956 l 1,8,-1
 477 123 l 1,9,-1
 937 123 l 1,10,-1
 937 373 l 1,11,-1
 1060 373 l 1,12,-1
 1060 0 l 1,13,-1
 84 0 l 1,0,-1
EndSplineSet
EndChar

StartChar: brokenbar
Encoding: 166 166 104
Width: 1360
GlyphClass: 2
Flags: W
AnchorPoint: "Anchor-2" 760 0 basechar 0
AnchorPoint: "Anchor-1" 406 1465 basechar 0
LayerCount: 2
Fore
SplineSet
113 0 m 1,0,-1
 113 106 l 1,1,-1
 303 106 l 1,2,-1
 303 1386 l 1,3,-1
 113 1386 l 1,4,-1
 113 1493 l 1,5,-1
 696 1493 l 1,6,-1
 696 1386 l 1,7,-1
 506 1386 l 1,8,-1
 506 123 l 1,9,-1
 1188 123 l 1,10,-1
 1188 373 l 1,11,-1
 1311 373 l 1,12,-1
 1311 0 l 1,13,-1
 113 0 l 1,0,-1
EndSplineSet
EndChar

StartChar: section
Encoding: 167 167 105
Width: 1147
GlyphClass: 2
Flags: W
LayerCount: 2
Fore
SplineSet
1053 319 m 1,0,1
 1014 149 1014 149 903 60 c 0,2,3
 792 -29 792 -29 616 -29 c 0,4,5
 384 -29 384 -29 243 124.5 c 0,6,7
 102 278 102 278 102 532 c 0,8,9
 102 787 102 787 243 939.5 c 0,10,11
 384 1092 384 1092 616 1092 c 0,12,13
 717 1092 717 1092 817 1068.5 c 0,14,15
 917 1045 917 1045 1018 997 c 1,16,-1
 1018 725 l 1,17,-1
 911 725 l 1,18,19
 890 865 890 865 819.5 929 c 0,20,21
 749 993 749 993 618 993 c 0,22,23
 469 993 469 993 393 877.5 c 0,24,25
 317 762 317 762 317 532 c 256,26,27
 317 302 317 302 392.5 186 c 0,28,29
 468 70 468 70 618 70 c 0,30,31
 737 70 737 70 808 132 c 0,32,33
 879 194 879 194 905 319 c 1,34,-1
 1053 319 l 1,0,1
EndSplineSet
Refer: 544 729 N 1 0 0 1 104 0 2
EndChar

StartChar: dieresis
Encoding: 168 168 106
Width: 1147
GlyphClass: 2
Flags: W
AnchorPoint: "Anchor-1" 616 1092 basechar 0
LayerCount: 2
Fore
SplineSet
1053 319 m 1,0,1
 1014 149 1014 149 903 60 c 128,-1,2
 792 -29 792 -29 616 -29 c 0,3,4
 384 -29 384 -29 243 124 c 0,5,6
 102 278 102 278 102 532 c 0,7,8
 102 787 102 787 243 940 c 0,9,10
 384 1092 384 1092 616 1092 c 0,11,12
 717 1092 717 1092 817 1068 c 0,13,14
 866 1057 866 1057 916 1039 c 1,15,16
 933 1183 933 1183 1015 1255 c 0,17,18
 1075 1308 1075 1308 1199 1308 c 0,19,20
 1271 1308 1271 1308 1336 1292 c 0,21,22
 1402 1275 1402 1275 1464 1242 c 1,23,-1
 1464 1023 l 1,24,-1
 1369 1023 l 1,25,26
 1369 1119 1369 1119 1320 1164 c 1,27,28
 1277 1209 1277 1209 1195 1209 c 0,29,30
 1104 1209 1104 1209 1060 1148 c 0,31,32
 1018 1087 1018 1087 1018 957 c 2,33,-1
 1018 725 l 1,34,-1
 911 725 l 1,35,36
 890 865 890 865 820 929 c 0,37,38
 749 993 749 993 618 993 c 0,39,40
 469 993 469 993 393 878 c 0,41,42
 317 762 317 762 317 532 c 128,-1,43
 317 302 317 302 392 186 c 0,44,45
 468 70 468 70 618 70 c 0,46,47
 737 70 737 70 808 132 c 128,-1,48
 879 194 879 194 905 319 c 1,49,-1
 1053 319 l 1,0,1
EndSplineSet
EndChar

StartChar: copyright
Encoding: 169 169 107
Width: 1147
GlyphClass: 2
Flags: W
LayerCount: 2
Fore
SplineSet
1053 319 m 1,0,1
 1014 149 1014 149 903 60 c 128,-1,2
 792 -29 792 -29 616 -29 c 0,3,4
 384 -29 384 -29 243 124.5 c 128,-1,5
 102 278 102 278 102 532 c 0,6,7
 102 787 102 787 243 939.5 c 128,-1,8
 384 1092 384 1092 616 1092 c 0,9,10
 717 1092 717 1092 817 1068.5 c 128,-1,11
 917 1045 917 1045 1018 997 c 1,12,-1
 1018 725 l 1,13,-1
 911 725 l 1,14,15
 890 865 890 865 819.5 929 c 128,-1,16
 749 993 749 993 618 993 c 0,17,18
 469 993 469 993 393 877.5 c 128,-1,19
 317 762 317 762 317 532 c 256,20,21
 317 302 317 302 392.5 186 c 128,-1,22
 468 70 468 70 618 70 c 0,23,24
 737 70 737 70 808 132 c 128,-1,25
 879 194 879 194 905 319 c 1,26,-1
 1053 319 l 1,0,1
515 537 m 0,27,28
 515 593 515 593 553.5 631.5 c 128,-1,29
 592 670 592 670 649 670 c 0,30,31
 704 670 704 670 743 631 c 128,-1,32
 782 592 782 592 782 537 c 0,33,34
 782 481 782 481 743 442.5 c 128,-1,35
 704 404 704 404 649 404 c 0,36,37
 592 404 592 404 553.5 442 c 128,-1,38
 515 480 515 480 515 537 c 0,27,28
EndSplineSet
EndChar

StartChar: ordfeminine
Encoding: 170 170 108
Width: 1147
GlyphClass: 2
Flags: W
AnchorPoint: "Anchor-2" 616 10 basechar 0
AnchorPoint: "Anchor-1" 616 1092 basechar 0
LayerCount: 2
Fore
SplineSet
1053 319 m 1,0,1
 1014 149 1014 149 903 60 c 128,-1,2
 792 -29 792 -29 616 -29 c 0,3,4
 384 -29 384 -29 243 124.5 c 128,-1,5
 102 278 102 278 102 532 c 0,6,7
 102 787 102 787 243 939.5 c 128,-1,8
 384 1092 384 1092 616 1092 c 0,9,10
 717 1092 717 1092 817 1068.5 c 128,-1,11
 917 1045 917 1045 1018 997 c 1,12,-1
 1018 725 l 1,13,-1
 911 725 l 1,14,15
 890 865 890 865 819.5 929 c 128,-1,16
 749 993 749 993 618 993 c 0,17,18
 469 993 469 993 393 877.5 c 128,-1,19
 317 762 317 762 317 532 c 256,20,21
 317 302 317 302 392.5 186 c 128,-1,22
 468 70 468 70 618 70 c 0,23,24
 737 70 737 70 808 132 c 128,-1,25
 879 194 879 194 905 319 c 1,26,-1
 1053 319 l 1,0,1
EndSplineSet
EndChar

StartChar: guillemotleft
Encoding: 171 171 109
Width: 1716
GlyphClass: 2
Flags: W
LayerCount: 2
Fore
SplineSet
1434 1104 m 1,0,-1
 971 641 l 1,1,-1
 1434 180 l 1,2,-1
 1319 68 l 1,3,-1
 858 528 l 1,4,-1
 397 68 l 1,5,-1
 283 180 l 1,6,-1
 743 641 l 1,7,-1
 283 1104 l 1,8,-1
 397 1217 l 1,9,-1
 858 756 l 1,10,-1
 1319 1217 l 1,11,-1
 1434 1104 l 1,0,-1
EndSplineSet
EndChar

StartChar: logicalnot
Encoding: 172 172 110
Width: 1155
GlyphClass: 2
Flags: W
AnchorPoint: "Anchor-2" 578 0 basechar 0
AnchorPoint: "Anchor-1" 578 1092 basechar 0
LayerCount: 2
Fore
SplineSet
596 649 m 1,0,-1
 819 956 l 1,1,-1
 676 956 l 1,2,-1
 676 1063 l 1,3,-1
 1085 1063 l 1,4,-1
 1085 956 l 1,5,-1
 944 956 l 1,6,-1
 659 563 l 1,7,-1
 991 106 l 1,8,-1
 1130 106 l 1,9,-1
 1130 0 l 1,10,-1
 639 0 l 1,11,-1
 639 106 l 1,12,-1
 774 106 l 1,13,-1
 543 424 l 1,14,-1
 311 106 l 1,15,-1
 449 106 l 1,16,-1
 449 0 l 1,17,-1
 45 0 l 1,18,-1
 45 106 l 1,19,-1
 186 106 l 1,20,-1
 479 510 l 1,21,-1
 156 956 l 1,22,-1
 25 956 l 1,23,-1
 25 1063 l 1,24,-1
 500 1063 l 1,25,-1
 500 956 l 1,26,-1
 373 956 l 1,27,-1
 596 649 l 1,0,-1
EndSplineSet
EndChar

StartChar: sfthyphen
Encoding: 173 173 111
Width: 1133
GlyphClass: 2
Flags: W
LayerCount: 2
Fore
SplineSet
1055 1063 m 1,0,-1
 1055 774 l 1,1,-1
 950 774 l 1,2,-1
 950 940 l 1,3,-1
 661 940 l 1,4,-1
 661 106 l 1,5,-1
 827 106 l 1,6,-1
 827 0 l 1,7,-1
 311 0 l 1,8,-1
 311 106 l 1,9,-1
 477 106 l 1,10,-1
 477 940 l 1,11,-1
 188 940 l 1,12,-1
 188 774 l 1,13,-1
 83 774 l 1,14,-1
 83 1063 l 1,15,-1
 1055 1063 l 1,0,-1
EndSplineSet
EndChar

StartChar: registered
Encoding: 174 174 112
Width: 1366
GlyphClass: 2
Flags: W
AnchorPoint: "Anchor-2" 677 0 basechar 0
AnchorPoint: "Anchor-1" 677 1465 basechar 0
LayerCount: 2
Fore
SplineSet
391 0 m 1,0,-1
 391 106 l 1,1,-1
 582 106 l 1,2,-1
 582 1374 l 1,3,-1
 143 1374 l 1,4,-1
 143 1141 l 1,5,-1
 20 1141 l 1,6,-1
 20 1493 l 1,7,-1
 1346 1493 l 1,8,-1
 1346 1141 l 1,9,-1
 1223 1141 l 1,10,-1
 1223 1374 l 1,11,-1
 784 1374 l 1,12,-1
 784 106 l 1,13,-1
 975 106 l 1,14,-1
 975 0 l 1,15,-1
 391 0 l 1,0,-1
EndSplineSet
EndChar

StartChar: macron
Encoding: 175 175 113
Width: 1366
GlyphClass: 2
Flags: W
AnchorPoint: "Anchor-2" 677 0 basechar 0
AnchorPoint: "Anchor-1" 677 1465 basechar 0
LayerCount: 2
Fore
SplineSet
391 0 m 1,0,-1
 391 106 l 1,1,-1
 582 106 l 1,2,-1
 582 719 l 1,3,-1
 246 719 l 1,4,-1
 246 844 l 1,5,-1
 582 844 l 1,6,-1
 582 1374 l 1,7,-1
 143 1374 l 1,8,-1
 143 1141 l 1,9,-1
 20 1141 l 1,10,-1
 20 1493 l 1,11,-1
 1346 1493 l 1,12,-1
 1346 1141 l 1,13,-1
 1223 1141 l 1,14,-1
 1223 1374 l 1,15,-1
 784 1374 l 1,16,-1
 784 844 l 1,17,-1
 1120 844 l 1,18,-1
 1120 719 l 1,19,-1
 784 719 l 1,20,-1
 784 106 l 1,21,-1
 975 106 l 1,22,-1
 975 0 l 1,23,-1
 391 0 l 1,0,-1
EndSplineSet
EndChar

StartChar: degree
Encoding: 176 176 114
Width: 1366
GlyphClass: 2
Flags: W
AnchorPoint: "Anchor-1" 677 1465 basechar 0
LayerCount: 2
Fore
SplineSet
582 1493 m 2,0,-1
 1346 1493 l 1,1,-1
 1346 1141 l 1,2,-1
 1223 1141 l 1,3,-1
 1223 1374 l 1,4,-1
 784 1374 l 1,5,-1
 784 106 l 1,6,-1
 975 106 l 1,7,-1
 975 0 l 1,8,-1
 391 0 l 1,9,-1
 391 106 l 1,10,-1
 582 106 l 1,11,-1
 582 1374 l 1,12,13
 355 1374 355 1374 286 1285 c 0,14,15
 216 1194 216 1194 216 1008 c 1,16,-1
 87 1008 l 1,17,-1
 87 1364 l 1,18,19
 189 1440 189 1440 369 1476 c 1,20,21
 489 1493 489 1493 582 1493 c 2,0,-1
EndSplineSet
EndChar

StartChar: plusminus
Encoding: 177 177 115
Width: 1366
GlyphClass: 2
Flags: W
AnchorPoint: "Anchor-2" 677 0 basechar 0
AnchorPoint: "Anchor-1" 677 1465 basechar 0
LayerCount: 2
Fore
SplineSet
391 0 m 1,0,-1
 391 106 l 1,1,-1
 582 106 l 1,2,-1
 582 1374 l 1,3,-1
 222 1374 l 1,4,-1
 222 811 l 1,5,-1
 20 811 l 1,6,-1
 20 1493 l 1,7,-1
 1346 1493 l 1,8,-1
 1346 811 l 1,9,-1
 1144 811 l 1,10,-1
 1144 1374 l 1,11,-1
 784 1374 l 1,12,-1
 784 106 l 1,13,-1
 975 106 l 1,14,-1
 975 0 l 1,15,-1
 391 0 l 1,0,-1
EndSplineSet
EndChar

StartChar: twosuperior
Encoding: 178 178 116
Width: 1133
GlyphClass: 2
Flags: W
AnchorPoint: "Anchor-2" 569 0 basechar 0
AnchorPoint: "Anchor-1" 569 1092 basechar 0
LayerCount: 2
Fore
SplineSet
1055 1063 m 1,0,-1
 1055 554 l 1,1,-1
 871 554 l 1,2,-1
 871 940 l 1,3,-1
 661 940 l 1,4,-1
 661 106 l 1,5,-1
 827 106 l 1,6,-1
 827 0 l 1,7,-1
 311 0 l 1,8,-1
 311 106 l 1,9,-1
 477 106 l 1,10,-1
 477 940 l 1,11,-1
 267 940 l 1,12,-1
 267 554 l 1,13,-1
 83 554 l 1,14,-1
 83 1063 l 1,15,-1
 1055 1063 l 1,0,-1
EndSplineSet
EndChar

StartChar: threesuperior
Encoding: 179 179 117
Width: 1366
GlyphClass: 2
Flags: W
AnchorPoint: "Anchor-2" 677 0 basechar 0
AnchorPoint: "Anchor-1" 677 1465 basechar 0
LayerCount: 2
Fore
SplineSet
391 0 m 1,0,-1
 391 106 l 1,1,-1
 582 106 l 1,2,-1
 582 1374 l 1,3,-1
 143 1374 l 1,4,-1
 143 1141 l 1,5,-1
 20 1141 l 1,6,-1
 20 1493 l 1,7,-1
 1346 1493 l 1,8,-1
 1346 1141 l 1,9,-1
 1223 1141 l 1,10,-1
 1223 1374 l 1,11,-1
 784 1374 l 1,12,-1
 784 106 l 1,13,-1
 975 106 l 1,14,-1
 975 0 l 1,15,-1
 391 0 l 1,0,-1
EndSplineSet
EndChar

StartChar: onesuperior
Encoding: 185 185 122
Width: 979
GlyphClass: 2
Flags: W
AnchorPoint: "Anchor-2" 328 0 basechar 0
AnchorPoint: "Anchor-1" 552 1092 basechar 0
LayerCount: 2
Fore
SplineSet
979 1065 m 1,0,-1
 979 799 l 1,1,-1
 873 799 l 1,2,3
 868 878 868 878 829 917 c 128,-1,4
 790 956 790 956 715 956 c 0,5,6
 579 956 579 956 506.5 862 c 128,-1,7
 434 768 434 768 434 592 c 2,8,-1
 434 570 l 1,9,-1
 725 570 l 1,10,-1
 725 464 l 1,11,-1
 434 464 l 1,12,-1
 434 106 l 1,13,-1
 647 106 l 1,14,-1
 647 0 l 1,15,-1
 84 0 l 1,16,-1
 84 106 l 1,17,-1
 250 106 l 1,18,-1
 250 464 l 1,19,-1
 74 464 l 1,20,-1
 74 570 l 1,21,-1
 250 570 l 1,22,-1
 250 958 l 1,23,-1
 74 958 l 1,24,-1
 74 1063 l 1,25,-1
 434 1063 l 1,26,-1
 434 874 l 1,27,28
 488 985 488 985 573 1038.5 c 128,-1,29
 658 1092 658 1092 780 1092 c 0,30,31
 825 1092 825 1092 874.5 1085 c 128,-1,32
 924 1078 924 1078 979 1065 c 1,0,-1
EndSplineSet
EndChar

StartChar: onehalf
Encoding: 189 189 123
Width: 1403
GlyphClass: 2
Flags: W
AnchorPoint: "Anchor-2" 702 0 basechar 0
AnchorPoint: "Anchor-1" 702 1465 basechar 0
LayerCount: 2
Fore
SplineSet
190 72 m 1,0,-1
 190 412 l 1,1,-1
 305 411 l 1,2,3
 310 241 310 241 403.5 159.5 c 128,-1,4
 497 78 497 78 688 78 c 0,5,6
 866 78 866 78 959.5 148.5 c 128,-1,7
 1053 219 1053 219 1053 354 c 0,8,9
 1053 462 1053 462 996.5 520 c 128,-1,10
 940 578 940 578 758 633 c 2,11,-1
 561 692 l 2,12,13
 347 757 347 757 259.5 854 c 128,-1,14
 172 951 172 951 172 1120 c 0,15,16
 172 1310 172 1310 307 1415 c 128,-1,17
 442 1520 442 1520 686 1520 c 0,18,19
 790 1520 790 1520 914 1497.5 c 128,-1,20
 1038 1475 1038 1475 1178 1432 c 1,21,-1
 1178 1114 l 1,22,-1
 1065 1114 l 1,23,24
 1048 1272 1048 1272 959.5 1342.5 c 128,-1,25
 871 1413 871 1413 690 1413 c 0,26,27
 532 1413 532 1413 449.5 1348.5 c 128,-1,28
 367 1284 367 1284 367 1161 c 0,29,30
 367 1054 367 1054 429 993 c 128,-1,31
 491 932 491 932 692 872 c 2,32,-1
 877 817 l 2,33,34
 1080 756 1080 756 1166.5 661.5 c 128,-1,35
 1253 567 1253 567 1253 408 c 0,36,37
 1253 191 1253 191 1114 81 c 128,-1,38
 975 -29 975 -29 700 -29 c 0,39,40
 577 -29 577 -29 449.5 -4 c 128,-1,41
 322 21 322 21 190 72 c 1,0,-1
EndSplineSet
EndChar

StartChar: Acircumflex
Encoding: 194 194 128
Width: 1653
GlyphClass: 2
Flags: W
LayerCount: 2
Fore
SplineSet
514 106 m 1,0,-1
 702 106 l 2,1,2
 993 106 993 106 1149 272 c 0,3,4
 1305 438 1305 438 1305 748 c 256,5,6
 1305 1058 1305 1058 1149.5 1222 c 0,7,8
 994 1386 994 1386 702 1386 c 2,9,-1
 514 1386 l 1,10,-1
 514 844 l 1,11,-1
 850 844 l 1,12,-1
 850 719 l 1,13,-1
 514 719 l 1,14,-1
 514 106 l 1,0,-1
123 0 m 1,15,-1
 123 106 l 1,16,-1
 313 106 l 1,17,-1
 313 719 l 1,18,-1
 113 719 l 1,19,-1
 113 844 l 1,20,-1
 313 844 l 1,21,-1
 313 1386 l 1,22,-1
 123 1386 l 1,23,-1
 123 1493 l 1,24,-1
 717 1493 l 2,25,26
 1103 1493 1103 1493 1318.5 1296 c 0,27,28
 1534 1099 1534 1099 1534 748 c 0,29,30
 1534 396 1534 396 1318 198 c 0,31,32
 1102 0 1102 0 717 0 c 2,33,-1
 123 0 l 1,15,-1
EndSplineSet
EndChar

StartChar: Atilde
Encoding: 195 195 129
Width: 1378
GlyphClass: 2
Flags: W
AnchorPoint: "Anchor-2" 972 0 basechar 0
AnchorPoint: "Anchor-1" 635 1465 basechar 0
LayerCount: 2
Fore
SplineSet
872 760 m 1,0,-1
 872 1386 l 1,1,-1
 608 1386 l 2,2,3
 459 1386 459 1386 381 1306 c 128,-1,4
 303 1226 303 1226 303 1073 c 0,5,6
 303 921 303 921 381 840.5 c 128,-1,7
 459 760 459 760 608 760 c 2,8,-1
 872 760 l 1,0,-1
1265 0 m 1,9,-1
 641 0 l 1,10,-1
 641 106 l 1,11,-1
 872 106 l 1,12,-1
 872 653 l 1,13,-1
 559 653 l 2,14,15
 335 653 335 653 204 767 c 128,-1,16
 73 881 73 881 73 1073 c 0,17,18
 73 1266 73 1266 204 1379.5 c 128,-1,19
 335 1493 335 1493 559 1493 c 2,20,-1
 1265 1493 l 1,21,-1
 1265 1386 l 1,22,-1
 1075 1386 l 1,23,-1
 1075 106 l 1,24,-1
 1265 106 l 1,25,-1
 1265 0 l 1,9,-1
EndSplineSet
EndChar

StartChar: Adieresis
Encoding: 196 196 130
Width: 1053
GlyphClass: 2
Flags: W
AnchorPoint: "Anchor-2" 572 0 basechar 0
AnchorPoint: "Anchor-1" 572 1043 basechar 0
LayerCount: 2
Fore
SplineSet
1004 1063 m 1,0,-1
 1004 774 l 1,1,-1
 898 774 l 1,2,-1
 898 940 l 1,3,-1
 410 940 l 1,4,-1
 410 619 l 1,5,-1
 686 619 l 1,6,-1
 686 753 l 1,7,-1
 792 753 l 1,8,-1
 792 399 l 1,9,-1
 686 399 l 1,10,-1
 686 513 l 1,11,-1
 410 513 l 1,12,-1
 410 106 l 1,13,-1
 577 106 l 1,14,-1
 577 0 l 1,15,-1
 59 0 l 1,16,-1
 59 106 l 1,17,-1
 226 106 l 1,18,-1
 226 957 l 1,19,-1
 59 957 l 1,20,-1
 59 1063 l 1,21,-1
 1004 1063 l 1,0,-1
EndSplineSet
EndChar

StartChar: AE
Encoding: 198 198 132
Width: 541
GlyphClass: 2
Flags: W
LayerCount: 2
Fore
SplineSet
295 781 m 128,-1,1
 295 807 295 807 316 826 c 128,-1,2
 337 845 337 845 366 845 c 0,3,4
 394 845 394 845 415 826 c 128,-1,5
 436 807 436 807 436 781 c 128,-1,6
 436 755 436 755 416 736 c 0,7,8
 396 718 396 718 366 718 c 0,9,10
 337 718 337 718 316 736 c 0,11,0
 295 755 295 755 295 781 c 128,-1,1
323 536 m 1,12,-1
 215 536 l 1,13,-1
 215 596 l 1,14,-1
 437 596 l 1,15,-1
 437 -57 l 2,16,17
 437 -149 437 -149 377 -201 c 0,18,19
 316 -254 316 -254 210 -254 c 0,20,21
 166 -254 166 -254 125 -245 c 0,22,23
 84 -235 84 -235 46 -217 c 1,24,-1
 46 -94 l 1,25,-1
 105 -94 l 1,26,27
 109 -148 109 -148 135 -173 c 0,28,29
 162 -198 162 -198 213 -198 c 0,30,31
 269 -198 269 -198 296 -164 c 0,32,33
 323 -129 323 -129 323 -57 c 2,34,-1
 323 536 l 1,12,-1
EndSplineSet
EndChar

StartChar: Ccedilla
Encoding: 199 199 133
Width: 931
GlyphClass: 2
Flags: W
AnchorPoint: "Anchor-2" 466 668 basechar 0
AnchorPoint: "Anchor-1" 466 1488 basechar 0
LayerCount: 2
Fore
SplineSet
226 1444 m 1,0,-1
 503 802 l 1,1,-1
 781 1444 l 1,2,-1
 675 1444 l 1,3,-1
 675 1504 l 1,4,-1
 951 1504 l 1,5,-1
 951 1444 l 1,6,-1
 859 1444 l 1,7,-1
 524 668 l 1,8,-1
 415 668 l 1,9,-1
 81 1444 l 1,10,-1
 -13 1444 l 1,11,-1
 -13 1504 l 1,12,-1
 330 1504 l 1,13,-1
 330 1444 l 1,14,-1
 226 1444 l 1,0,-1
EndSplineSet
EndChar

StartChar: Egrave
Encoding: 200 200 134
Width: 1138
GlyphClass: 2
Flags: W
LayerCount: 2
Fore
SplineSet
907 640 m 1,0,-1
 907 825 l 1,1,-1
 1030 825 l 1,2,-1
 1030 329 l 1,3,-1
 907 329 l 1,4,-1
 907 516 l 1,5,-1
 420 516 l 1,6,-1
 420 106 l 1,7,-1
 586 106 l 1,8,-1
 586 0 l 1,9,-1
 70 0 l 1,10,-1
 70 106 l 1,11,-1
 236 106 l 1,12,-1
 236 957 l 1,13,-1
 70 957 l 1,14,-1
 70 1063 l 1,15,-1
 586 1063 l 1,16,-1
 586 957 l 1,17,-1
 420 957 l 1,18,-1
 420 640 l 1,19,-1
 907 640 l 1,0,-1
EndSplineSet
EndChar

StartChar: Eacute
Encoding: 201 201 135
Width: 1311
GlyphClass: 2
Flags: W
LayerCount: 2
Fore
SplineSet
891 479 m 1,0,-1
 650 479 l 1,1,-1
 650 586 l 1,2,-1
 891 586 l 1,3,4
 891 776 891 776 818 876 c 0,5,6
 744 977 744 977 604 977 c 0,7,8
 462 977 462 977 389.5 865 c 128,-1,9
 317 753 317 753 317 532 c 0,10,11
 317 312 317 312 389.5 199 c 128,-1,12
 462 86 462 86 604 86 c 0,13,14
 744 86 744 86 817.5 186.5 c 128,-1,15
 891 287 891 287 891 479 c 1,0,-1
1075 479 m 1,16,-1
 1075 23 l 2,17,18
 1075 -206 1075 -206 949 -330.5 c 128,-1,19
 823 -455 823 -455 590 -455 c 0,20,21
 485 -455 485 -455 389 -436 c 128,-1,22
 293 -417 293 -417 205 -379 c 1,23,-1
 205 -156 l 1,24,-1
 301 -156 l 1,25,26
 319 -260 319 -260 386 -308 c 128,-1,27
 453 -356 453 -356 578 -356 c 0,28,29
 740 -356 740 -356 815.5 -264.5 c 128,-1,30
 891 -173 891 -173 891 23 c 2,31,-1
 891 166 l 1,32,33
 837 66 837 66 753.5 18.5 c 128,-1,34
 670 -29 670 -29 547 -29 c 0,35,36
 351 -29 351 -29 226.5 126.5 c 128,-1,37
 102 282 102 282 102 532 c 128,-1,38
 102 782 102 782 226 937 c 128,-1,39
 350 1092 350 1092 547 1092 c 0,40,41
 670 1092 670 1092 753.5 1044.5 c 128,-1,42
 837 997 837 997 891 897 c 1,43,-1
 891 1063 l 1,44,-1
 1251 1063 l 1,45,-1
 1251 956 l 1,46,-1
 1075 956 l 1,47,-1
 1075 586 l 1,48,-1
 1251 586 l 1,49,-1
 1251 479 l 1,50,-1
 1075 479 l 1,16,-1
EndSplineSet
EndChar

StartChar: Igrave
Encoding: 204 204 138
Width: 1479
GlyphClass: 2
Flags: W
AnchorPoint: "Anchor-2" 657.393 -1.80091e+06 basechar 0
AnchorPoint: "Anchor-1" 657.393 -1.80091e+06 basechar 0
LayerCount: 2
Fore
SplineSet
487.869140625 416.0703125 m 5,0,-1
 877.061523438 416.0703125 l 5,1,-1
 682.465820312 959.817382812 l 5,2,-1
 487.869140625 416.0703125 l 5,0,-1
188.163085938 1.7529296875 m 5,3,-1
 188.163085938 82.931640625 l 5,4,-1
 281.200195312 82.931640625 l 5,5,-1
 659.028320312 1145.14941406 l 5,6,-1
 778.342773438 1145.14941406 l 5,7,-1
 1156.88183594 82.931640625 l 5,8,-1
 1261.28125 82.931640625 l 5,9,-1
 1261.28125 1.7529296875 l 5,10,-1
 875.640625 1.7529296875 l 5,11,-1
 875.640625 82.931640625 l 5,12,-1
 993.53515625 82.931640625 l 5,13,-1
 904.759765625 334.125976562 l 5,14,-1
 458.751953125 334.125976562 l 5,15,-1
 369.9765625 82.931640625 l 5,16,-1
 486.450195312 82.931640625 l 5,17,-1
 486.450195312 1.7529296875 l 5,18,-1
 188.163085938 1.7529296875 l 5,3,-1
EndSplineSet
EndChar

StartChar: Oacute
Encoding: 211 211 140
Width: 1479
GlyphClass: 2
Flags: W
LayerCount: 2
Fore
SplineSet
639 1063 m 1,0,-1
 1030 107 l 1,1,-1
 1151 107 l 1,2,-1
 1151 0 l 1,3,-1
 662 0 l 1,4,-1
 662 107 l 1,5,-1
 832 107 l 1,6,-1
 533 838 l 1,7,-1
 234 107 l 1,8,-1
 393 107 l 1,9,-1
 393 0 l 1,10,-1
 -6 0 l 1,11,-1
 -6 107 l 1,12,-1
 113 107 l 1,13,-1
 504 1063 l 1,14,-1
 639 1063 l 1,0,-1
EndSplineSet
EndChar

StartChar: Ocircumflex
Encoding: 212 212 141
Width: 1479
GlyphClass: 2
Flags: W
LayerCount: 2
Fore
SplineSet
703 1258 m 2,0,-1
 633 1081 l 1,1,-1
 1030 107 l 1,2,-1
 1151 107 l 1,3,-1
 1151 0 l 1,4,-1
 662 0 l 1,5,-1
 662 107 l 1,6,-1
 832 107 l 1,7,-1
 533 838 l 1,8,-1
 234 107 l 1,9,-1
 393 107 l 1,10,-1
 393 0 l 1,11,-1
 -6 0 l 1,12,-1
 -6 107 l 1,13,-1
 113 107 l 1,14,-1
 600 1303 l 2,15,16
 650 1427 650 1427 711 1472 c 0,17,18
 772 1518 772 1518 883 1518 c 0,19,20
 930 1518 930 1518 980 1510 c 0,21,22
 1029 1502 1029 1502 1079 1487 c 1,23,-1
 1079 1284 l 1,24,-1
 985 1284 l 1,25,26
 979 1352 979 1352 950 1382 c 0,27,28
 922 1411 922 1411 862 1411 c 0,29,30
 807 1411 807 1411 774 1380 c 0,31,32
 740 1350 740 1350 703 1258 c 2,0,-1
EndSplineSet
EndChar

StartChar: Otilde
Encoding: 213 213 142
Width: 1221
GlyphClass: 2
Flags: W
LayerCount: 2
Fore
SplineSet
84 0 m 1,0,-1
 84 106 l 1,1,-1
 274 106 l 1,2,-1
 274 956 l 1,3,-1
 84 956 l 1,4,-1
 84 1063 l 1,5,-1
 667 1063 l 1,6,-1
 667 956 l 1,7,-1
 477 956 l 1,8,-1
 477 123 l 1,9,-1
 937 123 l 1,10,-1
 937 373 l 1,11,-1
 1060 373 l 1,12,-1
 1060 0 l 1,13,-1
 84 0 l 1,0,-1
EndSplineSet
EndChar

StartChar: Odieresis
Encoding: 214 214 143
Width: 1157
GlyphClass: 2
Flags: W
LayerCount: 2
Fore
SplineSet
434 -104 m 0,0,1
 457 -246 457 -246 336 -362 c 0,2,3
 239 -455 239 -455 68 -455 c 0,4,5
 -4 -455 -4 -455 -70 -438 c 0,6,7
 -135 -422 -135 -422 -197 -389 c 1,8,-1
 -197 -170 l 1,9,-1
 -102 -170 l 1,10,11
 -95 -266 -95 -266 -52 -311 c 0,12,13
 -10 -356 -10 -356 72 -356 c 0,14,15
 161 -356 161 -356 206 -294 c 0,16,17
 266 -214 266 -214 249 -104 c 0,18,19
 143 546 143 546 48 1208 c 0,20,21
 27 1351 27 1351 146 1465 c 0,22,23
 243 1558 243 1558 414 1558 c 0,24,25
 486 1558 486 1558 552 1542 c 0,26,27
 617 1526 617 1526 679 1492 c 1,28,-1
 679 1274 l 1,29,-1
 584 1274 l 1,30,31
 577 1370 577 1370 534 1414 c 0,32,33
 492 1460 492 1460 410 1460 c 0,34,35
 319 1460 319 1460 276 1398 c 0,36,37
 217 1317 217 1317 233 1208 c 0,38,39
 327 545 327 545 434 -104 c 0,0,1
EndSplineSet
EndChar

StartChar: multiply
Encoding: 215 215 144
Width: 1319
GlyphClass: 2
Flags: W
AnchorPoint: "Anchor-2" 118 -430 basechar 0
AnchorPoint: "Anchor-1" 328 1092 basechar 0
LayerCount: 2
Fore
SplineSet
250 956 m 1,0,-1
 76 956 l 1,1,-1
 76 1063 l 1,2,-1
 434 1063 l 1,3,-1
 434 570 l 1,4,-1
 608 570 l 1,5,-1
 608 464 l 1,6,-1
 434 464 l 1,7,-1
 434 -104 l 2,8,9
 434 -268 434 -268 336.5 -361.5 c 128,-1,10
 239 -455 239 -455 68 -455 c 0,11,12
 -4 -455 -4 -455 -69.5 -438.5 c 128,-1,13
 -135 -422 -135 -422 -197 -389 c 1,14,-1
 -197 -170 l 1,15,-1
 -102 -170 l 1,16,17
 -95 -266 -95 -266 -52.5 -311 c 128,-1,18
 -10 -356 -10 -356 72 -356 c 0,19,20
 163 -356 163 -356 206.5 -294.5 c 128,-1,21
 250 -233 250 -233 250 -104 c 2,22,-1
 250 464 l 1,23,-1
 74 464 l 1,24,-1
 74 570 l 1,25,-1
 250 570 l 1,26,-1
 250 956 l 1,0,-1
EndSplineSet
EndChar

StartChar: Oslash
Encoding: 216 216 145
Width: 1716
GlyphClass: 2
Flags: W
LayerCount: 2
Fore
SplineSet
618 -33 m 1024,0,-1
629 57 m 1024,1,-1
911 725 m 1,2,3
 882 882 882 882 820 929 c 0,4,5
 738 993 738 993 618 993 c 0,6,7
 488 993 488 993 397 872 c 0,8,9
 308 753 308 753 308 512 c 0,10,11
 308 270 308 270 400 154 c 0,12,13
 479 54 479 54 717 54 c 0,14,15
 778 54 778 54 849 84 c 0,16,17
 902 106 902 106 914 114 c 1,18,-1
 912 400 l 1,19,-1
 715 400 l 1,20,-1
 715 477 l 1,21,-1
 1054 477 l 1,22,-1
 1054 75 l 1,23,24
 961 19 961 19 853 -9 c 0,25,26
 746 -37 746 -37 624 -37 c 0,27,28
 387 -37 387 -37 244 116 c 0,29,30
 102 269 102 269 102 523 c 0,31,32
 102 778 102 778 245 931 c 0,33,34
 388 1083 388 1083 629 1083 c 0,35,36
 713 1083 713 1083 814 1061 c 0,37,38
 910 1040 910 1040 1018 997 c 1,39,-1
 1018 725 l 1,40,-1
 911 725 l 1,2,3
EndSplineSet
EndChar

StartChar: Ugrave
Encoding: 217 217 146
Width: 1319
GlyphClass: 2
Flags: W
LayerCount: 2
Fore
SplineSet
547 1063 m 2,0,-1
 1251 1063 l 1,1,-1
 1251 956 l 1,2,-1
 1075 956 l 1,3,-1
 1075 23 l 2,4,5
 1075 -206 1075 -206 949 -330.5 c 128,-1,6
 823 -455 823 -455 590 -455 c 0,7,8
 485 -455 485 -455 389 -436 c 128,-1,9
 293 -417 293 -417 205 -379 c 1,10,-1
 205 -156 l 1,11,-1
 301 -156 l 1,12,13
 319 -260 319 -260 386 -308 c 128,-1,14
 453 -356 453 -356 578 -356 c 0,15,16
 740 -356 740 -356 815.5 -264.5 c 128,-1,17
 891 -173 891 -173 891 23 c 2,18,-1
 891 166 l 1,19,20
 837 66 837 66 753.5 18.5 c 128,-1,21
 670 -29 670 -29 547 -29 c 0,22,23
 351 -29 351 -29 226.5 126.5 c 128,-1,24
 102 282 102 282 102 532 c 0,25,26
 102 753 102 753 226 908 c 128,-1,27
 350 1063 350 1063 547 1063 c 2,0,-1
891 584 m 1,28,-1
 892 956 l 1,29,-1
 604 956 l 2,30,31
 462 956 462 956 389.5 844 c 128,-1,32
 317 732 317 732 317 532 c 0,33,34
 317 312 317 312 389.5 199 c 128,-1,35
 462 86 462 86 604 86 c 0,36,37
 744 86 744 86 817.5 186.5 c 128,-1,38
 891 287 891 287 891 479 c 2,39,-1
 891 584 l 1,28,-1
EndSplineSet
EndChar

StartChar: acircumflex
Encoding: 226 226 155
Width: 1479
GlyphClass: 2
Flags: W
LayerCount: 2
Fore
SplineSet
887 1626 m 256,0,1
 887 1689 887 1689 842.5 1733.5 c 128,-1,2
 798 1778 798 1778 735 1778 c 0,3,4
 671 1778 671 1778 627.5 1734.5 c 128,-1,5
 584 1691 584 1691 584 1626 c 0,6,7
 584 1563 584 1563 627.5 1519 c 128,-1,8
 671 1475 671 1475 735 1475 c 0,9,10
 798 1475 798 1475 842.5 1519 c 128,-1,11
 887 1563 887 1563 887 1626 c 256,0,1
410 541 m 1,12,-1
 956 541 l 1,13,-1
 684 1251 l 1,14,-1
 410 541 l 1,12,-1
-12 0 m 1,15,-1
 -12 106 l 1,16,-1
 119 106 l 1,17,-1
 608 1384 l 1,18,19
 536 1421 536 1421 498.5 1482 c 128,-1,20
 461 1543 461 1543 461 1626 c 0,21,22
 461 1740 461 1740 541 1820.5 c 128,-1,23
 621 1901 621 1901 735 1901 c 256,24,25
 849 1901 849 1901 929.5 1820.5 c 128,-1,26
 1010 1740 1010 1740 1010 1626 c 0,27,28
 1010 1546 1010 1546 971 1482.5 c 128,-1,29
 932 1419 932 1419 860 1384 c 1,30,-1
 1352 106 l 1,31,-1
 1499 106 l 1,32,-1
 1499 0 l 1,33,-1
 956 0 l 1,34,-1
 956 106 l 1,35,-1
 1122 106 l 1,36,-1
 997 434 l 1,37,-1
 369 434 l 1,38,-1
 244 106 l 1,39,-1
 408 106 l 1,40,-1
 408 0 l 1,41,-1
 -12 0 l 1,15,-1
EndSplineSet
EndChar

StartChar: atilde
Encoding: 227 227 156
Width: 1642
GlyphClass: 2
Flags: W
LayerCount: 2
Fore
SplineSet
506 106 m 1,0,-1
 692 106 l 2,1,2
 983 106 983 106 1138.5 272 c 128,-1,3
 1294 438 1294 438 1294 748 c 256,4,5
 1294 1058 1294 1058 1139 1222 c 128,-1,6
 984 1386 984 1386 692 1386 c 2,7,-1
 506 1386 l 1,8,-1
 506 106 l 1,0,-1
113 0 m 1,9,-1
 113 106 l 1,10,-1
 303 106 l 1,11,-1
 303 1386 l 1,12,-1
 113 1386 l 1,13,-1
 113 1493 l 1,14,-1
 707 1493 l 2,15,16
 1093 1493 1093 1493 1308.5 1296 c 128,-1,17
 1524 1099 1524 1099 1524 748 c 0,18,19
 1524 396 1524 396 1308 198 c 128,-1,20
 1092 0 1092 0 707 0 c 2,21,-1
 113 0 l 1,9,-1
EndSplineSet
EndChar

StartChar: adieresis
Encoding: 228 228 157
Width: 1753
GlyphClass: 2
Flags: W
AnchorPoint: "Anchor-2" 879 0 basechar 0
AnchorPoint: "Anchor-1" 879 1092 basechar 0
LayerCount: 2
Fore
SplineSet
983 1063 m 1,0,-1
 1255 233 l 1,1,-1
 1495 956 l 1,2,-1
 1341 956 l 1,3,-1
 1341 1063 l 1,4,-1
 1726 1063 l 1,5,-1
 1726 956 l 1,6,-1
 1608 956 l 1,7,-1
 1292 0 l 1,8,-1
 1139 0 l 1,9,-1
 877 795 l 1,10,-1
 614 0 l 1,11,-1
 467 0 l 1,12,-1
 152 956 l 1,13,-1
 33 956 l 1,14,-1
 33 1063 l 1,15,-1
 514 1063 l 1,16,-1
 514 956 l 1,17,-1
 342 956 l 1,18,-1
 580 233 l 1,19,-1
 854 1063 l 1,20,-1
 983 1063 l 1,0,-1
EndSplineSet
EndChar

StartChar: iacute
Encoding: 237 237 166
Width: 1147
GlyphClass: 2
Flags: W
LayerCount: 2
Fore
SplineSet
1053 319 m 1,0,1
 1014 149 1014 149 903 60 c 128,-1,2
 792 -29 792 -29 616 -29 c 0,3,4
 384 -29 384 -29 243 124.5 c 128,-1,5
 102 278 102 278 102 532 c 0,6,7
 102 787 102 787 243 939.5 c 128,-1,8
 384 1092 384 1092 616 1092 c 0,9,10
 717 1092 717 1092 817 1068.5 c 128,-1,11
 917 1045 917 1045 1018 997 c 1,12,-1
 1018 725 l 1,13,-1
 911 725 l 1,14,15
 890 865 890 865 819.5 929 c 128,-1,16
 749 993 749 993 618 993 c 0,17,18
 469 993 469 993 393 877.5 c 128,-1,19
 317 762 317 762 317 532 c 256,20,21
 317 302 317 302 392.5 186 c 128,-1,22
 468 70 468 70 618 70 c 0,23,24
 737 70 737 70 808 132 c 128,-1,25
 879 194 879 194 905 319 c 1,26,-1
 1053 319 l 1,0,1
745 1638 m 1,27,-1
 944 1638 l 1,28,-1
 604 1262 l 1,29,-1
 487 1262 l 1,30,-1
 745 1638 l 1,27,-1
EndSplineSet
EndChar

StartChar: idieresis
Encoding: 239 239 168
Width: 1147
GlyphClass: 2
Flags: W
LayerCount: 2
Fore
SplineSet
1053 319 m 1,0,1
 1014 149 1014 149 903 60 c 0,2,3
 792 -29 792 -29 616 -29 c 0,4,5
 384 -29 384 -29 243 124.5 c 0,6,7
 102 278 102 278 102 532 c 0,8,9
 102 787 102 787 243 939.5 c 0,10,11
 384 1092 384 1092 616 1092 c 0,12,13
 717 1092 717 1092 817 1068.5 c 0,14,15
 917 1045 917 1045 1018 997 c 1,16,-1
 1018 725 l 1,17,-1
 911 725 l 1,18,19
 890 865 890 865 819.5 929 c 0,20,21
 749 993 749 993 618 993 c 0,22,23
 469 993 469 993 393 877.5 c 0,24,25
 317 762 317 762 317 532 c 256,26,27
 317 302 317 302 392.5 186 c 0,28,29
 468 70 468 70 618 70 c 0,30,31
 737 70 737 70 808 132 c 0,32,33
 879 194 879 194 905 319 c 1,34,-1
 1053 319 l 1,0,1
EndSplineSet
Refer: 529 710 N 1 0 0 1 104 0 2
EndChar

StartChar: ntilde
Encoding: 241 241 170
Width: 1753
GlyphClass: 2
Flags: W
LayerCount: 2
Fore
SplineSet
1053 319 m 1,0,1
 1014 149 1014 149 903 60 c 0,2,3
 792 -29 792 -29 616 -29 c 0,4,5
 384 -29 384 -29 243 124.5 c 0,6,7
 102 278 102 278 102 532 c 0,8,9
 102 787 102 787 243 939.5 c 0,10,11
 384 1092 384 1092 616 1092 c 0,12,13
 717 1092 717 1092 817 1068.5 c 0,14,15
 917 1045 917 1045 1018 997 c 1,16,-1
 1018 725 l 1,17,-1
 911 725 l 1,18,19
 890 865 890 865 819.5 929 c 0,20,21
 749 993 749 993 618 993 c 0,22,23
 469 993 469 993 393 877.5 c 0,24,25
 317 762 317 762 317 532 c 256,26,27
 317 302 317 302 392.5 186 c 0,28,29
 468 70 468 70 618 70 c 0,30,31
 737 70 737 70 808 132 c 0,32,33
 879 194 879 194 905 319 c 1,34,-1
 1053 319 l 1,0,1
EndSplineSet
Refer: 544 729 N 1 0 0 1 104 0 2
EndChar

StartChar: oacute
Encoding: 243 243 172
Width: 1147
GlyphClass: 2
Flags: W
LayerCount: 2
Fore
SplineSet
1053 319 m 1,0,1
 1014 149 1014 149 903 60 c 0,2,3
 792 -29 792 -29 616 -29 c 0,4,5
 384 -29 384 -29 243 124.5 c 0,6,7
 102 278 102 278 102 532 c 0,8,9
 102 787 102 787 243 939.5 c 0,10,11
 384 1092 384 1092 616 1092 c 0,12,13
 717 1092 717 1092 817 1068.5 c 0,14,15
 917 1045 917 1045 1018 997 c 1,16,-1
 1018 725 l 1,17,-1
 911 725 l 1,18,19
 890 865 890 865 819.5 929 c 0,20,21
 749 993 749 993 618 993 c 0,22,23
 469 993 469 993 393 877.5 c 0,24,25
 317 762 317 762 317 532 c 256,26,27
 317 302 317 302 392.5 186 c 0,28,29
 468 70 468 70 618 70 c 0,30,31
 737 70 737 70 808 132 c 0,32,33
 879 194 879 194 905 319 c 1,34,-1
 1053 319 l 1,0,1
EndSplineSet
Refer: 530 711 N 1 0 0 1 94 0 2
EndChar

StartChar: odieresis
Encoding: 246 246 175
Width: 1073
GlyphClass: 2
Flags: W
LayerCount: 2
Fore
SplineSet
514 106 m 1,0,-1
 702 106 l 2,1,2
 993 106 993 106 1149 272 c 128,-1,3
 1305 438 1305 438 1305 748 c 256,4,5
 1305 1058 1305 1058 1149.5 1222 c 128,-1,6
 994 1386 994 1386 702 1386 c 2,7,-1
 514 1386 l 1,8,-1
 514 844 l 1,9,-1
 850 844 l 1,10,-1
 850 719 l 1,11,-1
 514 719 l 1,12,-1
 514 106 l 1,0,-1
123 0 m 1,13,-1
 123 106 l 1,14,-1
 313 106 l 1,15,-1
 313 719 l 1,16,-1
 113 719 l 1,17,-1
 113 844 l 1,18,-1
 313 844 l 1,19,-1
 313 1386 l 1,20,-1
 123 1386 l 1,21,-1
 123 1493 l 1,22,-1
 717 1493 l 2,23,24
 1103 1493 1103 1493 1318.5 1296 c 128,-1,25
 1534 1099 1534 1099 1534 748 c 0,26,27
 1534 396 1534 396 1318 198 c 128,-1,28
 1102 0 1102 0 717 0 c 2,29,-1
 123 0 l 1,13,-1
EndSplineSet
EndChar

StartChar: divide
Encoding: 247 247 176
Width: 1479
GlyphClass: 2
Flags: W
LayerCount: 2
Fore
SplineSet
1075 106 m 1,0,-1
 1251 106 l 1,1,-1
 1251 0 l 1,2,-1
 891 0 l 1,3,-1
 891 166 l 1,4,5
 837 66 837 66 753.5 18.5 c 128,-1,6
 670 -29 670 -29 547 -29 c 0,7,8
 351 -29 351 -29 226.5 126.5 c 128,-1,9
 102 282 102 282 102 532 c 256,10,11
 102 782 102 782 226 937 c 128,-1,12
 350 1092 350 1092 547 1092 c 0,13,14
 670 1092 670 1092 753.5 1044.5 c 128,-1,15
 837 997 837 997 891 897 c 1,16,-1
 891 1227 l 1,17,-1
 565 1227 l 1,18,-1
 565 1333 l 1,19,-1
 891 1333 l 1,20,-1
 891 1450 l 1,21,-1
 717 1450 l 1,22,-1
 717 1556 l 1,23,-1
 1075 1556 l 1,24,-1
 1075 1333 l 1,25,-1
 1251 1333 l 1,26,-1
 1251 1227 l 1,27,-1
 1075 1227 l 1,28,-1
 1075 106 l 1,0,-1
891 479 m 2,29,-1
 891 584 l 2,30,31
 891 775 891 775 817.5 876 c 128,-1,32
 744 977 744 977 604 977 c 0,33,34
 462 977 462 977 389.5 865 c 128,-1,35
 317 753 317 753 317 532 c 0,36,37
 317 312 317 312 389.5 199 c 128,-1,38
 462 86 462 86 604 86 c 0,39,40
 744 86 744 86 817.5 186.5 c 128,-1,41
 891 287 891 287 891 479 c 2,29,-1
EndSplineSet
EndChar

StartChar: oslash
Encoding: 248 248 177
Width: 1716
GlyphClass: 2
Flags: W
LayerCount: 2
Fore
SplineSet
415 1842 m 1,0,-1
 1013 1842 l 1,1,-1
 1013 1694 l 1,2,-1
 415 1694 l 1,3,-1
 415 1842 l 1,0,-1
EndSplineSet
Refer: 40 69 N 1 0 0 1 0 0 3
EndChar

StartChar: ugrave
Encoding: 249 249 178
Width: 1212
GlyphClass: 2
Flags: W
LayerCount: 2
Fore
SplineSet
307 1527 m 1,0,-1
 905 1527 l 1,1,-1
 905 1379 l 1,2,-1
 307 1379 l 1,3,-1
 307 1527 l 1,0,-1
EndSplineSet
Refer: 72 101 N 1 0 0 1 0 0 3
EndChar

StartChar: ccaron
Encoding: 269 269 197
Width: 1319
GlyphClass: 2
Flags: W
LayerCount: 2
Fore
SplineSet
84 0 m 1,0,-1
 84 106 l 1,1,-1
 250 106 l 1,2,-1
 250 1210 l 1,3,-1
 74 1210 l 1,4,-1
 74 1332 l 1,5,-1
 250 1332 l 1,6,-1
 250 1450 l 1,7,-1
 74 1450 l 1,8,-1
 74 1556 l 1,9,-1
 434 1556 l 1,10,-1
 434 1332 l 1,11,-1
 750 1332 l 1,12,-1
 750 1210 l 1,13,-1
 434 1210 l 1,14,-1
 434 874 l 1,15,16
 485 982 485 982 566.5 1037 c 128,-1,17
 648 1092 648 1092 756 1092 c 0,18,19
 932 1092 932 1092 1015 991 c 128,-1,20
 1098 890 1098 890 1098 676 c 2,21,-1
 1098 106 l 1,22,-1
 1262 106 l 1,23,-1
 1262 0 l 1,24,-1
 754 0 l 1,25,-1
 754 106 l 1,26,-1
 913 106 l 1,27,-1
 913 618 l 2,28,29
 913 813 913 813 865.5 884.5 c 128,-1,30
 818 956 818 956 696 956 c 0,31,32
 568 956 568 956 501 863 c 128,-1,33
 434 770 434 770 434 592 c 2,34,-1
 434 106 l 1,35,-1
 594 106 l 1,36,-1
 594 0 l 1,37,-1
 84 0 l 1,0,-1
EndSplineSet
EndChar

StartChar: Dcaron
Encoding: 270 270 198
Width: 1716
GlyphClass: 2
Flags: W
LayerCount: 2
Fore
SplineSet
217 926 m 1,0,-1
 989 926 l 1,1,-1
 1245 1245 l 1,2,-1
 1370 1143 l 1,3,-1
 1196 926 l 1,4,-1
 1499 926 l 1,5,-1
 1499 766 l 1,6,-1
 1059 766 l 1,7,-1
 864 518 l 1,8,-1
 1499 518 l 1,9,-1
 1499 358 l 1,10,-1
 725 358 l 1,11,-1
 467 39 l 1,12,-1
 342 141 l 1,13,-1
 516 358 l 1,14,-1
 217 358 l 1,15,-1
 217 518 l 1,16,-1
 655 518 l 1,17,-1
 850 766 l 1,18,-1
 217 766 l 1,19,-1
 217 926 l 1,0,-1
EndSplineSet
Refer: 1115 -1 N 1 0 0 1 916 373 2
EndChar

StartChar: Dcroat
Encoding: 272 272 200
Width: 1716
GlyphClass: 2
Flags: W
LayerCount: 2
Fore
SplineSet
217 926 m 1,0,-1
 989 926 l 1,1,-1
 1245 1245 l 1,2,-1
 1370 1143 l 1,3,-1
 1196 926 l 1,4,-1
 1499 926 l 1,5,-1
 1499 766 l 1,6,-1
 1059 766 l 1,7,-1
 864 518 l 1,8,-1
 1499 518 l 1,9,-1
 1499 358 l 1,10,-1
 725 358 l 1,11,-1
 467 39 l 1,12,-1
 342 141 l 1,13,-1
 516 358 l 1,14,-1
 217 358 l 1,15,-1
 217 518 l 1,16,-1
 655 518 l 1,17,-1
 850 766 l 1,18,-1
 217 766 l 1,19,-1
 217 926 l 1,0,-1
105 1842 m 1,20,-1
 703 1842 l 1,21,-1
 703 1694 l 1,22,-1
 105 1694 l 1,23,-1
 105 1842 l 1,20,-1
EndSplineSet
EndChar

StartChar: dcroat
Encoding: 273 273 201
Width: 1319
GlyphClass: 2
Flags: W
LayerCount: 2
Fore
SplineSet
-45 1526 m 1,0,-1
 553 1526 l 1,1,-1
 553 1378 l 1,2,-1
 -45 1378 l 1,3,-1
 -45 1526 l 1,0,-1
EndSplineSet
Refer: 231 305 N 1 0 0 1 0 0 3
EndChar

StartChar: Emacron
Encoding: 274 274 202
Width: 1716
GlyphClass: 2
Flags: W
LayerCount: 2
Fore
SplineSet
217 926 m 1,0,-1
 989 926 l 1,1,-1
 1245 1245 l 1,2,-1
 1370 1143 l 1,3,-1
 1196 926 l 1,4,-1
 1499 926 l 1,5,-1
 1499 766 l 1,6,-1
 1059 766 l 1,7,-1
 864 518 l 1,8,-1
 1499 518 l 1,9,-1
 1499 358 l 1,10,-1
 725 358 l 1,11,-1
 467 39 l 1,12,-1
 342 141 l 1,13,-1
 516 358 l 1,14,-1
 217 358 l 1,15,-1
 217 518 l 1,16,-1
 655 518 l 1,17,-1
 850 766 l 1,18,-1
 217 766 l 1,19,-1
 217 926 l 1,0,-1
EndSplineSet
Refer: 1120 -1 N 1 0 0 1 916 373 2
EndChar

StartChar: Ebreve
Encoding: 276 276 204
Width: 1716
GlyphClass: 2
Flags: W
LayerCount: 2
Fore
SplineSet
217 926 m 1,0,-1
 989 926 l 1,1,-1
 1245 1245 l 1,2,-1
 1370 1143 l 1,3,-1
 1196 926 l 1,4,-1
 1499 926 l 1,5,-1
 1499 766 l 1,6,-1
 1059 766 l 1,7,-1
 864 518 l 1,8,-1
 1499 518 l 1,9,-1
 1499 358 l 1,10,-1
 725 358 l 1,11,-1
 467 39 l 1,12,-1
 342 141 l 1,13,-1
 516 358 l 1,14,-1
 217 358 l 1,15,-1
 217 518 l 1,16,-1
 655 518 l 1,17,-1
 850 766 l 1,18,-1
 217 766 l 1,19,-1
 217 926 l 1,0,-1
EndSplineSet
Refer: 546 731 N 1 0 0 1 -49 0 2
EndChar

StartChar: Edotaccent
Encoding: 278 278 206
Width: 1716
GlyphClass: 2
Flags: W
LayerCount: 2
Fore
SplineSet
217 926 m 1,0,-1
 989 926 l 1,1,-1
 1245 1245 l 1,2,-1
 1370 1143 l 1,3,-1
 1196 926 l 1,4,-1
 1499 926 l 1,5,-1
 1499 766 l 1,6,-1
 1059 766 l 1,7,-1
 864 518 l 1,8,-1
 1499 518 l 1,9,-1
 1499 358 l 1,10,-1
 725 358 l 1,11,-1
 467 39 l 1,12,-1
 342 141 l 1,13,-1
 516 358 l 1,14,-1
 217 358 l 1,15,-1
 217 518 l 1,16,-1
 655 518 l 1,17,-1
 850 766 l 1,18,-1
 217 766 l 1,19,-1
 217 926 l 1,0,-1
EndSplineSet
Refer: 1121 -1 N 1 0 0 1 918 373 2
EndChar

StartChar: edotaccent
Encoding: 279 279 207
Width: 655
GlyphClass: 2
Flags: W
AnchorPoint: "Anchor-2" 328 0 basechar 0
AnchorPoint: "Anchor-1" 328 1092 basechar 0
LayerCount: 2
Fore
SplineSet
434 106 m 1,0,-1
 608 106 l 1,1,-1
 608 0 l 1,2,-1
 74 0 l 1,3,-1
 74 106 l 1,4,-1
 250 106 l 1,5,-1
 250 956 l 1,6,-1
 74 956 l 1,7,-1
 74 1063 l 1,8,-1
 434 1063 l 1,9,-1
 434 106 l 1,0,-1
EndSplineSet
EndChar

StartChar: ecaron
Encoding: 283 283 209
Width: 635
GlyphClass: 2
Flags: W
LayerCount: 2
Fore
SplineSet
250 956 m 1,0,-1
 76 956 l 1,1,-1
 76 1063 l 1,2,-1
 434 1063 l 1,3,-1
 434 -104 l 2,4,5
 434 -268 434 -268 336.5 -361.5 c 0,6,7
 239 -455 239 -455 68 -455 c 0,8,9
 -4 -455 -4 -455 -69.5 -438.5 c 0,10,11
 -135 -422 -135 -422 -197 -389 c 1,12,-1
 -197 -170 l 1,13,-1
 -102 -170 l 1,14,15
 -95 -266 -95 -266 -52.5 -311 c 0,16,17
 -10 -356 -10 -356 72 -356 c 0,18,19
 163 -356 163 -356 206.5 -294.5 c 0,20,21
 250 -233 250 -233 250 -104 c 2,22,-1
 250 956 l 1,0,-1
EndSplineSet
Refer: 529 710 N 1 0 0 1 -250 0 2
EndChar

StartChar: Gbreve
Encoding: 286 286 212
Width: 1241
GlyphClass: 2
Flags: W
LayerCount: 2
Fore
SplineSet
586 0 m 1,0,-1
 70 0 l 1,1,-1
 70 106 l 1,2,-1
 236 106 l 1,3,-1
 236 953 l 1,4,-1
 59 953 l 1,5,-1
 59 1060 l 1,6,-1
 420 1060 l 1,7,-1
 420 541 l 1,8,-1
 868 953 l 1,9,-1
 715 953 l 1,10,-1
 715 1060 l 1,11,-1
 1196 1060 l 1,12,-1
 1196 953 l 1,13,-1
 1014 953 l 1,14,-1
 698 662 l 1,15,-1
 1102 106 l 1,16,-1
 1255 106 l 1,17,-1
 1255 0 l 1,18,-1
 731 0 l 1,19,-1
 731 106 l 1,20,-1
 883 106 l 1,21,-1
 565 541 l 1,22,-1
 420 406 l 1,23,-1
 420 106 l 1,24,-1
 586 106 l 1,25,-1
 586 0 l 1,0,-1
EndSplineSet
EndChar

StartChar: hcircumflex
Encoding: 293 293 219
Width: 655
GlyphClass: 2
Flags: W
LayerCount: 2
Fore
SplineSet
998 845 m 0,0,1
 998 901 998 901 1036.5 939.5 c 0,2,3
 1075 978 1075 978 1132 978 c 0,4,5
 1187 978 1187 978 1226 939 c 0,6,7
 1265 900 1265 900 1265 845 c 0,8,9
 1265 789 1265 789 1226 750.5 c 0,10,11
 1187 712 1187 712 1132 712 c 0,12,13
 1075 712 1075 712 1036.5 750 c 0,14,15
 998 788 998 788 998 845 c 0,0,1
EndSplineSet
Refer: 47 76 N 1 0 0 1 0 0 3
EndChar

StartChar: Hbar
Encoding: 294 294 220
Width: 655
GlyphClass: 2
Flags: W
LayerCount: 2
Fore
SplineSet
570 836 m 0,0,1
 570 892 570 892 608.5 930.5 c 0,2,3
 647 969 647 969 704 969 c 0,4,5
 759 969 759 969 798 930 c 0,6,7
 837 891 837 891 837 836 c 0,8,9
 837 780 837 780 798 741.5 c 0,10,11
 759 703 759 703 704 703 c 0,12,13
 647 703 647 703 608.5 741 c 0,14,15
 570 779 570 779 570 836 c 0,0,1
EndSplineSet
Refer: 79 108 N 1 0 0 1 0 0 3
EndChar

StartChar: hbar
Encoding: 295 295 221
Width: 1370
GlyphClass: 2
Flags: W
LayerCount: 2
Fore
SplineSet
123 0 m 1,0,-1
 123 106 l 1,1,-1
 313 106 l 1,2,-1
 313 586 l 1,3,-1
 156 473 l 1,4,-1
 86 565 l 1,5,-1
 313 727 l 1,6,-1
 313 1386 l 1,7,-1
 123 1386 l 1,8,-1
 123 1493 l 1,9,-1
 705 1493 l 1,10,-1
 705 1386 l 1,11,-1
 514 1386 l 1,12,-1
 514 870 l 1,13,-1
 821 1096 l 1,14,-1
 891 1004 l 1,15,-1
 514 729 l 1,16,-1
 514 123 l 1,17,-1
 1198 123 l 1,18,-1
 1198 373 l 1,19,-1
 1321 373 l 1,20,-1
 1321 0 l 1,21,-1
 123 0 l 1,0,-1
EndSplineSet
EndChar

StartChar: Itilde
Encoding: 296 296 222
Width: 664
GlyphClass: 2
Flags: W
LayerCount: 2
Fore
SplineSet
428 106 m 1,0,-1
 604 106 l 1,1,-1
 604 0 l 1,2,-1
 70 0 l 1,3,-1
 70 106 l 1,4,-1
 244 106 l 1,5,-1
 244 680 l 1,6,-1
 106 584 l 1,7,-1
 45 670 l 1,8,-1
 244 811 l 1,9,-1
 244 1450 l 1,10,-1
 70 1450 l 1,11,-1
 70 1556 l 1,12,-1
 428 1556 l 1,13,-1
 428 940 l 1,14,-1
 575 1038 l 1,15,-1
 635 952 l 1,16,-1
 428 811 l 1,17,-1
 428 106 l 1,0,-1
EndSplineSet
EndChar

StartChar: Imacron
Encoding: 298 298 224
Width: 1319
GlyphClass: 2
Flags: W
LayerCount: 2
Fore
SplineSet
726 1590 m 1,0,-1
 925 1590 l 1,1,-1
 585 1214 l 1,2,-1
 468 1214 l 1,3,-1
 726 1590 l 1,0,-1
EndSplineSet
Refer: 81 110 N 1 0 0 1 0 0 3
EndChar

StartChar: Idotaccent
Encoding: 304 304 230
Width: 1726
GlyphClass: 2
Flags: W
LayerCount: 2
Fore
SplineSet
96 0 m 1,0,-1
 96 107 l 1,1,-1
 287 107 l 1,2,-1
 287 1386 l 1,3,-1
 111 1386 l 1,4,-1
 111 1493 l 1,5,-1
 490 1493 l 1,6,-1
 490 1292 l 1,7,8
 564 1406 564 1406 681 1464 c 128,-1,9
 798 1522 798 1522 953 1522 c 0,10,11
 1206 1522 1206 1522 1325 1376.5 c 128,-1,12
 1444 1231 1444 1231 1444 922 c 2,13,-1
 1444 41 l 2,14,15
 1444 -206 1444 -206 1345 -316 c 128,-1,16
 1246 -426 1246 -426 1026 -426 c 0,17,18
 955 -426 955 -426 881.5 -409 c 128,-1,19
 808 -392 808 -392 735 -358 c 1,20,-1
 735 -123 l 1,21,-1
 847 -123 l 1,22,23
 847 -222 847 -222 892.5 -270.5 c 128,-1,24
 938 -319 938 -319 1026 -319 c 0,25,26
 1143 -319 1143 -319 1192 -244 c 0,27,28
 1239 -171 1239 -171 1239 49 c 2,29,-1
 1239 881 l 2,30,31
 1239 1173 1239 1173 1164 1282 c 128,-1,32
 1089 1391 1089 1391 899 1391 c 0,33,34
 699 1391 699 1391 594.5 1262.5 c 128,-1,35
 490 1134 490 1134 490 887 c 2,36,-1
 490 107 l 1,37,-1
 680 107 l 1,38,-1
 680 0 l 1,39,-1
 96 0 l 1,0,-1
EndSplineSet
EndChar

StartChar: dotlessi
Encoding: 305 305 231
Width: 1319
GlyphClass: 2
Flags: W
AnchorPoint: "Anchor-1" 594 1092 basechar 0
LayerCount: 2
Fore
SplineSet
84 0 m 1,0,-1
 84 106 l 1,1,-1
 250 106 l 1,2,-1
 250 956 l 1,3,-1
 74 956 l 1,4,-1
 74 1063 l 1,5,-1
 434 1063 l 1,6,-1
 434 874 l 1,7,8
 485 982 485 982 566.5 1037 c 128,-1,9
 648 1092 648 1092 756 1092 c 0,10,11
 930 1092 930 1092 1015 991 c 0,12,13
 1098 892 1098 892 1098 676 c 2,14,-1
 1098 -104 l 2,15,16
 1098 -268 1098 -268 1000.5 -361.5 c 128,-1,17
 903 -455 903 -455 732 -455 c 0,18,19
 660 -455 660 -455 594.5 -438.5 c 128,-1,20
 529 -422 529 -422 467 -389 c 1,21,-1
 467 -170 l 1,22,-1
 562 -170 l 1,23,24
 569 -266 569 -266 611.5 -311 c 128,-1,25
 654 -356 654 -356 736 -356 c 0,26,27
 827 -356 827 -356 870 -294 c 0,28,29
 913 -234 913 -234 913 -104 c 2,30,-1
 913 618 l 2,31,32
 913 813 913 813 865 885.5 c 128,-1,33
 817 958 817 958 696 958 c 0,34,35
 568 958 568 958 501 864.5 c 128,-1,36
 434 771 434 771 434 592 c 2,37,-1
 434 106 l 1,38,-1
 594 106 l 1,39,-1
 594 0 l 1,40,-1
 84 0 l 1,0,-1
EndSplineSet
EndChar

StartChar: IJ
Encoding: 306 306 232
Width: 1716
GlyphClass: 2
Flags: W
LayerCount: 2
Fore
SplineSet
541 1842 m 1,0,-1
 1139 1842 l 1,1,-1
 1139 1694 l 1,2,-1
 541 1694 l 1,3,-1
 541 1842 l 1,0,-1
EndSplineSet
Refer: 50 79 N 1 0 0 1 0 0 3
EndChar

StartChar: ij
Encoding: 307 307 233
Width: 1233
GlyphClass: 2
Flags: W
LayerCount: 2
Fore
SplineSet
317 1526 m 1,0,-1
 915 1526 l 1,1,-1
 915 1378 l 1,2,-1
 317 1378 l 1,3,-1
 317 1526 l 1,0,-1
EndSplineSet
Refer: 82 111 N 1 0 0 1 0 0 3
EndChar

StartChar: kgreenlandic
Encoding: 312 312 238
Width: 2329
GlyphClass: 2
Flags: W
AnchorPoint: "Anchor-2" 1243 -6 basechar 0
AnchorPoint: "Anchor-1" 1243 1459 basechar 0
LayerCount: 2
Fore
SplineSet
1137 106 m 1,0,-1
 1137 1386 l 1,1,-1
 950 1386 l 2,2,3
 658 1386 658 1386 503 1222 c 128,-1,4
 348 1058 348 1058 348 750 c 0,5,6
 348 439 348 439 503.5 272.5 c 128,-1,7
 659 106 659 106 950 106 c 2,8,-1
 1137 106 l 1,0,-1
2165 0 m 1,9,-1
 936 0 l 2,10,11
 551 0 551 0 335 198 c 128,-1,12
 119 396 119 396 119 750 c 0,13,14
 119 1101 119 1101 334.5 1297 c 128,-1,15
 550 1493 550 1493 936 1493 c 2,16,-1
 2148 1493 l 1,17,-1
 2148 1161 l 1,18,-1
 2025 1161 l 1,19,-1
 2025 1370 l 1,20,-1
 1339 1370 l 1,21,-1
 1339 870 l 1,22,-1
 1831 870 l 1,23,-1
 1831 1057 l 1,24,-1
 1952 1057 l 1,25,-1
 1952 561 l 1,26,-1
 1831 561 l 1,27,-1
 1831 748 l 1,28,-1
 1339 748 l 1,29,-1
 1339 123 l 1,30,-1
 2042 123 l 1,31,-1
 2042 332 l 1,32,-1
 2165 332 l 1,33,-1
 2165 0 l 1,9,-1
EndSplineSet
EndChar

StartChar: Lacute
Encoding: 313 313 239
Width: 2048
GlyphClass: 2
Flags: W
AnchorPoint: "Anchor-2" 1026 0 basechar 0
AnchorPoint: "Anchor-1" 1026 1092 basechar 0
LayerCount: 2
Fore
SplineSet
616 70 m 0,0,1
 764 70 764 70 839.5 187 c 128,-1,2
 915 304 915 304 915 532 c 256,3,4
 915 760 915 760 839.5 876.5 c 128,-1,5
 764 993 764 993 616 993 c 256,6,7
 468 993 468 993 392.5 876.5 c 128,-1,8
 317 760 317 760 317 532 c 256,9,10
 317 304 317 304 393 187 c 128,-1,11
 469 70 469 70 616 70 c 0,0,1
1923 512 m 1,12,-1
 1130 512 l 1,13,-1
 1130 504 l 2,14,15
 1130 289 1130 289 1211 179.5 c 128,-1,16
 1292 70 1292 70 1450 70 c 0,17,18
 1571 70 1571 70 1648.5 133.5 c 128,-1,19
 1726 197 1726 197 1757 322 c 1,20,-1
 1905 322 l 1,21,22
 1861 147 1861 147 1742.5 59 c 128,-1,23
 1624 -29 1624 -29 1432 -29 c 0,24,25
 1302 -29 1302 -29 1198.5 20 c 128,-1,26
 1095 69 1095 69 1022 166 c 1,27,28
 953 70 953 70 849.5 20.5 c 128,-1,29
 746 -29 746 -29 616 -29 c 0,30,31
 384 -29 384 -29 243 124.5 c 128,-1,32
 102 278 102 278 102 532 c 256,33,34
 102 786 102 786 242.5 939 c 128,-1,35
 383 1092 383 1092 616 1092 c 0,36,37
 748 1092 748 1092 851 1042.5 c 128,-1,38
 954 993 954 993 1024 897 c 1,39,40
 1097 993 1097 993 1197 1042.5 c 128,-1,41
 1297 1092 1297 1092 1419 1092 c 0,42,43
 1661 1092 1661 1092 1789.5 943.5 c 128,-1,44
 1918 795 1918 795 1923 512 c 1,12,-1
1706 618 m 1,45,46
 1700 804 1700 804 1627.5 898.5 c 128,-1,47
 1555 993 1555 993 1419 993 c 0,48,49
 1292 993 1292 993 1219 898 c 128,-1,50
 1146 803 1146 803 1130 618 c 1,51,-1
 1706 618 l 1,45,46
EndSplineSet
EndChar

StartChar: Lcommaaccent
Encoding: 315 315 241
Width: 979
GlyphClass: 2
Flags: W
LayerCount: 2
Fore
SplineSet
726 1590 m 1,0,-1
 925 1590 l 1,1,-1
 585 1214 l 1,2,-1
 468 1214 l 1,3,-1
 726 1590 l 1,0,-1
EndSplineSet
Refer: 85 114 N 1 0 0 1 0 0 3
EndChar

StartChar: ldot
Encoding: 320 320 246
Width: 1403
GlyphClass: 2
Flags: W
LayerCount: 2
Fore
SplineSet
190 72 m 1,0,-1
 190 412 l 1,1,-1
 305 411 l 1,2,3
 310 241 310 241 403.5 159.5 c 0,4,5
 497 78 497 78 688 78 c 0,6,7
 866 78 866 78 959.5 148.5 c 0,8,9
 1053 219 1053 219 1053 354 c 0,10,11
 1053 462 1053 462 996.5 520 c 0,12,13
 940 578 940 578 758 633 c 2,14,-1
 561 692 l 2,15,16
 347 757 347 757 259.5 854 c 0,17,18
 172 951 172 951 172 1120 c 0,19,20
 172 1310 172 1310 307 1415 c 0,21,22
 442 1520 442 1520 686 1520 c 0,23,24
 790 1520 790 1520 914 1497.5 c 0,25,26
 1038 1475 1038 1475 1178 1432 c 1,27,-1
 1178 1114 l 1,28,-1
 1065 1114 l 1,29,30
 1048 1272 1048 1272 959.5 1342.5 c 0,31,32
 871 1413 871 1413 690 1413 c 0,33,34
 532 1413 532 1413 449.5 1348.5 c 0,35,36
 367 1284 367 1284 367 1161 c 0,37,38
 367 1054 367 1054 429 993 c 0,39,40
 491 932 491 932 692 872 c 2,41,-1
 877 817 l 2,42,43
 1080 756 1080 756 1166.5 661.5 c 0,44,45
 1253 567 1253 567 1253 408 c 0,46,47
 1253 191 1253 191 1114 81 c 0,48,49
 975 -29 975 -29 700 -29 c 0,50,51
 577 -29 577 -29 449.5 -4 c 0,52,53
 322 21 322 21 190 72 c 1,0,-1
EndSplineSet
Refer: 1114 -1 N 1 0 0 1 1281 374 2
EndChar

StartChar: Lslash
Encoding: 321 321 247
Width: 1051
GlyphClass: 2
Flags: W
LayerCount: 2
Fore
SplineSet
726 1590 m 1,0,-1
 925 1590 l 1,1,-1
 585 1214 l 1,2,-1
 468 1214 l 1,3,-1
 726 1590 l 1,0,-1
EndSplineSet
Refer: 86 115 N 1 0 0 1 0 0 3
EndChar

StartChar: lslash
Encoding: 322 322 248
Width: 1403
GlyphClass: 2
Flags: W
LayerCount: 2
Fore
SplineSet
190 72 m 1,0,-1
 190 412 l 1,1,-1
 305 411 l 1,2,3
 310 241 310 241 403.5 159.5 c 0,4,5
 497 78 497 78 688 78 c 0,6,7
 866 78 866 78 959.5 148.5 c 0,8,9
 1053 219 1053 219 1053 354 c 0,10,11
 1053 462 1053 462 996.5 520 c 0,12,13
 940 578 940 578 758 633 c 2,14,-1
 561 692 l 2,15,16
 347 757 347 757 259.5 854 c 0,17,18
 172 951 172 951 172 1120 c 0,19,20
 172 1310 172 1310 307 1415 c 0,21,22
 442 1520 442 1520 686 1520 c 0,23,24
 790 1520 790 1520 914 1497.5 c 0,25,26
 1038 1475 1038 1475 1178 1432 c 1,27,-1
 1178 1114 l 1,28,-1
 1065 1114 l 1,29,30
 1048 1272 1048 1272 959.5 1342.5 c 0,31,32
 871 1413 871 1413 690 1413 c 0,33,34
 532 1413 532 1413 449.5 1348.5 c 0,35,36
 367 1284 367 1284 367 1161 c 0,37,38
 367 1054 367 1054 429 993 c 0,39,40
 491 932 491 932 692 872 c 2,41,-1
 877 817 l 2,42,43
 1080 756 1080 756 1166.5 661.5 c 0,44,45
 1253 567 1253 567 1253 408 c 0,46,47
 1253 191 1253 191 1114 81 c 0,48,49
 975 -29 975 -29 700 -29 c 0,50,51
 577 -29 577 -29 449.5 -4 c 0,52,53
 322 21 322 21 190 72 c 1,0,-1
EndSplineSet
Refer: 1117 -1 N 1 0 0 1 1214 373 2
EndChar

StartChar: ncommaaccent
Encoding: 326 326 252
Width: 1403
GlyphClass: 2
Flags: W
LayerCount: 2
Fore
SplineSet
190 72 m 1,0,-1
 190 412 l 1,1,-1
 305 411 l 1,2,3
 310 241 310 241 403.5 159.5 c 0,4,5
 497 78 497 78 688 78 c 0,6,7
 866 78 866 78 959.5 148.5 c 0,8,9
 1053 219 1053 219 1053 354 c 0,10,11
 1053 462 1053 462 996.5 520 c 0,12,13
 940 578 940 578 758 633 c 2,14,-1
 561 692 l 2,15,16
 347 757 347 757 259.5 854 c 0,17,18
 172 951 172 951 172 1120 c 0,19,20
 172 1310 172 1310 307 1415 c 0,21,22
 442 1520 442 1520 686 1520 c 0,23,24
 790 1520 790 1520 914 1497.5 c 0,25,26
 1038 1475 1038 1475 1178 1432 c 1,27,-1
 1178 1114 l 1,28,-1
 1065 1114 l 1,29,30
 1048 1272 1048 1272 959.5 1342.5 c 0,31,32
 871 1413 871 1413 690 1413 c 0,33,34
 532 1413 532 1413 449.5 1348.5 c 0,35,36
 367 1284 367 1284 367 1161 c 0,37,38
 367 1054 367 1054 429 993 c 0,39,40
 491 932 491 932 692 872 c 2,41,-1
 877 817 l 2,42,43
 1080 756 1080 756 1166.5 661.5 c 0,44,45
 1253 567 1253 567 1253 408 c 0,46,47
 1253 191 1253 191 1114 81 c 0,48,49
 975 -29 975 -29 700 -29 c 0,50,51
 577 -29 577 -29 449.5 -4 c 0,52,53
 322 21 322 21 190 72 c 1,0,-1
EndSplineSet
Refer: 1118 -1 N 1 0 0 1 1214 373 2
EndChar

StartChar: Omacron
Encoding: 332 332 258
Width: 1366
GlyphClass: 2
Flags: W
AnchorPoint: "Anchor-2" 677 0 basechar 0
AnchorPoint: "Anchor-1" 677 1465 basechar 0
LayerCount: 2
Fore
SplineSet
391 0 m 1,0,-1
 391 106 l 1,1,-1
 582 106 l 1,2,-1
 582 719 l 1,3,-1
 246 719 l 1,4,-1
 246 844 l 1,5,-1
 582 844 l 1,6,-1
 582 1374 l 1,7,-1
 143 1374 l 1,8,-1
 143 1141 l 1,9,-1
 20 1141 l 1,10,-1
 20 1493 l 1,11,-1
 1346 1493 l 1,12,-1
 1346 1141 l 1,13,-1
 1223 1141 l 1,14,-1
 1223 1374 l 1,15,-1
 784 1374 l 1,16,-1
 784 844 l 1,17,-1
 1120 844 l 1,18,-1
 1120 719 l 1,19,-1
 784 719 l 1,20,-1
 784 106 l 1,21,-1
 975 106 l 1,22,-1
 975 0 l 1,23,-1
 391 0 l 1,0,-1
EndSplineSet
EndChar

StartChar: omacron
Encoding: 333 333 259
Width: 823
GlyphClass: 2
Flags: W
AnchorPoint: "Anchor-2" 514 0 basechar 0
AnchorPoint: "Anchor-1" 313 1536 basechar 0
LayerCount: 2
Fore
SplineSet
221 281 m 2,0,-1
 221 616 l 1,1,-1
 59 616 l 1,2,-1
 59 723 l 1,3,-1
 221 723 l 1,4,-1
 221 956 l 1,5,-1
 59 956 l 1,6,-1
 59 1063 l 1,7,-1
 221 1063 l 1,8,-1
 221 1393 l 1,9,-1
 406 1393 l 1,10,-1
 406 1063 l 1,11,-1
 752 1063 l 1,12,-1
 752 956 l 1,13,-1
 406 956 l 1,14,-1
 406 723 l 1,15,-1
 752 723 l 1,16,-1
 752 616 l 1,17,-1
 406 616 l 1,18,-1
 406 281 l 2,19,20
 406 146 406 146 432 108 c 128,-1,21
 458 70 458 70 528 70 c 0,22,23
 600 70 600 70 633 112.5 c 128,-1,24
 666 155 666 155 668 250 c 1,25,-1
 807 250 l 1,26,27
 799 105 799 105 728 38 c 128,-1,28
 657 -29 657 -29 512 -29 c 0,29,30
 353 -29 353 -29 287 41.5 c 128,-1,31
 221 112 221 112 221 281 c 2,0,-1
EndSplineSet
EndChar

StartChar: Ohungarumlaut
Encoding: 336 336 262
Width: 1716
GlyphClass: 2
Flags: W
LayerCount: 2
Fore
SplineSet
566 1842 m 1,0,-1
 1164 1842 l 1,1,-1
 1164 1694 l 1,2,-1
 566 1694 l 1,3,-1
 566 1842 l 1,0,-1
EndSplineSet
Refer: 56 85 N 1 0 0 1 0 0 3
EndChar

StartChar: ohungarumlaut
Encoding: 337 337 263
Width: 1319
GlyphClass: 2
Flags: W
LayerCount: 2
Fore
SplineSet
333 1526 m 1,0,-1
 931 1526 l 1,1,-1
 931 1378 l 1,2,-1
 333 1378 l 1,3,-1
 333 1526 l 1,0,-1
EndSplineSet
Refer: 88 117 N 1 0 0 1 0 0 3
EndChar

StartChar: rcommaaccent
Encoding: 343 343 267
Width: 1653
GlyphClass: 2
Flags: W
LayerCount: 2
Fore
SplineSet
514 106 m 1,0,-1
 702 106 l 2,1,2
 993 106 993 106 1149 272 c 0,3,4
 1305 438 1305 438 1305 748 c 256,5,6
 1305 1058 1305 1058 1149.5 1222 c 0,7,8
 994 1386 994 1386 702 1386 c 2,9,-1
 514 1386 l 1,10,-1
 514 844 l 1,11,-1
 850 844 l 1,12,-1
 850 719 l 1,13,-1
 514 719 l 1,14,-1
 514 106 l 1,0,-1
123 0 m 1,15,-1
 123 106 l 1,16,-1
 313 106 l 1,17,-1
 313 719 l 1,18,-1
 113 719 l 1,19,-1
 113 844 l 1,20,-1
 313 844 l 1,21,-1
 313 1386 l 1,22,-1
 123 1386 l 1,23,-1
 123 1493 l 1,24,-1
 717 1493 l 2,25,26
 1103 1493 1103 1493 1318.5 1296 c 0,27,28
 1534 1099 1534 1099 1534 748 c 0,29,30
 1534 396 1534 396 1318 198 c 0,31,32
 1102 0 1102 0 717 0 c 2,33,-1
 123 0 l 1,15,-1
EndSplineSet
Refer: 1117 -1 N 1 0 0 1 1566 380 2
EndChar

StartChar: Rcaron
Encoding: 344 344 268
Width: 1753
GlyphClass: 2
Flags: W
LayerCount: 2
Fore
SplineSet
983 1063 m 1,0,-1
 1255 233 l 1,1,-1
 1495 956 l 1,2,-1
 1341 956 l 1,3,-1
 1341 1063 l 1,4,-1
 1726 1063 l 1,5,-1
 1726 956 l 1,6,-1
 1608 956 l 1,7,-1
 1292 0 l 1,8,-1
 1139 0 l 1,9,-1
 877 795 l 1,10,-1
 614 0 l 1,11,-1
 467 0 l 1,12,-1
 152 956 l 1,13,-1
 33 956 l 1,14,-1
 33 1063 l 1,15,-1
 514 1063 l 1,16,-1
 514 956 l 1,17,-1
 342 956 l 1,18,-1
 580 233 l 1,19,-1
 854 1063 l 1,20,-1
 983 1063 l 1,0,-1
EndSplineSet
Refer: 529 710 N 1 0 0 1 368 0 2
EndChar

StartChar: sacute
Encoding: 347 347 271
Width: 1403
GlyphClass: 2
Flags: W
AnchorPoint: "Anchor-1" 702 1465 basechar 0
LayerCount: 2
Fore
SplineSet
1235 72 m 1,0,1
 1103 21 1103 21 976 -4 c 0,2,3
 848 -29 848 -29 725 -29 c 0,4,5
 450 -29 450 -29 311 81 c 128,-1,6
 172 191 172 191 172 408 c 0,7,8
 172 567 172 567 258 662 c 0,9,10
 345 756 345 756 548 817 c 2,11,-1
 733 872 l 2,12,13
 934 932 934 932 996 993 c 128,-1,14
 1058 1054 1058 1054 1058 1161 c 0,15,16
 1058 1284 1058 1284 976 1348 c 0,17,18
 893 1413 893 1413 735 1413 c 0,19,20
 554 1413 554 1413 466 1342 c 0,21,22
 377 1272 377 1272 360 1114 c 1,23,-1
 247 1114 l 1,24,-1
 247 1432 l 1,25,26
 387 1475 387 1475 511 1498 c 0,27,28
 635 1520 635 1520 739 1520 c 0,29,30
 983 1520 983 1520 1118 1415 c 128,-1,31
 1253 1310 1253 1310 1253 1120 c 0,32,33
 1253 951 1253 951 1166 854 c 0,34,35
 1078 757 1078 757 864 692 c 2,36,-1
 667 633 l 2,37,38
 485 578 485 578 428 520 c 0,39,40
 372 462 372 462 372 354 c 0,41,42
 372 219 372 219 466 148 c 0,43,44
 559 78 559 78 737 78 c 0,45,46
 928 78 928 78 1022 160 c 0,47,48
 1115 241 1115 241 1120 412 c 1,49,-1
 1235 412 l 1,50,-1
 1235 72 l 1,0,1
EndSplineSet
EndChar

StartChar: Scircumflex
Encoding: 348 348 272
Width: 1051
GlyphClass: 2
Flags: W
AnchorPoint: "Anchor-1" 526 1092 basechar 0
LayerCount: 2
Fore
SplineSet
946 59 m 1,0,1
 848 15 848 15 750 -7 c 128,-1,2
 652 -29 652 -29 549 -29 c 0,3,4
 346 -29 346 -29 230 58 c 0,5,6
 115 144 115 144 115 295 c 0,7,8
 115 406 115 406 182 476 c 0,9,10
 248 547 248 547 399 594 c 2,11,-1
 545 639 l 2,12,13
 680 681 680 681 725 722 c 0,14,15
 770 762 770 762 770 829 c 0,16,17
 770 911 770 911 710 952 c 0,18,19
 651 993 651 993 535 993 c 0,20,21
 418 993 418 993 350 935 c 128,-1,22
 282 877 282 877 278 774 c 1,23,-1
 172 774 l 1,24,-1
 172 1006 l 1,25,26
 271 1048 271 1048 364 1070 c 128,-1,27
 457 1092 457 1092 541 1092 c 0,28,29
 730 1092 730 1092 837 1009 c 128,-1,30
 944 926 944 926 944 780 c 0,31,32
 944 678 944 678 882 612 c 0,33,34
 821 546 821 546 684 502 c 2,35,-1
 551 457 l 2,36,37
 398 408 398 408 350 365 c 0,38,39
 303 322 303 322 303 252 c 0,40,41
 303 163 303 163 368 116 c 0,42,43
 433 70 433 70 557 70 c 0,44,45
 695 70 695 70 766 129 c 0,46,47
 836 188 836 188 840 307 c 1,48,-1
 946 307 l 1,49,-1
 946 59 l 1,0,1
EndSplineSet
EndChar

StartChar: Scedilla
Encoding: 350 350 274
Width: 940
GlyphClass: 2
Flags: W
LayerCount: 2
Fore
SplineSet
389 851 m 1,0,-1
 18 851 l 1,1,-1
 18 1013 l 1,2,-1
 389 1013 l 1,3,-1
 389 1493 l 1,4,-1
 551 1493 l 1,5,-1
 551 1013 l 1,6,-1
 922 1013 l 1,7,-1
 922 851 l 1,8,-1
 551 851 l 1,9,-1
 551 642 l 1,10,-1
 922 642 l 1,11,-1
 922 480 l 1,12,-1
 551 480 l 1,13,-1
 551 0 l 1,14,-1
 389 0 l 1,15,-1
 389 480 l 1,16,-1
 18 480 l 1,17,-1
 18 642 l 1,18,-1
 389 642 l 1,19,-1
 389 851 l 1,0,-1
EndSplineSet
EndChar

StartChar: scedilla
Encoding: 351 351 275
Width: 604
GlyphClass: 2
Flags: W
LayerCount: 2
Fore
SplineSet
383 156 m 1,0,-1
 383 0 l 1,1,-1
 221 0 l 1,2,-1
 221 156 l 1,3,-1
 383 156 l 1,0,-1
383 1493 m 1,4,-1
 383 312 l 1,5,-1
 221 312 l 1,6,-1
 221 1493 l 1,7,-1
 383 1493 l 1,4,-1
EndSplineSet
EndChar

StartChar: Scaron
Encoding: 352 352 276
Width: 1430
GlyphClass: 2
Flags: W
LayerCount: 2
Fore
SplineSet
1075 164 m 1,0,-1
 657 1253 l 1,1,-1
 238 164 l 1,2,-1
 1075 164 l 1,0,-1
51 0 m 1,3,-1
 623 1493 l 1,4,-1
 795 1493 l 1,5,-1
 1366 0 l 1,6,-1
 51 0 l 1,3,-1
EndSplineSet
EndChar

StartChar: scaron
Encoding: 353 353 277
Width: 1430
GlyphClass: 2
Flags: W
LayerCount: 2
Fore
SplineSet
1075 1329 m 1,0,-1
 238 1329 l 1,1,-1
 657 240 l 1,2,-1
 1075 1329 l 1,0,-1
51 1493 m 1,3,-1
 1366 1493 l 1,4,-1
 795 0 l 1,5,-1
 623 0 l 1,6,-1
 51 1493 l 1,3,-1
EndSplineSet
EndChar

StartChar: Tcommaaccent
Encoding: 354 354 278
Width: 1516
GlyphClass: 2
Flags: W
LayerCount: 2
Fore
SplineSet
859 160 m 2,0,-1
 1299 160 l 1,1,-1
 1299 0 l 1,2,-1
 859 0 l 2,3,4
 685 0 685 0 537 86 c 128,-1,5
 389 172 389 172 303 320 c 128,-1,6
 217 468 217 468 217 642 c 128,-1,7
 217 816 217 816 303 964 c 128,-1,8
 389 1112 389 1112 537 1198 c 128,-1,9
 685 1284 685 1284 859 1284 c 2,10,-1
 1299 1284 l 1,11,-1
 1299 1124 l 1,12,-1
 859 1124 l 2,13,14
 729 1124 729 1124 618 1059 c 128,-1,15
 507 994 507 994 442 883 c 0,16,17
 398 807 398 807 384 723 c 1,18,-1
 1299 723 l 1,19,-1
 1299 561 l 1,20,-1
 384 561 l 1,21,22
 398 477 398 477 442 401 c 0,23,24
 507 290 507 290 618 225 c 128,-1,25
 729 160 729 160 859 160 c 2,0,-1
EndSplineSet
EndChar

StartChar: tcommaaccent
Encoding: 355 355 279
Width: 1516
GlyphClass: 2
Flags: W
LayerCount: 2
Fore
SplineSet
859 160 m 2,0,-1
 1299 160 l 1,1,-1
 1299 0 l 1,2,-1
 859 0 l 2,3,4
 760 0 760 0 669 28 c 1,5,-1
 560 -271 l 1,6,-1
 408 -215 l 1,7,-1
 521 96 l 1,8,9
 384 180 384 180 303 320 c 0,10,11
 217 468 217 468 217 642 c 128,-1,12
 217 816 217 816 303 964 c 128,-1,13
 389 1112 389 1112 537 1198 c 128,-1,14
 685 1284 685 1284 859 1284 c 2,15,-1
 953 1284 l 1,16,-1
 1052 1555 l 1,17,-1
 1204 1499 l 1,18,-1
 1126 1284 l 1,19,-1
 1299 1284 l 1,20,-1
 1299 1124 l 1,21,-1
 1068 1124 l 1,22,-1
 922 723 l 1,23,-1
 1299 723 l 1,24,-1
 1299 561 l 1,25,-1
 863 561 l 1,26,-1
 724 179 l 1,27,28
 789 160 789 160 859 160 c 2,0,-1
578 251 m 1,29,-1
 690 561 l 1,30,-1
 384 561 l 1,31,32
 398 477 398 477 442 401 c 0,33,34
 495 311 495 311 578 251 c 1,29,-1
749 723 m 1,35,-1
 895 1124 l 1,36,-1
 859 1124 l 2,37,38
 729 1124 729 1124 618 1059 c 128,-1,39
 507 994 507 994 442 883 c 0,40,41
 398 807 398 807 384 723 c 1,42,-1
 749 723 l 1,35,-1
EndSplineSet
EndChar

StartChar: tcaron
Encoding: 357 357 281
Width: 1392
GlyphClass: 2
Flags: W
LayerCount: 2
Fore
SplineSet
1175 824 m 1,0,-1
 784 642 l 1,1,-1
 1175 457 l 1,2,-1
 1099 339 l 1,3,-1
 751 556 l 1,4,-1
 764 175 l 1,5,-1
 628 175 l 1,6,-1
 641 556 l 1,7,-1
 293 339 l 1,8,-1
 217 457 l 1,9,-1
 608 640 l 1,10,-1
 217 824 l 1,11,-1
 293 943 l 1,12,-1
 641 726 l 1,13,-1
 628 1107 l 1,14,-1
 764 1107 l 1,15,-1
 751 726 l 1,16,-1
 1099 943 l 1,17,-1
 1175 824 l 1,0,-1
EndSplineSet
EndChar

StartChar: Tbar
Encoding: 358 358 282
Width: 1004
GlyphClass: 2
Flags: W
LayerCount: 2
Fore
SplineSet
605 746.5 m 128,-1,1
 562 790 562 790 501 790 c 128,-1,2
 440 790 440 790 398 747.5 c 128,-1,3
 356 705 356 705 356 643 c 128,-1,4
 356 581 356 581 398 539.5 c 128,-1,5
 440 498 440 498 502 498 c 128,-1,6
 564 498 564 498 606 540 c 128,-1,7
 648 582 648 582 648 642 c 0,8,0
 648 703 648 703 605 746.5 c 128,-1,1
299.5 846.5 m 128,-1,10
 382 930 382 930 503.5 930 c 128,-1,11
 625 930 625 930 704 845 c 1,12,13
 787 764 787 764 787 643.5 c 128,-1,14
 787 523 787 523 704 441 c 128,-1,15
 621 359 621 359 500 359 c 128,-1,16
 379 359 379 359 298 440 c 128,-1,17
 217 521 217 521 217 642 c 128,-1,9
 217 763 217 763 299.5 846.5 c 128,-1,10
EndSplineSet
EndChar

StartChar: tbar
Encoding: 359 359 283
Width: 1004
GlyphClass: 2
Flags: W
LayerCount: 2
Fore
SplineSet
299.5 846.5 m 128,-1,1
 382 930 382 930 503.5 930 c 128,-1,2
 625 930 625 930 704 845 c 1,3,4
 787 764 787 764 787 643.5 c 128,-1,5
 787 523 787 523 704 441 c 128,-1,6
 621 359 621 359 500 359 c 128,-1,7
 379 359 379 359 298 440 c 128,-1,8
 217 521 217 521 217 642 c 128,-1,0
 217 763 217 763 299.5 846.5 c 128,-1,1
EndSplineSet
EndChar

StartChar: Utilde
Encoding: 360 360 284
Width: 1305
GlyphClass: 2
Flags: W
LayerCount: 2
Fore
SplineSet
1116 1661 m 1,0,-1
 1305 1661 l 1,1,-1
 1305 1565 l 1,2,-1
 1190 1565 l 1,3,-1
 596 -41 l 1,4,-1
 530 -41 l 1,5,-1
 211 842 l 1,6,-1
 86 797 l 1,7,-1
 61 877 l 1,8,-1
 344 975 l 1,9,-1
 600 266 l 1,10,-1
 1116 1661 l 1,0,-1
EndSplineSet
EndChar

StartChar: utilde
Encoding: 361 361 285
Width: 1706
GlyphClass: 2
Flags: W
LayerCount: 2
Fore
SplineSet
915 559 m 1,0,1
 965 470 965 470 1031.5 425.5 c 128,-1,2
 1098 381 1098 381 1182 381 c 0,3,4
 1283 381 1283 381 1347 448.5 c 128,-1,5
 1411 516 1411 516 1411 621 c 0,6,7
 1411 722 1411 722 1352 789 c 128,-1,8
 1293 856 1293 856 1204 856 c 0,9,10
 1123 856 1123 856 1057.5 789.5 c 128,-1,11
 992 723 992 723 915 559 c 1,0,1
793 666 m 1,12,13
 744 754 744 754 677.5 798 c 128,-1,14
 611 842 611 842 526 842 c 0,15,16
 425 842 425 842 361 775.5 c 128,-1,17
 297 709 297 709 297 604 c 0,18,19
 297 503 297 503 356 436 c 128,-1,20
 415 369 415 369 504 369 c 0,21,22
 585 369 585 369 650.5 435 c 128,-1,23
 716 501 716 501 793 666 c 1,12,13
864 483 m 1,24,25
 793 347 793 347 715.5 284 c 128,-1,26
 638 221 638 221 543 221 c 0,27,28
 408 221 408 221 314.5 333 c 128,-1,29
 221 445 221 445 221 610 c 0,30,31
 221 785 221 785 304.5 893 c 128,-1,32
 388 1001 388 1001 522 1001 c 0,33,34
 617 1001 617 1001 692 939.5 c 128,-1,35
 767 878 767 878 842 737 c 1,36,37
 910 875 910 875 989 940.5 c 128,-1,38
 1068 1006 1068 1006 1165 1006 c 0,39,40
 1298 1006 1298 1006 1392.5 893 c 128,-1,41
 1487 780 1487 780 1487 614 c 0,42,43
 1487 440 1487 440 1403.5 332.5 c 128,-1,44
 1320 225 1320 225 1186 225 c 0,45,46
 1091 225 1091 225 1017.5 283.5 c 128,-1,47
 944 342 944 342 864 483 c 1,24,25
EndSplineSet
EndChar

StartChar: Umacron
Encoding: 362 362 286
Width: 1111
GlyphClass: 2
Flags: W
LayerCount: 2
Fore
SplineSet
951 1493 m 1,0,-1
 951 0 l 1,1,-1
 124 0 l 1,2,-1
 124 162 l 1,3,-1
 789 162 l 1,4,-1
 789 666 l 1,5,-1
 124 666 l 1,6,-1
 124 828 l 1,7,-1
 789 828 l 1,8,-1
 789 1331 l 1,9,-1
 124 1331 l 1,10,-1
 124 1493 l 1,11,-1
 951 1493 l 1,0,-1
EndSplineSet
EndChar

StartChar: Ubreve
Encoding: 364 364 288
Width: 1059
GlyphClass: 2
Flags: W
LayerCount: 2
Fore
SplineSet
756 621 m 1,0,1
 771 708 771 708 778.5 789.5 c 128,-1,2
 786 871 786 871 786 946 c 0,3,4
 786 1075 786 1075 749.5 1140.5 c 128,-1,5
 713 1206 713 1206 641 1206 c 0,6,7
 586 1206 586 1206 514 1148 c 128,-1,8
 442 1090 442 1090 406 1090 c 256,9,10
 370 1090 370 1090 346 1112 c 128,-1,11
 322 1134 322 1134 322 1165 c 0,12,13
 322 1227 322 1227 394 1276 c 128,-1,14
 466 1325 466 1325 567 1325 c 0,15,16
 747 1325 747 1325 854 1170 c 128,-1,17
 961 1015 961 1015 961 752 c 0,18,19
 961 417 961 417 816.5 196 c 128,-1,20
 672 -25 672 -25 459 -25 c 0,21,22
 307 -25 307 -25 205.5 83 c 128,-1,23
 104 191 104 191 104 354 c 0,24,25
 104 552 104 552 214.5 680.5 c 128,-1,26
 325 809 325 809 487 809 c 0,27,28
 588 809 588 809 653 763.5 c 128,-1,29
 718 718 718 718 756 621 c 1,0,1
707 494 m 0,30,31
 707 610 707 610 663.5 672.5 c 128,-1,32
 620 735 620 735 541 735 c 0,33,34
 432 735 432 735 361.5 606 c 128,-1,35
 291 477 291 477 291 270 c 0,36,37
 291 154 291 154 334 92.5 c 128,-1,38
 377 31 377 31 457 31 c 0,39,40
 566 31 566 31 636.5 161 c 128,-1,41
 707 291 707 291 707 494 c 0,30,31
EndSplineSet
EndChar

StartChar: ubreve
Encoding: 365 365 289
Width: 1386
GlyphClass: 2
Flags: W
LayerCount: 2
Fore
SplineSet
793 666 m 1,0,1
 744 754 744 754 677.5 798 c 128,-1,2
 611 842 611 842 526 842 c 0,3,4
 425 842 425 842 361 775.5 c 128,-1,5
 297 709 297 709 297 604 c 0,6,7
 297 503 297 503 356 436 c 128,-1,8
 415 369 415 369 504 369 c 0,9,10
 585 369 585 369 650.5 435 c 128,-1,11
 716 501 716 501 793 666 c 1,0,1
1165 225 m 1,12,13
 1091 225 1091 225 1017.5 283.5 c 128,-1,14
 944 342 944 342 864 483 c 1,15,16
 793 347 793 347 715.5 284 c 128,-1,17
 638 221 638 221 543 221 c 0,18,19
 408 221 408 221 314.5 333 c 128,-1,20
 221 445 221 445 221 610 c 0,21,22
 221 785 221 785 304.5 893 c 128,-1,23
 388 1001 388 1001 522 1001 c 0,24,25
 617 1001 617 1001 692 939.5 c 128,-1,26
 767 878 767 878 842 737 c 1,27,28
 910 875 910 875 989 940.5 c 128,-1,29
 1068 1006 1068 1006 1165 1006 c 1,30,-1
 1165 856 l 1,31,32
 1123 856 1123 856 1057.5 789.5 c 128,-1,33
 992 723 992 723 915 559 c 1,34,35
 965 470 965 470 1031.5 425.5 c 128,-1,36
 1098 381 1098 381 1165 381 c 1,37,-1
 1165 225 l 1,12,13
EndSplineSet
EndChar

StartChar: Uring
Encoding: 366 366 290
Width: 1716
GlyphClass: 2
Flags: W
LayerCount: 2
Fore
SplineSet
1433 203 m 1,0,-1
 283 203 l 1,1,-1
 283 1353 l 1,2,-1
 445 1353 l 1,3,-1
 445 365 l 1,4,-1
 1433 365 l 1,5,-1
 1433 203 l 1,0,-1
EndSplineSet
EndChar

StartChar: uring
Encoding: 367 367 291
Width: 1716
GlyphClass: 2
Flags: W
LayerCount: 2
Fore
SplineSet
1433 203 m 1,0,-1
 283 203 l 1,1,-1
 1251 1353 l 1,2,-1
 1413 1353 l 1,3,-1
 581 365 l 1,4,-1
 1433 365 l 1,5,-1
 1433 203 l 1,0,-1
EndSplineSet
EndChar

StartChar: Uhungarumlaut
Encoding: 368 368 292
Width: 2116
GlyphClass: 2
Flags: W
LayerCount: 2
Fore
SplineSet
1632 846 m 0,0,1
 1632 902 1632 902 1670.5 940.5 c 128,-1,2
 1709 979 1709 979 1766 979 c 0,3,4
 1821 979 1821 979 1860 940 c 128,-1,5
 1899 901 1899 901 1899 846 c 0,6,7
 1899 790 1899 790 1860 751.5 c 128,-1,8
 1821 713 1821 713 1766 713 c 0,9,10
 1709 713 1709 713 1670.5 751 c 128,-1,11
 1632 789 1632 789 1632 846 c 0,0,1
1632 438 m 0,12,13
 1632 494 1632 494 1670.5 532.5 c 128,-1,14
 1709 571 1709 571 1766 571 c 0,15,16
 1821 571 1821 571 1860 532 c 128,-1,17
 1899 493 1899 493 1899 438 c 0,18,19
 1899 382 1899 382 1860 343.5 c 128,-1,20
 1821 305 1821 305 1766 305 c 0,21,22
 1709 305 1709 305 1670.5 343 c 128,-1,23
 1632 381 1632 381 1632 438 c 0,12,13
217 926 m 1,24,-1
 1499 926 l 1,25,-1
 1499 766 l 1,26,-1
 217 766 l 1,27,-1
 217 926 l 1,24,-1
217 518 m 1,28,-1
 1499 518 l 1,29,-1
 1499 358 l 1,30,-1
 217 358 l 1,31,-1
 217 518 l 1,28,-1
EndSplineSet
EndChar

StartChar: uhungarumlaut
Encoding: 369 369 293
Width: 1716
GlyphClass: 2
Flags: W
LayerCount: 2
Fore
SplineSet
217 722 m 1,0,-1
 1499 722 l 1,1,-1
 1499 562 l 1,2,-1
 217 562 l 1,3,-1
 217 722 l 1,0,-1
217 1094 m 1,4,-1
 1499 1094 l 1,5,-1
 1499 934 l 1,6,-1
 217 934 l 1,7,-1
 217 1094 l 1,4,-1
217 350 m 1,8,-1
 1499 350 l 1,9,-1
 1499 190 l 1,10,-1
 217 190 l 1,11,-1
 217 350 l 1,8,-1
EndSplineSet
EndChar

StartChar: Uogonek
Encoding: 370 370 294
Width: 1716
GlyphClass: 2
Flags: W
LayerCount: 2
Fore
SplineSet
217 926 m 1,0,-1
 989 926 l 1,1,-1
 1245 1245 l 1,2,-1
 1370 1143 l 1,3,-1
 1196 926 l 1,4,-1
 1499 926 l 1,5,-1
 1499 766 l 1,6,-1
 1059 766 l 1,7,-1
 864 518 l 1,8,-1
 1499 518 l 1,9,-1
 1499 358 l 1,10,-1
 725 358 l 1,11,-1
 467 39 l 1,12,-1
 342 141 l 1,13,-1
 516 358 l 1,14,-1
 217 358 l 1,15,-1
 217 518 l 1,16,-1
 655 518 l 1,17,-1
 850 766 l 1,18,-1
 217 766 l 1,19,-1
 217 926 l 1,0,-1
EndSplineSet
EndChar

StartChar: uogonek
Encoding: 371 371 295
Width: 1716
GlyphClass: 2
Flags: W
LayerCount: 2
Fore
SplineSet
725 1012 m 0,0,1
 725 1068 725 1068 763.5 1106.5 c 128,-1,2
 802 1145 802 1145 858 1145 c 0,3,4
 913 1145 913 1145 952 1106 c 128,-1,5
 991 1067 991 1067 991 1012 c 0,6,7
 991 956 991 956 952 917.5 c 128,-1,8
 913 879 913 879 858 879 c 0,9,10
 801 879 801 879 763 917 c 128,-1,11
 725 955 725 955 725 1012 c 0,0,1
217 723 m 1,12,-1
 1499 723 l 1,13,-1
 1499 561 l 1,14,-1
 217 561 l 1,15,-1
 217 723 l 1,12,-1
EndSplineSet
EndChar

StartChar: Wcircumflex
Encoding: 372 372 296
Width: 1716
GlyphClass: 2
Flags: W
LayerCount: 2
Fore
SplineSet
1233 1012 m 0,0,1
 1233 1068 1233 1068 1271.5 1106.5 c 128,-1,2
 1310 1145 1310 1145 1366 1145 c 0,3,4
 1421 1145 1421 1145 1460 1106 c 128,-1,5
 1499 1067 1499 1067 1499 1012 c 0,6,7
 1499 956 1499 956 1460 917.5 c 128,-1,8
 1421 879 1421 879 1366 879 c 0,9,10
 1309 879 1309 879 1271 917 c 128,-1,11
 1233 955 1233 955 1233 1012 c 0,0,1
1233 272 m 128,-1,13
 1233 328 1233 328 1271.5 367 c 128,-1,14
 1310 406 1310 406 1366 406 c 0,15,16
 1421 406 1421 406 1460 367 c 128,-1,17
 1499 328 1499 328 1499 272 c 0,18,19
 1499 217 1499 217 1460 178 c 128,-1,20
 1421 139 1421 139 1366 139 c 0,21,22
 1309 139 1309 139 1271 177.5 c 128,-1,12
 1233 216 1233 216 1233 272 c 128,-1,13
217 723 m 1,23,-1
 1099 723 l 1,24,-1
 1099 561 l 1,25,-1
 217 561 l 1,26,-1
 217 723 l 1,23,-1
EndSplineSet
EndChar

StartChar: wcircumflex
Encoding: 373 373 297
Width: 596
GlyphClass: 2
Flags: W
LayerCount: 2
Fore
SplineSet
379 1693 m 1,0,-1
 379 -200 l 1,1,-1
 217 -200 l 1,2,-1
 217 1693 l 1,3,-1
 379 1693 l 1,0,-1
EndSplineSet
EndChar

StartChar: Ycircumflex
Encoding: 374 374 298
Width: 980
GlyphClass: 2
Flags: W
LayerCount: 2
Fore
SplineSet
409 781 m 1,0,-1
 409 1693 l 1,1,-1
 571 1693 l 1,2,-1
 571 943 l 1,3,-1
 688 1060 l 1,4,-1
 803 945 l 1,5,-1
 571 713 l 1,6,-1
 571 -200 l 1,7,-1
 409 -200 l 1,8,-1
 409 551 l 1,9,-1
 292 434 l 1,10,-1
 177 549 l 1,11,-1
 409 781 l 1,0,-1
EndSplineSet
EndChar

StartChar: ycircumflex
Encoding: 375 375 299
Width: 946
GlyphClass: 2
Flags: W
LayerCount: 2
Fore
SplineSet
729 1693 m 1,0,-1
 729 -200 l 1,1,-1
 567 -200 l 1,2,-1
 567 1693 l 1,3,-1
 729 1693 l 1,0,-1
379 1693 m 1,4,-1
 379 -200 l 1,5,-1
 217 -200 l 1,6,-1
 217 1693 l 1,7,-1
 379 1693 l 1,4,-1
EndSplineSet
EndChar

StartChar: Ydieresis
Encoding: 376 376 300
Width: 1298
GlyphClass: 2
Flags: W
LayerCount: 2
Fore
SplineSet
393 606 m 1,0,-1
 393 1693 l 1,1,-1
 555 1693 l 1,2,-1
 555 768 l 1,3,-1
 743 956 l 1,4,-1
 743 1693 l 1,5,-1
 905 1693 l 1,6,-1
 905 1118 l 1,7,-1
 1006 1219 l 1,8,-1
 1121 1104 l 1,9,-1
 905 888 l 1,10,-1
 905 -200 l 1,11,-1
 743 -200 l 1,12,-1
 743 726 l 1,13,-1
 555 538 l 1,14,-1
 555 -200 l 1,15,-1
 393 -200 l 1,16,-1
 393 376 l 1,17,-1
 292 275 l 1,18,-1
 177 390 l 1,19,-1
 393 606 l 1,0,-1
EndSplineSet
EndChar

StartChar: zacute
Encoding: 378 378 302
Width: 1499
GlyphClass: 2
Flags: W
LayerCount: 2
Fore
SplineSet
264 1196 m 1,0,-1
 459 1196 l 1,1,-1
 750 246 l 1,2,-1
 1040 1196 l 1,3,-1
 1235 1196 l 1,4,-1
 875 0 l 1,5,-1
 625 0 l 1,6,-1
 264 1196 l 1,0,-1
EndSplineSet
EndChar

StartChar: Zdotaccent
Encoding: 379 379 303
Width: 1716
GlyphClass: 2
Flags: W
LayerCount: 2
Fore
SplineSet
376 642 m 2,0,-1
 376 0 l 1,1,-1
 216 0 l 1,2,-1
 216 642 l 2,3,4
 216 816 216 816 302 964 c 128,-1,5
 388 1112 388 1112 536 1198 c 128,-1,6
 684 1284 684 1284 858 1284 c 128,-1,7
 1032 1284 1032 1284 1180 1198 c 128,-1,8
 1328 1112 1328 1112 1414 964 c 128,-1,9
 1500 816 1500 816 1500 642 c 2,10,-1
 1500 0 l 1,11,-1
 1340 0 l 1,12,-1
 1340 642 l 2,13,14
 1340 772 1340 772 1275 883 c 128,-1,15
 1210 994 1210 994 1099 1059 c 128,-1,16
 988 1124 988 1124 858 1124 c 128,-1,17
 728 1124 728 1124 617 1059 c 128,-1,18
 506 994 506 994 441 883 c 128,-1,19
 376 772 376 772 376 642 c 2,0,-1
EndSplineSet
EndChar

StartChar: zdotaccent
Encoding: 380 380 304
Width: 1716
GlyphClass: 2
Flags: W
LayerCount: 2
Fore
SplineSet
1340 617 m 2,0,-1
 1340 1259 l 1,1,-1
 1500 1259 l 1,2,-1
 1500 617 l 2,3,4
 1500 443 1500 443 1414 295 c 128,-1,5
 1328 147 1328 147 1180 61 c 128,-1,6
 1032 -25 1032 -25 858 -25 c 128,-1,7
 684 -25 684 -25 536 61 c 128,-1,8
 388 147 388 147 302 295 c 128,-1,9
 216 443 216 443 216 617 c 2,10,-1
 216 1259 l 1,11,-1
 376 1259 l 1,12,-1
 376 617 l 2,13,14
 376 487 376 487 441 376 c 128,-1,15
 506 265 506 265 617 200 c 128,-1,16
 728 135 728 135 858 135 c 128,-1,17
 988 135 988 135 1099 200 c 128,-1,18
 1210 265 1210 265 1275 376 c 128,-1,19
 1340 487 1340 487 1340 617 c 2,0,-1
EndSplineSet
EndChar

StartChar: Zcaron
Encoding: 381 381 305
Width: 1067
GlyphClass: 2
Flags: W
LayerCount: 2
Fore
SplineSet
311 -262 m 0,0,1
 417 -262 417 -262 431 426 c 0,2,3
 433 534 433 534 434 591 c 0,4,5
 446 1106 446 1106 541 1328 c 128,-1,6
 636 1550 636 1550 838 1550 c 0,7,8
 918 1550 918 1550 968 1508 c 128,-1,9
 1018 1466 1018 1466 1018 1401 c 0,10,11
 1018 1347 1018 1347 986 1315.5 c 128,-1,12
 954 1284 954 1284 899 1284 c 0,13,14
 857 1284 857 1284 829 1303 c 128,-1,15
 801 1322 801 1322 789 1357 c 0,16,17
 783 1372 783 1372 778.5 1408 c 128,-1,18
 774 1444 774 1444 758 1444 c 0,19,20
 651 1444 651 1444 637 825 c 0,21,22
 633 632 633 632 629 522 c 0,23,24
 612 43 612 43 517.5 -164 c 128,-1,25
 423 -371 423 -371 227 -371 c 0,26,27
 148 -371 148 -371 97.5 -329.5 c 128,-1,28
 47 -288 47 -288 47 -223 c 0,29,30
 47 -167 47 -167 81 -135.5 c 128,-1,31
 115 -104 115 -104 176 -104 c 0,32,33
 209 -104 209 -104 233 -118.5 c 128,-1,34
 257 -133 257 -133 272 -161 c 0,35,36
 282 -179 282 -179 287 -220.5 c 128,-1,37
 292 -262 292 -262 311 -262 c 0,0,1
EndSplineSet
EndChar

StartChar: uni01BA
Encoding: 442 442 339
Width: 1716
GlyphClass: 2
Flags: W
LayerCount: 2
Fore
SplineSet
217 1012 m 0,0,1
 217 1068 217 1068 255.5 1106.5 c 128,-1,2
 294 1145 294 1145 350 1145 c 0,3,4
 405 1145 405 1145 444 1106 c 128,-1,5
 483 1067 483 1067 483 1012 c 0,6,7
 483 956 483 956 444 917.5 c 128,-1,8
 405 879 405 879 350 879 c 0,9,10
 293 879 293 879 255 917 c 128,-1,11
 217 955 217 955 217 1012 c 0,0,1
217 272 m 128,-1,13
 217 328 217 328 255.5 367 c 128,-1,14
 294 406 294 406 350 406 c 0,15,16
 405 406 405 406 444 367 c 128,-1,17
 483 328 483 328 483 272 c 0,18,19
 483 217 483 217 444 178 c 128,-1,20
 405 139 405 139 350 139 c 0,21,22
 293 139 293 139 255 177.5 c 128,-1,12
 217 216 217 216 217 272 c 128,-1,13
1233 1012 m 0,23,24
 1233 1068 1233 1068 1271.5 1106.5 c 128,-1,25
 1310 1145 1310 1145 1366 1145 c 0,26,27
 1421 1145 1421 1145 1460 1106 c 128,-1,28
 1499 1067 1499 1067 1499 1012 c 0,29,30
 1499 956 1499 956 1460 917.5 c 128,-1,31
 1421 879 1421 879 1366 879 c 0,32,33
 1309 879 1309 879 1271 917 c 128,-1,34
 1233 955 1233 955 1233 1012 c 0,23,24
1233 272 m 128,-1,36
 1233 328 1233 328 1271.5 367 c 128,-1,37
 1310 406 1310 406 1366 406 c 0,38,39
 1421 406 1421 406 1460 367 c 128,-1,40
 1499 328 1499 328 1499 272 c 0,41,42
 1499 217 1499 217 1460 178 c 128,-1,43
 1421 139 1421 139 1366 139 c 0,44,45
 1309 139 1309 139 1271 177.5 c 128,-1,35
 1233 216 1233 216 1233 272 c 128,-1,36
217 723 m 1,46,-1
 1499 723 l 1,47,-1
 1499 561 l 1,48,-1
 217 561 l 1,49,-1
 217 723 l 1,46,-1
EndSplineSet
EndChar

StartChar: uni01BC
Encoding: 444 444 341
Width: 1716
GlyphClass: 2
Flags: W
LayerCount: 2
Fore
SplineSet
1499 807 m 1,0,-1
 1499 660 l 1,1,2
 1308 486 1308 486 1126 486 c 0,3,4
 1034 486 1034 486 868 549 c 2,5,-1
 845 558 l 2,6,7
 672 627 672 627 571 627 c 0,8,9
 391 627 391 627 217 478 c 1,10,-1
 217 625 l 1,11,12
 408 799 408 799 590 799 c 0,13,14
 682 799 682 799 848 736 c 2,15,-1
 871 727 l 2,16,17
 1044 658 1044 658 1145 658 c 0,18,19
 1325 658 1325 658 1499 807 c 1,0,-1
EndSplineSet
EndChar

StartChar: uni01BD
Encoding: 445 445 342
Width: 1716
GlyphClass: 2
Flags: W
LayerCount: 2
Fore
SplineSet
217 807 m 1,0,1
 391 658 391 658 571 658 c 0,2,3
 672 658 672 658 845 727 c 2,4,-1
 868 736 l 2,5,6
 1034 799 1034 799 1126 799 c 0,7,8
 1308 799 1308 799 1499 625 c 1,9,-1
 1499 478 l 1,10,11
 1325 627 1325 627 1145 627 c 0,12,13
 1044 627 1044 627 871 558 c 2,14,-1
 848 549 l 2,15,16
 682 486 682 486 590 486 c 0,17,18
 408 486 408 486 217 660 c 1,19,-1
 217 807 l 1,0,1
EndSplineSet
EndChar

StartChar: uni01C2
Encoding: 450 450 347
Width: 1716
GlyphClass: 2
Flags: W
LayerCount: 2
Fore
SplineSet
217 926 m 1,0,-1
 1499 926 l 1,1,-1
 1499 766 l 1,2,-1
 217 766 l 1,3,-1
 217 926 l 1,0,-1
1499 612 m 1,4,-1
 1499 465 l 1,5,6
 1400 375 1400 375 1309.5 333 c 128,-1,7
 1219 291 1219 291 1126 291 c 0,8,9
 1034 291 1034 291 868 354 c 2,10,-1
 845 363 l 2,11,12
 835 367 835 367 813 375 c 0,13,14
 666 432 666 432 571 432 c 0,15,16
 479 432 479 432 392.5 395.5 c 128,-1,17
 306 359 306 359 217 283 c 1,18,-1
 217 430 l 1,19,20
 318 520 318 520 407.5 561 c 128,-1,21
 497 602 497 602 590 602 c 0,22,23
 686 602 686 602 860 536 c 2,24,-1
 870 532 l 2,25,26
 881 529 881 529 901 520 c 0,27,28
 1046 463 1046 463 1143 463 c 0,29,30
 1235 463 1235 463 1323 499.5 c 128,-1,31
 1411 536 1411 536 1499 612 c 1,4,-1
EndSplineSet
EndChar

StartChar: uni01C3
Encoding: 451 451 348
Width: 1716
GlyphClass: 2
Flags: W
LayerCount: 2
Fore
SplineSet
217 518 m 1,0,-1
 1499 518 l 1,1,-1
 1499 358 l 1,2,-1
 217 358 l 1,3,-1
 217 518 l 1,0,-1
1499 1001 m 1,4,-1
 1499 854 l 1,5,6
 1401 765 1401 765 1310.5 723.5 c 128,-1,7
 1220 682 1220 682 1126 682 c 0,8,9
 1030 682 1030 682 856 748 c 2,10,-1
 846 752 l 1,11,-1
 813 764 l 2,12,13
 666 821 666 821 571 821 c 0,14,15
 479 821 479 821 392.5 784.5 c 128,-1,16
 306 748 306 748 217 672 c 1,17,-1
 217 819 l 1,18,19
 318 909 318 909 407.5 950 c 128,-1,20
 497 991 497 991 590 991 c 0,21,22
 686 991 686 991 860 926 c 1,23,-1
 870 922 l 2,24,25
 881 918 881 918 901 909 c 0,26,27
 1046 852 1046 852 1143 852 c 0,28,29
 1235 852 1235 852 1323 888.5 c 128,-1,30
 1411 925 1411 925 1499 1001 c 1,4,-1
EndSplineSet
EndChar

StartChar: uni01C8
Encoding: 456 456 353
Width: 1716
GlyphClass: 2
Flags: W
LayerCount: 2
Fore
SplineSet
1499 612 m 1,0,-1
 1499 465 l 1,1,2
 1400 375 1400 375 1309.5 333 c 128,-1,3
 1219 291 1219 291 1126 291 c 0,4,5
 1034 291 1034 291 868 354 c 0,6,7
 853 360 853 360 845 363 c 0,8,9
 835 367 835 367 813 375 c 0,10,11
 666 432 666 432 571 432 c 0,12,13
 479 432 479 432 392.5 395.5 c 128,-1,14
 306 359 306 359 217 283 c 1,15,-1
 217 430 l 1,16,17
 318 520 318 520 407.5 561 c 128,-1,18
 497 602 497 602 590 602 c 0,19,20
 686 602 686 602 860 536 c 2,21,-1
 870 532 l 2,22,23
 881 529 881 529 901 520 c 0,24,25
 1046 463 1046 463 1143 463 c 0,26,27
 1235 463 1235 463 1323 499.5 c 128,-1,28
 1411 536 1411 536 1499 612 c 1,0,-1
1499 1001 m 1,29,-1
 1499 854 l 1,30,31
 1401 765 1401 765 1310.5 723.5 c 128,-1,32
 1220 682 1220 682 1126 682 c 0,33,34
 1030 682 1030 682 856 748 c 2,35,-1
 846 752 l 2,36,37
 835 756 835 756 813 764 c 0,38,39
 666 821 666 821 571 821 c 0,40,41
 479 821 479 821 392.5 784.5 c 128,-1,42
 306 748 306 748 217 672 c 1,43,-1
 217 819 l 1,44,45
 318 909 318 909 407.5 950 c 128,-1,46
 497 991 497 991 590 991 c 0,47,48
 686 991 686 991 860 926 c 1,49,-1
 870 922 l 2,50,51
 881 918 881 918 901 909 c 0,52,53
 1046 852 1046 852 1143 852 c 0,54,55
 1235 852 1235 852 1323 888.5 c 128,-1,56
 1411 925 1411 925 1499 1001 c 1,29,-1
EndSplineSet
EndChar

StartChar: uni01D4
Encoding: 468 468 365
Width: 1233
GlyphClass: 2
Flags: W
AnchorPoint: "Anchor-2" 760 0 basechar 0
AnchorPoint: "Anchor-1" 406 1465 basechar 0
LayerCount: 2
Fore
SplineSet
113 0 m 1,0,-1
 113 106 l 1,1,-1
 303 106 l 1,2,-1
 303 719 l 1,3,-1
 103 719 l 1,4,-1
 103 844 l 1,5,-1
 303 844 l 1,6,-1
 303 1386 l 1,7,-1
 113 1386 l 1,8,-1
 113 1493 l 1,9,-1
 696 1493 l 1,10,-1
 696 1386 l 1,11,-1
 506 1386 l 1,12,-1
 506 844 l 1,13,-1
 842 844 l 1,14,-1
 842 719 l 1,15,-1
 506 719 l 1,16,-1
 506 123 l 1,17,-1
 1188 123 l 1,18,-1
 1188 373 l 1,19,-1
 1311 373 l 1,20,-1
 1311 0 l 1,21,-1
 113 0 l 1,0,-1
EndSplineSet
EndChar

StartChar: uni01D6
Encoding: 470 470 367
Width: 1311
GlyphClass: 2
Flags: W
LayerCount: 2
Fore
SplineSet
250 956 m 1,0,-1
 76 956 l 1,1,-1
 76 1063 l 1,2,-1
 434 1063 l 1,3,-1
 434 -104 l 2,4,5
 434 -268 434 -268 336.5 -361.5 c 0,6,7
 239 -455 239 -455 68 -455 c 0,8,9
 -4 -455 -4 -455 -69.5 -438.5 c 0,10,11
 -135 -422 -135 -422 -197 -389 c 1,12,-1
 -197 -170 l 1,13,-1
 -102 -170 l 1,14,15
 -95 -266 -95 -266 -52.5 -311 c 0,16,17
 -10 -356 -10 -356 72 -356 c 0,18,19
 163 -356 163 -356 206.5 -294.5 c 0,20,21
 250 -233 250 -233 250 -104 c 2,22,-1
 250 956 l 1,0,-1
EndSplineSet
Refer: 530 711 N 1 0 0 1 -185 0 2
EndChar

StartChar: uni01D7
Encoding: 471 471 368
Width: 979
GlyphClass: 2
Flags: W
AnchorPoint: "Anchor-2" 118 -430 basechar 0
LayerCount: 2
Fore
SplineSet
250 956 m 1,0,-1
 76 956 l 1,1,-1
 76 1063 l 1,2,-1
 434 1063 l 1,3,-1
 434 570 l 1,4,-1
 608 570 l 1,5,-1
 608 464 l 1,6,-1
 434 464 l 1,7,-1
 434 -104 l 2,8,9
 434 -268 434 -268 336.5 -361.5 c 0,10,11
 239 -455 239 -455 68 -455 c 0,12,13
 -4 -455 -4 -455 -69.5 -438.5 c 0,14,15
 -135 -422 -135 -422 -197 -389 c 1,16,-1
 -197 -170 l 1,17,-1
 -102 -170 l 1,18,19
 -95 -266 -95 -266 -52.5 -311 c 0,20,21
 -10 -356 -10 -356 72 -356 c 0,22,23
 163 -356 163 -356 206.5 -294.5 c 0,24,25
 250 -233 250 -233 250 -104 c 2,26,-1
 250 464 l 1,27,-1
 74 464 l 1,28,-1
 74 570 l 1,29,-1
 250 570 l 1,30,-1
 250 956 l 1,0,-1
EndSplineSet
Refer: 1126 -1 N 1 0 0 1 0 0 2
EndChar

StartChar: uni01D8
Encoding: 472 472 369
Width: 1051
GlyphClass: 2
Flags: W
AnchorPoint: "Anchor-2" 572 -430 basechar 0
AnchorPoint: "Anchor-1" 572 1092 basechar 0
LayerCount: 2
Fore
SplineSet
442 -195 m 2,0,-1
 512 -18 l 1,1,-1
 246 634 l 1,2,-1
 -6 634 l 1,3,-1
 -6 740 l 1,4,-1
 203 740 l 1,5,-1
 115 956 l 1,6,-1
 -6 956 l 1,7,-1
 -6 1063 l 1,8,-1
 483 1063 l 1,9,-1
 483 956 l 1,10,-1
 313 956 l 1,11,-1
 401 740 l 1,12,-1
 823 740 l 1,13,-1
 911 956 l 1,14,-1
 752 956 l 1,15,-1
 752 1063 l 1,16,-1
 1151 1063 l 1,17,-1
 1151 956 l 1,18,-1
 1032 956 l 1,19,-1
 944 740 l 1,20,-1
 1151 740 l 1,21,-1
 1151 634 l 1,22,-1
 901 634 l 1,23,-1
 545 -240 l 2,24,25
 494 -366 494 -366 434 -410 c 0,26,27
 373 -456 373 -456 262 -455 c 0,28,29
 215 -455 215 -455 165.5 -447 c 128,-1,30
 116 -439 116 -439 66 -424 c 1,31,-1
 66 -221 l 1,32,-1
 160 -221 l 1,33,34
 166 -289 166 -289 194.5 -318.5 c 128,-1,35
 223 -348 223 -348 283 -348 c 0,36,37
 338 -348 338 -348 371.5 -317.5 c 128,-1,38
 405 -287 405 -287 442 -195 c 2,0,-1
779 634 m 1,39,-1
 445 634 l 1,40,-1
 612 225 l 1,41,-1
 779 634 l 1,39,-1
EndSplineSet
EndChar

StartChar: uni01EE
Encoding: 494 494 391
Width: 1716
GlyphClass: 2
Flags: W
LayerCount: 2
Fore
SplineSet
217 926 m 1,0,-1
 989 926 l 1,1,-1
 1245 1245 l 1,2,-1
 1370 1143 l 1,3,-1
 1196 926 l 1,4,-1
 1499 926 l 1,5,-1
 1499 766 l 1,6,-1
 1059 766 l 1,7,-1
 864 518 l 1,8,-1
 1499 518 l 1,9,-1
 1499 358 l 1,10,-1
 725 358 l 1,11,-1
 467 39 l 1,12,-1
 342 141 l 1,13,-1
 516 358 l 1,14,-1
 217 358 l 1,15,-1
 217 518 l 1,16,-1
 655 518 l 1,17,-1
 850 766 l 1,18,-1
 217 766 l 1,19,-1
 217 926 l 1,0,-1
EndSplineSet
Refer: 1123 -1 N 1 0 0 1 902 373 2
EndChar

StartChar: uni01F0
Encoding: 496 496 393
Width: 1716
GlyphClass: 2
Flags: W
LayerCount: 2
Fore
SplineSet
217 926 m 1,0,-1
 989 926 l 1,1,-1
 1245 1245 l 1,2,-1
 1370 1143 l 1,3,-1
 1196 926 l 1,4,-1
 1499 926 l 1,5,-1
 1499 766 l 1,6,-1
 1059 766 l 1,7,-1
 864 518 l 1,8,-1
 1499 518 l 1,9,-1
 1499 358 l 1,10,-1
 725 358 l 1,11,-1
 467 39 l 1,12,-1
 342 141 l 1,13,-1
 516 358 l 1,14,-1
 217 358 l 1,15,-1
 217 518 l 1,16,-1
 655 518 l 1,17,-1
 850 766 l 1,18,-1
 217 766 l 1,19,-1
 217 926 l 1,0,-1
EndSplineSet
Refer: 583 785 N 1 0 0 1 918 373 2
EndChar

StartChar: Oslashacute
Encoding: 510 510 407
Width: 1716
GlyphClass: 2
Flags: W
LayerCount: 2
Fore
SplineSet
190 72 m 1,0,-1
 190 412 l 1,1,-1
 305 411 l 1,2,3
 310 241 310 241 403.5 159.5 c 0,4,5
 497 78 497 78 688 78 c 0,6,7
 866 78 866 78 959.5 148.5 c 0,8,9
 1053 219 1053 219 1053 354 c 0,10,11
 1053 462 1053 462 996.5 520 c 0,12,13
 940 578 940 578 758 633 c 2,14,-1
 561 692 l 2,15,16
 347 757 347 757 259.5 854 c 0,17,18
 172 951 172 951 172 1120 c 0,19,20
 172 1310 172 1310 307 1415 c 0,21,22
 442 1520 442 1520 686 1520 c 0,23,24
 790 1520 790 1520 914 1497.5 c 0,25,26
 1038 1475 1038 1475 1178 1432 c 1,27,-1
 1178 1114 l 1,28,-1
 1065 1114 l 1,29,30
 1048 1272 1048 1272 959.5 1342.5 c 0,31,32
 871 1413 871 1413 690 1413 c 0,33,34
 532 1413 532 1413 449.5 1348.5 c 0,35,36
 367 1284 367 1284 367 1161 c 0,37,38
 367 1054 367 1054 429 993 c 0,39,40
 491 932 491 932 692 872 c 2,41,-1
 877 817 l 2,42,43
 1080 756 1080 756 1166.5 661.5 c 0,44,45
 1253 567 1253 567 1253 408 c 0,46,47
 1253 191 1253 191 1114 81 c 0,48,49
 975 -29 975 -29 700 -29 c 0,50,51
 577 -29 577 -29 449.5 -4 c 0,52,53
 322 21 322 21 190 72 c 1,0,-1
EndSplineSet
Refer: 604 806 N 1 0 0 1 1241 0 2
EndChar

StartChar: uni0208
Encoding: 520 520 417
Width: 1311
GlyphClass: 2
Flags: W
AnchorPoint: "Anchor-2" 604 -430 basechar 0
AnchorPoint: "Anchor-1" 604 1092 basechar 0
LayerCount: 2
Fore
SplineSet
866 705 m 0,0,1
 866 841 866 841 797 917 c 128,-1,2
 728 993 728 993 604 993 c 0,3,4
 481 993 481 993 411.5 917 c 128,-1,5
 342 841 342 841 342 705 c 0,6,7
 342 568 342 568 411.5 492 c 128,-1,8
 481 416 481 416 604 416 c 0,9,10
 728 416 728 416 797 492 c 128,-1,11
 866 568 866 568 866 705 c 0,0,1
139 705 m 0,12,13
 139 885 139 885 263 988.5 c 128,-1,14
 387 1092 387 1092 604 1092 c 0,15,16
 719 1092 719 1092 808 1063 c 1,17,-1
 1251 1063 l 1,18,-1
 1251 956 l 1,19,-1
 979 956 l 1,20,21
 1069 858 1069 858 1069 705 c 0,22,23
 1069 525 1069 525 945 421.5 c 128,-1,24
 821 318 821 318 604 318 c 0,25,26
 489 318 489 318 400 347 c 1,27,28
 342 282 342 282 342 216 c 0,29,30
 342 156 342 156 604 156 c 0,31,32
 1186 156 1186 156 1186 -120 c 0,33,34
 1186 -308 1186 -308 998.5 -381.5 c 128,-1,35
 811 -455 811 -455 604 -455 c 0,36,37
 327 -455 327 -455 218 -370 c 128,-1,38
 109 -285 109 -285 109 -208 c 0,39,40
 109 -62 109 -62 271 54 c 1,41,42
 213 98 213 98 210 177 c 0,43,44
 207 263 207 263 331 376 c 1,45,46
 294 396 294 396 263 422 c 0,47,48
 139 526 139 526 139 705 c 0,12,13
339 18 m 1,49,50
 306 -38 306 -38 306 -146 c 0,51,52
 306 -231 306 -231 385 -294 c 128,-1,53
 464 -357 464 -357 604 -357 c 0,54,55
 802 -357 802 -357 919.5 -286 c 128,-1,56
 1037 -215 1037 -215 1037 -120 c 0,57,58
 1037 -18 1037 -18 604 -18 c 0,59,60
 438 -18 438 -18 339 18 c 1,49,50
EndSplineSet
EndChar

StartChar: uni020C
Encoding: 524 524 418
Width: 1157
GlyphClass: 2
Flags: W
AnchorPoint: "Anchor-2" 578 0 basechar 0
AnchorPoint: "Anchor-1" 578 1092 basechar 0
LayerCount: 2
Fore
SplineSet
1074 0 m 1,0,-1
 69 0 l 1,1,-1
 504 1063 l 1,2,-1
 639 1063 l 1,3,-1
 1074 0 l 1,0,-1
832 107 m 1,4,-1
 533 838 l 1,5,-1
 234 107 l 1,6,-1
 832 107 l 1,4,-1
EndSplineSet
EndChar

StartChar: uni020F
Encoding: 527 527 419
Width: 1123
GlyphClass: 2
Flags: W
AnchorPoint: "Anchor-2" 556 0 basechar 0
AnchorPoint: "Anchor-1" 556 1092 basechar 0
LayerCount: 2
Fore
SplineSet
758 608 m 1,0,-1
 384 184 l 1,1,-1
 867 184 l 1,2,-1
 867 290 l 1,3,-1
 973 290 l 1,4,-1
 973 0 l 1,5,-1
 83 0 l 1,6,-1
 572 551 l 1,7,-1
 115 1063 l 1,8,-1
 985 1063 l 1,9,-1
 985 850 l 1,10,-1
 879 850 l 1,11,-1
 879 956 l 1,12,-1
 446 956 l 1,13,-1
 758 608 l 1,0,-1
EndSplineSet
EndChar

StartChar: uni0222
Encoding: 546 546 420
Width: 1716
GlyphClass: 2
Flags: W
LayerCount: 2
Fore
SplineSet
859 160 m 2,0,-1
 1499 160 l 1,1,-1
 1499 0 l 1,2,-1
 859 0 l 2,3,4
 685 0 685 0 537 86 c 128,-1,5
 389 172 389 172 303 320 c 128,-1,6
 217 468 217 468 217 642 c 128,-1,7
 217 816 217 816 303 964 c 128,-1,8
 389 1112 389 1112 537 1198 c 128,-1,9
 685 1284 685 1284 859 1284 c 2,10,-1
 1499 1284 l 1,11,-1
 1499 1124 l 1,12,-1
 859 1124 l 2,13,14
 729 1124 729 1124 618 1059 c 128,-1,15
 507 994 507 994 442 883 c 128,-1,16
 377 772 377 772 377 642 c 128,-1,17
 377 512 377 512 442 401 c 128,-1,18
 507 290 507 290 618 225 c 128,-1,19
 729 160 729 160 859 160 c 2,0,-1
EndSplineSet
EndChar

StartChar: uni0223
Encoding: 547 547 421
Width: 1716
GlyphClass: 2
Flags: W
LayerCount: 2
Fore
SplineSet
857 1124 m 2,0,-1
 217 1124 l 1,1,-1
 217 1284 l 1,2,-1
 857 1284 l 2,3,4
 1031 1284 1031 1284 1179 1198 c 128,-1,5
 1327 1112 1327 1112 1413 964 c 128,-1,6
 1499 816 1499 816 1499 642 c 128,-1,7
 1499 468 1499 468 1413 320 c 128,-1,8
 1327 172 1327 172 1179 86 c 128,-1,9
 1031 0 1031 0 857 0 c 2,10,-1
 217 0 l 1,11,-1
 217 160 l 1,12,-1
 857 160 l 2,13,14
 987 160 987 160 1098 225 c 128,-1,15
 1209 290 1209 290 1274 401 c 128,-1,16
 1339 512 1339 512 1339 642 c 128,-1,17
 1339 772 1339 772 1274 883 c 128,-1,18
 1209 994 1209 994 1098 1059 c 128,-1,19
 987 1124 987 1124 857 1124 c 2,0,-1
EndSplineSet
EndChar

StartChar: uni0224
Encoding: 548 548 422
Width: 1716
GlyphClass: 2
Flags: W
LayerCount: 2
Fore
SplineSet
859 160 m 2,0,-1
 1499 160 l 1,1,-1
 1499 0 l 1,2,-1
 859 0 l 2,3,4
 809 0 809 0 761 7 c 1,5,-1
 660 -271 l 1,6,-1
 508 -215 l 1,7,-1
 605 52 l 1,8,9
 570 67 570 67 537 86 c 0,10,11
 389 172 389 172 303 320 c 128,-1,12
 217 468 217 468 217 642 c 128,-1,13
 217 816 217 816 303 964 c 128,-1,14
 389 1112 389 1112 537 1198 c 128,-1,15
 685 1284 685 1284 859 1284 c 2,16,-1
 1053 1284 l 1,17,-1
 1152 1555 l 1,18,-1
 1304 1499 l 1,19,-1
 1226 1284 l 1,20,-1
 1499 1284 l 1,21,-1
 1499 1124 l 1,22,-1
 1168 1124 l 1,23,-1
 817 162 l 1,24,25
 838 160 838 160 859 160 c 2,0,-1
660 203 m 1,26,-1
 995 1124 l 1,27,-1
 859 1124 l 2,28,29
 729 1124 729 1124 618 1059 c 128,-1,30
 507 994 507 994 442 883 c 128,-1,31
 377 772 377 772 377 642 c 128,-1,32
 377 512 377 512 442 401 c 0,33,34
 508 288 508 288 618 225 c 0,35,36
 639 213 639 213 660 203 c 1,26,-1
EndSplineSet
EndChar

StartChar: uni0225
Encoding: 549 549 423
Width: 1716
GlyphClass: 2
Flags: W
LayerCount: 2
Fore
SplineSet
940 1555 m 1,0,-1
 1092 1499 l 1,1,-1
 1008 1267 l 1,2,3
 1097 1246 1097 1246 1179 1198 c 0,4,5
 1327 1112 1327 1112 1413 964 c 128,-1,6
 1499 816 1499 816 1499 642 c 128,-1,7
 1499 468 1499 468 1413 320 c 128,-1,8
 1327 172 1327 172 1179 86 c 128,-1,9
 1031 0 1031 0 857 0 c 2,10,-1
 547 0 l 1,11,-1
 448 -271 l 1,12,-1
 296 -215 l 1,13,-1
 374 0 l 1,14,-1
 217 0 l 1,15,-1
 217 160 l 1,16,-1
 432 160 l 1,17,-1
 783 1124 l 1,18,-1
 217 1124 l 1,19,-1
 217 1284 l 1,20,-1
 841 1284 l 1,21,-1
 940 1555 l 1,0,-1
952 1115 m 1,22,-1
 605 160 l 1,23,-1
 857 160 l 2,24,25
 987 160 987 160 1098 225 c 128,-1,26
 1209 290 1209 290 1274 401 c 128,-1,27
 1339 512 1339 512 1339 642 c 128,-1,28
 1339 772 1339 772 1274 883 c 128,-1,29
 1209 994 1209 994 1098 1059 c 0,30,31
 1029 1100 1029 1100 952 1115 c 1,22,-1
EndSplineSet
EndChar

StartChar: uni0226
Encoding: 550 550 424
Width: 1716
GlyphClass: 2
Flags: W
LayerCount: 2
Fore
SplineSet
217 12 m 1,0,-1
 1499 12 l 1,1,-1
 1499 -150 l 1,2,-1
 217 -150 l 1,3,-1
 217 12 l 1,0,-1
859 310 m 2,4,-1
 1499 310 l 1,5,-1
 1499 150 l 1,6,-1
 859 150 l 2,7,8
 685 150 685 150 537 236 c 128,-1,9
 389 322 389 322 303 470 c 128,-1,10
 217 618 217 618 217 792 c 128,-1,11
 217 966 217 966 303 1114 c 128,-1,12
 389 1262 389 1262 537 1348 c 128,-1,13
 685 1434 685 1434 859 1434 c 2,14,-1
 1499 1434 l 1,15,-1
 1499 1274 l 1,16,-1
 859 1274 l 2,17,18
 729 1274 729 1274 618 1209 c 128,-1,19
 507 1144 507 1144 442 1033 c 128,-1,20
 377 922 377 922 377 792 c 128,-1,21
 377 662 377 662 442 551 c 128,-1,22
 507 440 507 440 618 375 c 128,-1,23
 729 310 729 310 859 310 c 2,4,-1
EndSplineSet
EndChar

StartChar: uni0227
Encoding: 551 551 425
Width: 1716
GlyphClass: 2
Flags: W
LayerCount: 2
Fore
SplineSet
217 12 m 1,0,-1
 1499 12 l 1,1,-1
 1499 -150 l 1,2,-1
 217 -150 l 1,3,-1
 217 12 l 1,0,-1
857 1274 m 2,4,-1
 217 1274 l 1,5,-1
 217 1434 l 1,6,-1
 857 1434 l 2,7,8
 1031 1434 1031 1434 1179 1348 c 128,-1,9
 1327 1262 1327 1262 1413 1114 c 128,-1,10
 1499 966 1499 966 1499 792 c 128,-1,11
 1499 618 1499 618 1413 470 c 128,-1,12
 1327 322 1327 322 1179 236 c 128,-1,13
 1031 150 1031 150 857 150 c 2,14,-1
 217 150 l 1,15,-1
 217 310 l 1,16,-1
 857 310 l 2,17,18
 987 310 987 310 1098 375 c 128,-1,19
 1209 440 1209 440 1274 551 c 128,-1,20
 1339 662 1339 662 1339 792 c 128,-1,21
 1339 922 1339 922 1274 1033 c 128,-1,22
 1209 1144 1209 1144 1098 1209 c 128,-1,23
 987 1274 987 1274 857 1274 c 2,4,-1
EndSplineSet
EndChar

StartChar: uni022C
Encoding: 556 556 430
Width: 1716
GlyphClass: 2
Flags: W
LayerCount: 2
Fore
SplineSet
1199 723 m 1,0,-1
 1199 561 l 1,1,-1
 711 561 l 1,2,-1
 804 324 l 1,3,-1
 793 324 l 1,4,-1
 476 637 l 1,5,-1
 476 647 l 1,6,-1
 793 960 l 1,7,-1
 804 960 l 1,8,-1
 711 723 l 1,9,-1
 1199 723 l 1,0,-1
1340 617 m 2,10,-1
 1340 1259 l 1,11,-1
 1500 1259 l 1,12,-1
 1500 617 l 2,13,14
 1500 443 1500 443 1414 295 c 128,-1,15
 1328 147 1328 147 1180 61 c 128,-1,16
 1032 -25 1032 -25 858 -25 c 128,-1,17
 684 -25 684 -25 536 61 c 128,-1,18
 388 147 388 147 302 295 c 128,-1,19
 216 443 216 443 216 617 c 2,20,-1
 216 1259 l 1,21,-1
 376 1259 l 1,22,-1
 376 617 l 2,23,24
 376 487 376 487 441 376 c 128,-1,25
 506 265 506 265 617 200 c 128,-1,26
 728 135 728 135 858 135 c 128,-1,27
 988 135 988 135 1099 200 c 128,-1,28
 1210 265 1210 265 1275 376 c 128,-1,29
 1340 487 1340 487 1340 617 c 2,10,-1
EndSplineSet
EndChar

StartChar: uni022D
Encoding: 557 557 431
Width: 1716
GlyphClass: 2
Flags: W
LayerCount: 2
Fore
SplineSet
724 642 m 0,0,1
 724 698 724 698 762.5 736.5 c 128,-1,2
 801 775 801 775 858 775 c 0,3,4
 913 775 913 775 952 736 c 128,-1,5
 991 697 991 697 991 642 c 0,6,7
 991 586 991 586 952 547.5 c 128,-1,8
 913 509 913 509 858 509 c 0,9,10
 801 509 801 509 762.5 547 c 128,-1,11
 724 585 724 585 724 642 c 0,0,1
1340 617 m 2,12,-1
 1340 1259 l 1,13,-1
 1500 1259 l 1,14,-1
 1500 617 l 2,15,16
 1500 443 1500 443 1414 295 c 128,-1,17
 1328 147 1328 147 1180 61 c 128,-1,18
 1032 -25 1032 -25 858 -25 c 128,-1,19
 684 -25 684 -25 536 61 c 128,-1,20
 388 147 388 147 302 295 c 128,-1,21
 216 443 216 443 216 617 c 2,22,-1
 216 1259 l 1,23,-1
 376 1259 l 1,24,-1
 376 617 l 2,25,26
 376 487 376 487 441 376 c 128,-1,27
 506 265 506 265 617 200 c 128,-1,28
 728 135 728 135 858 135 c 128,-1,29
 988 135 988 135 1099 200 c 128,-1,30
 1210 265 1210 265 1275 376 c 128,-1,31
 1340 487 1340 487 1340 617 c 2,12,-1
EndSplineSet
EndChar

StartChar: uni022E
Encoding: 558 558 432
Width: 1716
GlyphClass: 2
Flags: W
LayerCount: 2
Fore
SplineSet
778 262 m 1,0,-1
 778 561 l 1,1,-1
 478 561 l 1,2,-1
 478 723 l 1,3,-1
 778 723 l 1,4,-1
 778 1022 l 1,5,-1
 938 1022 l 1,6,-1
 938 723 l 1,7,-1
 1238 723 l 1,8,-1
 1238 561 l 1,9,-1
 938 561 l 1,10,-1
 938 262 l 1,11,-1
 778 262 l 1,0,-1
1340 617 m 2,12,-1
 1340 1259 l 1,13,-1
 1500 1259 l 1,14,-1
 1500 617 l 2,15,16
 1500 443 1500 443 1414 295 c 128,-1,17
 1328 147 1328 147 1180 61 c 128,-1,18
 1032 -25 1032 -25 858 -25 c 128,-1,19
 684 -25 684 -25 536 61 c 128,-1,20
 388 147 388 147 302 295 c 128,-1,21
 216 443 216 443 216 617 c 2,22,-1
 216 1259 l 1,23,-1
 376 1259 l 1,24,-1
 376 617 l 2,25,26
 376 487 376 487 441 376 c 128,-1,27
 506 265 506 265 617 200 c 128,-1,28
 728 135 728 135 858 135 c 128,-1,29
 988 135 988 135 1099 200 c 128,-1,30
 1210 265 1210 265 1275 376 c 128,-1,31
 1340 487 1340 487 1340 617 c 2,12,-1
EndSplineSet
EndChar

StartChar: uni022F
Encoding: 559 559 433
Width: 1733
GlyphClass: 2
Flags: W
LayerCount: 2
Fore
SplineSet
217 0 m 1,0,-1
 217 1284 l 1,1,-1
 1516 1284 l 1,2,-1
 1516 1124 l 1,3,-1
 379 1124 l 1,4,-1
 379 160 l 1,5,-1
 1516 160 l 1,6,-1
 1516 0 l 1,7,-1
 217 0 l 1,0,-1
EndSplineSet
EndChar

StartChar: uni0230
Encoding: 560 560 434
Width: 1733
GlyphClass: 2
Flags: W
LayerCount: 2
Fore
SplineSet
1516 1284 m 1,0,-1
 1516 0 l 1,1,-1
 217 0 l 1,2,-1
 217 160 l 1,3,-1
 1354 160 l 1,4,-1
 1354 1124 l 1,5,-1
 217 1124 l 1,6,-1
 217 1284 l 1,7,-1
 1516 1284 l 1,0,-1
EndSplineSet
EndChar

StartChar: uni0231
Encoding: 561 561 435
Width: 1733
GlyphClass: 2
Flags: W
LayerCount: 2
Fore
SplineSet
217 12 m 1,0,-1
 1499 12 l 1,1,-1
 1499 -150 l 1,2,-1
 217 -150 l 1,3,-1
 217 12 l 1,0,-1
217 150 m 1,4,-1
 217 1434 l 1,5,-1
 1516 1434 l 1,6,-1
 1516 1274 l 1,7,-1
 379 1274 l 1,8,-1
 379 310 l 1,9,-1
 1516 310 l 1,10,-1
 1516 150 l 1,11,-1
 217 150 l 1,4,-1
EndSplineSet
EndChar

StartChar: uni0232
Encoding: 562 562 436
Width: 1733
GlyphClass: 2
Flags: W
LayerCount: 2
Fore
SplineSet
217 12 m 1,0,-1
 1499 12 l 1,1,-1
 1499 -150 l 1,2,-1
 217 -150 l 1,3,-1
 217 12 l 1,0,-1
1516 1434 m 1,4,-1
 1516 150 l 1,5,-1
 217 150 l 1,6,-1
 217 310 l 1,7,-1
 1354 310 l 1,8,-1
 1354 1274 l 1,9,-1
 217 1274 l 1,10,-1
 217 1434 l 1,11,-1
 1516 1434 l 1,4,-1
EndSplineSet
EndChar

StartChar: uni0233
Encoding: 563 563 437
Width: 1716
GlyphClass: 2
Flags: W
LayerCount: 2
Fore
SplineSet
216 1300 m 1,0,-1
 1500 1300 l 1,1,-1
 1500 0 l 1,2,-1
 1340 0 l 1,3,-1
 1340 1138 l 1,4,-1
 376 1138 l 1,5,-1
 376 0 l 1,6,-1
 216 0 l 1,7,-1
 216 1300 l 1,0,-1
EndSplineSet
EndChar

StartChar: uni0234
Encoding: 564 564 438
Width: 1716
GlyphClass: 2
Flags: W
LayerCount: 2
Fore
SplineSet
1500 0 m 1,0,-1
 216 0 l 1,1,-1
 216 1300 l 1,2,-1
 376 1300 l 1,3,-1
 376 162 l 1,4,-1
 1340 162 l 1,5,-1
 1340 1300 l 1,6,-1
 1500 1300 l 1,7,-1
 1500 0 l 1,0,-1
EndSplineSet
EndChar

StartChar: uni0235
Encoding: 565 565 439
Width: 1716
GlyphClass: 2
Flags: W
LayerCount: 2
Fore
SplineSet
216 642 m 128,-1,1
 216 816 216 816 302 964 c 128,-1,2
 388 1112 388 1112 536 1198 c 128,-1,3
 684 1284 684 1284 858 1284 c 128,-1,4
 1032 1284 1032 1284 1180 1198 c 128,-1,5
 1328 1112 1328 1112 1414 964 c 128,-1,6
 1500 816 1500 816 1500 642 c 128,-1,7
 1500 468 1500 468 1414 320 c 128,-1,8
 1328 172 1328 172 1180 86 c 128,-1,9
 1032 0 1032 0 858 0 c 128,-1,10
 684 0 684 0 536 86 c 128,-1,11
 388 172 388 172 302 320 c 128,-1,0
 216 468 216 468 216 642 c 128,-1,1
383 723 m 1,12,-1
 778 723 l 1,13,-1
 778 1118 l 1,14,15
 693 1104 693 1104 617 1059 c 0,16,17
 506 994 506 994 441 883 c 0,18,19
 397 807 397 807 383 723 c 1,12,-1
938 1118 m 1,20,-1
 938 723 l 1,21,-1
 1333 723 l 1,22,23
 1319 807 1319 807 1275 883 c 0,24,25
 1210 994 1210 994 1099 1059 c 0,26,27
 1023 1104 1023 1104 938 1118 c 1,20,-1
1333 561 m 1,28,-1
 938 561 l 1,29,-1
 938 166 l 1,30,31
 1023 180 1023 180 1099 225 c 0,32,33
 1210 290 1210 290 1275 401 c 0,34,35
 1319 477 1319 477 1333 561 c 1,28,-1
778 166 m 1,36,-1
 778 561 l 1,37,-1
 383 561 l 1,38,39
 397 477 397 477 441 401 c 0,40,41
 506 290 506 290 617 225 c 0,42,43
 693 180 693 180 778 166 c 1,36,-1
EndSplineSet
EndChar

StartChar: uni0236
Encoding: 566 566 440
Width: 1716
GlyphClass: 2
Flags: W
LayerCount: 2
Fore
SplineSet
216 642 m 128,-1,1
 216 816 216 816 302 964 c 128,-1,2
 388 1112 388 1112 536 1198 c 128,-1,3
 684 1284 684 1284 858 1284 c 128,-1,4
 1032 1284 1032 1284 1180 1198 c 128,-1,5
 1328 1112 1328 1112 1414 964 c 128,-1,6
 1500 816 1500 816 1500 642 c 128,-1,7
 1500 468 1500 468 1414 320 c 128,-1,8
 1328 172 1328 172 1180 86 c 128,-1,9
 1032 0 1032 0 858 0 c 128,-1,10
 684 0 684 0 536 86 c 128,-1,11
 388 172 388 172 302 320 c 128,-1,0
 216 468 216 468 216 642 c 128,-1,1
1333 561 m 1,12,-1
 383 561 l 1,13,14
 397 477 397 477 441 401 c 0,15,16
 506 290 506 290 617 225 c 128,-1,17
 728 160 728 160 858 160 c 128,-1,18
 988 160 988 160 1099 225 c 128,-1,19
 1210 290 1210 290 1275 401 c 0,20,21
 1319 477 1319 477 1333 561 c 1,12,-1
383 723 m 1,22,-1
 1333 723 l 1,23,24
 1319 807 1319 807 1275 883 c 0,25,26
 1210 994 1210 994 1099 1059 c 128,-1,27
 988 1124 988 1124 858 1124 c 128,-1,28
 728 1124 728 1124 617 1059 c 128,-1,29
 506 994 506 994 441 883 c 0,30,31
 397 807 397 807 383 723 c 1,22,-1
EndSplineSet
EndChar

StartChar: dotlessj
Encoding: 567 567 441
Width: 1716
GlyphClass: 2
Flags: W
LayerCount: 2
Fore
SplineSet
216 642 m 128,-1,1
 216 816 216 816 302 964 c 128,-1,2
 388 1112 388 1112 536 1198 c 128,-1,3
 684 1284 684 1284 858 1284 c 128,-1,4
 1032 1284 1032 1284 1180 1198 c 128,-1,5
 1328 1112 1328 1112 1414 964 c 128,-1,6
 1500 816 1500 816 1500 642 c 128,-1,7
 1500 468 1500 468 1414 320 c 128,-1,8
 1328 172 1328 172 1180 86 c 128,-1,9
 1032 0 1032 0 858 0 c 128,-1,10
 684 0 684 0 536 86 c 128,-1,11
 388 172 388 172 302 320 c 128,-1,0
 216 468 216 468 216 642 c 128,-1,1
376 642 m 128,-1,13
 376 512 376 512 441 401 c 0,14,15
 453 381 453 381 466 363 c 1,16,-1
 743 641 l 1,17,-1
 465 921 l 1,18,19
 452 902 452 902 441 883 c 0,20,12
 376 772 376 772 376 642 c 128,-1,13
579 1035 m 1,21,-1
 858 756 l 1,22,-1
 1137 1035 l 1,23,24
 1119 1048 1119 1048 1099 1059 c 0,25,26
 988 1124 988 1124 858 1124 c 128,-1,27
 728 1124 728 1124 617 1059 c 0,28,29
 597 1048 597 1048 579 1035 c 1,21,-1
1251 921 m 1,30,-1
 971 641 l 1,31,-1
 1250 363 l 1,32,33
 1263 381 1263 381 1275 401 c 0,34,35
 1340 512 1340 512 1340 642 c 128,-1,36
 1340 772 1340 772 1275 883 c 0,37,38
 1264 903 1264 903 1251 921 c 1,30,-1
1137 250 m 1,39,-1
 858 528 l 1,40,-1
 579 250 l 1,41,42
 597 237 597 237 617 225 c 0,43,44
 728 160 728 160 858 160 c 128,-1,45
 988 160 988 160 1099 225 c 0,46,47
 1119 237 1119 237 1137 250 c 1,39,-1
EndSplineSet
EndChar

StartChar: uni0238
Encoding: 568 568 442
Width: 1716
GlyphClass: 2
Flags: W
LayerCount: 2
Fore
SplineSet
216 642 m 128,-1,1
 216 816 216 816 302 964 c 128,-1,2
 388 1112 388 1112 536 1198 c 128,-1,3
 684 1284 684 1284 858 1284 c 128,-1,4
 1032 1284 1032 1284 1180 1198 c 128,-1,5
 1328 1112 1328 1112 1414 964 c 128,-1,6
 1500 816 1500 816 1500 642 c 128,-1,7
 1500 468 1500 468 1414 320 c 128,-1,8
 1328 172 1328 172 1180 86 c 128,-1,9
 1032 0 1032 0 858 0 c 128,-1,10
 684 0 684 0 536 86 c 128,-1,11
 388 172 388 172 302 320 c 128,-1,0
 216 468 216 468 216 642 c 128,-1,1
376 642 m 128,-1,13
 376 512 376 512 441 401 c 0,14,15
 452 382 452 382 465 364 c 1,16,-1
 1136 1035 l 1,17,18
 1118 1048 1118 1048 1099 1059 c 0,19,20
 988 1124 988 1124 858 1124 c 128,-1,21
 728 1124 728 1124 617 1059 c 128,-1,22
 506 994 506 994 441 883 c 128,-1,12
 376 772 376 772 376 642 c 128,-1,13
1251 920 m 1,23,-1
 580 249 l 1,24,25
 598 236 598 236 617 225 c 0,26,27
 728 160 728 160 858 160 c 128,-1,28
 988 160 988 160 1099 225 c 128,-1,29
 1210 290 1210 290 1275 401 c 128,-1,30
 1340 512 1340 512 1340 642 c 128,-1,31
 1340 772 1340 772 1275 883 c 0,32,33
 1264 902 1264 902 1251 920 c 1,23,-1
EndSplineSet
EndChar

StartChar: uni0239
Encoding: 569 569 443
Width: 1716
GlyphClass: 2
Flags: W
LayerCount: 2
Fore
SplineSet
724 642 m 0,0,1
 724 698 724 698 762.5 736.5 c 128,-1,2
 801 775 801 775 858 775 c 0,3,4
 913 775 913 775 952 736 c 128,-1,5
 991 697 991 697 991 642 c 0,6,7
 991 586 991 586 952 547.5 c 128,-1,8
 913 509 913 509 858 509 c 0,9,10
 801 509 801 509 762.5 547 c 128,-1,11
 724 585 724 585 724 642 c 0,0,1
376 642 m 128,-1,13
 376 512 376 512 441 401 c 128,-1,14
 506 290 506 290 617 225 c 128,-1,15
 728 160 728 160 858 160 c 128,-1,16
 988 160 988 160 1099 225 c 128,-1,17
 1210 290 1210 290 1275 401 c 128,-1,18
 1340 512 1340 512 1340 642 c 128,-1,19
 1340 772 1340 772 1275 883 c 128,-1,20
 1210 994 1210 994 1099 1059 c 128,-1,21
 988 1124 988 1124 858 1124 c 128,-1,22
 728 1124 728 1124 617 1059 c 128,-1,23
 506 994 506 994 441 883 c 128,-1,12
 376 772 376 772 376 642 c 128,-1,13
216 642 m 128,-1,25
 216 816 216 816 302 964 c 128,-1,26
 388 1112 388 1112 536 1198 c 128,-1,27
 684 1284 684 1284 858 1284 c 128,-1,28
 1032 1284 1032 1284 1180 1198 c 128,-1,29
 1328 1112 1328 1112 1414 964 c 128,-1,30
 1500 816 1500 816 1500 642 c 128,-1,31
 1500 468 1500 468 1414 320 c 128,-1,32
 1328 172 1328 172 1180 86 c 128,-1,33
 1032 0 1032 0 858 0 c 128,-1,34
 684 0 684 0 536 86 c 128,-1,35
 388 172 388 172 302 320 c 128,-1,24
 216 468 216 468 216 642 c 128,-1,25
EndSplineSet
EndChar

StartChar: uni023A
Encoding: 570 570 444
Width: 1716
GlyphClass: 2
Flags: W
LayerCount: 2
Fore
SplineSet
961 746.5 m 128,-1,1
 918 790 918 790 857 790 c 128,-1,2
 796 790 796 790 754 747.5 c 128,-1,3
 712 705 712 705 712 643 c 128,-1,4
 712 581 712 581 754 539.5 c 128,-1,5
 796 498 796 498 858 498 c 128,-1,6
 920 498 920 498 962 540 c 128,-1,7
 1004 582 1004 582 1004 642 c 0,8,0
 1004 703 1004 703 961 746.5 c 128,-1,1
655.5 846.5 m 128,-1,10
 738 930 738 930 859.5 930 c 128,-1,11
 981 930 981 930 1060 845 c 1,12,13
 1143 764 1143 764 1143 643.5 c 128,-1,14
 1143 523 1143 523 1060 441 c 128,-1,15
 977 359 977 359 856 359 c 128,-1,16
 735 359 735 359 654 440 c 128,-1,17
 573 521 573 521 573 642 c 128,-1,9
 573 763 573 763 655.5 846.5 c 128,-1,10
376 642 m 128,-1,19
 376 512 376 512 441 401 c 128,-1,20
 506 290 506 290 617 225 c 128,-1,21
 728 160 728 160 858 160 c 128,-1,22
 988 160 988 160 1099 225 c 128,-1,23
 1210 290 1210 290 1275 401 c 128,-1,24
 1340 512 1340 512 1340 642 c 128,-1,25
 1340 772 1340 772 1275 883 c 128,-1,26
 1210 994 1210 994 1099 1059 c 128,-1,27
 988 1124 988 1124 858 1124 c 128,-1,28
 728 1124 728 1124 617 1059 c 128,-1,29
 506 994 506 994 441 883 c 128,-1,18
 376 772 376 772 376 642 c 128,-1,19
216 642 m 128,-1,31
 216 816 216 816 302 964 c 128,-1,32
 388 1112 388 1112 536 1198 c 128,-1,33
 684 1284 684 1284 858 1284 c 128,-1,34
 1032 1284 1032 1284 1180 1198 c 128,-1,35
 1328 1112 1328 1112 1414 964 c 128,-1,36
 1500 816 1500 816 1500 642 c 128,-1,37
 1500 468 1500 468 1414 320 c 128,-1,38
 1328 172 1328 172 1180 86 c 128,-1,39
 1032 0 1032 0 858 0 c 128,-1,40
 684 0 684 0 536 86 c 128,-1,41
 388 172 388 172 302 320 c 128,-1,30
 216 468 216 468 216 642 c 128,-1,31
EndSplineSet
EndChar

StartChar: uni023B
Encoding: 571 571 445
Width: 1716
GlyphClass: 2
Flags: W
LayerCount: 2
Fore
SplineSet
1257 774 m 1,0,-1
 946 642 l 1,1,-1
 1257 507 l 1,2,-1
 1181 389 l 1,3,-1
 913 556 l 1,4,-1
 926 225 l 1,5,-1
 790 225 l 1,6,-1
 803 556 l 1,7,-1
 535 389 l 1,8,-1
 459 507 l 1,9,-1
 770 640 l 1,10,-1
 459 774 l 1,11,-1
 535 893 l 1,12,-1
 803 726 l 1,13,-1
 790 1057 l 1,14,-1
 926 1057 l 1,15,-1
 913 726 l 1,16,-1
 1181 893 l 1,17,-1
 1257 774 l 1,0,-1
376 642 m 128,-1,19
 376 512 376 512 441 401 c 128,-1,20
 506 290 506 290 617 225 c 128,-1,21
 728 160 728 160 858 160 c 128,-1,22
 988 160 988 160 1099 225 c 128,-1,23
 1210 290 1210 290 1275 401 c 128,-1,24
 1340 512 1340 512 1340 642 c 128,-1,25
 1340 772 1340 772 1275 883 c 128,-1,26
 1210 994 1210 994 1099 1059 c 128,-1,27
 988 1124 988 1124 858 1124 c 128,-1,28
 728 1124 728 1124 617 1059 c 128,-1,29
 506 994 506 994 441 883 c 128,-1,18
 376 772 376 772 376 642 c 128,-1,19
216 642 m 128,-1,31
 216 816 216 816 302 964 c 128,-1,32
 388 1112 388 1112 536 1198 c 128,-1,33
 684 1284 684 1284 858 1284 c 128,-1,34
 1032 1284 1032 1284 1180 1198 c 128,-1,35
 1328 1112 1328 1112 1414 964 c 128,-1,36
 1500 816 1500 816 1500 642 c 128,-1,37
 1500 468 1500 468 1414 320 c 128,-1,38
 1328 172 1328 172 1180 86 c 128,-1,39
 1032 0 1032 0 858 0 c 128,-1,40
 684 0 684 0 536 86 c 128,-1,41
 388 172 388 172 302 320 c 128,-1,30
 216 468 216 468 216 642 c 128,-1,31
EndSplineSet
EndChar

StartChar: uni023C
Encoding: 572 572 446
Width: 1716
GlyphClass: 2
Flags: W
LayerCount: 2
Fore
SplineSet
517 876 m 1,0,-1
 1199 876 l 1,1,-1
 1199 716 l 1,2,-1
 517 716 l 1,3,-1
 517 876 l 1,0,-1
517 568 m 1,4,-1
 1199 568 l 1,5,-1
 1199 408 l 1,6,-1
 517 408 l 1,7,-1
 517 568 l 1,4,-1
376 642 m 128,-1,9
 376 512 376 512 441 401 c 128,-1,10
 506 290 506 290 617 225 c 128,-1,11
 728 160 728 160 858 160 c 128,-1,12
 988 160 988 160 1099 225 c 128,-1,13
 1210 290 1210 290 1275 401 c 128,-1,14
 1340 512 1340 512 1340 642 c 128,-1,15
 1340 772 1340 772 1275 883 c 128,-1,16
 1210 994 1210 994 1099 1059 c 128,-1,17
 988 1124 988 1124 858 1124 c 128,-1,18
 728 1124 728 1124 617 1059 c 128,-1,19
 506 994 506 994 441 883 c 128,-1,8
 376 772 376 772 376 642 c 128,-1,9
216 642 m 128,-1,21
 216 816 216 816 302 964 c 128,-1,22
 388 1112 388 1112 536 1198 c 128,-1,23
 684 1284 684 1284 858 1284 c 128,-1,24
 1032 1284 1032 1284 1180 1198 c 128,-1,25
 1328 1112 1328 1112 1414 964 c 128,-1,26
 1500 816 1500 816 1500 642 c 128,-1,27
 1500 468 1500 468 1414 320 c 128,-1,28
 1328 172 1328 172 1180 86 c 128,-1,29
 1032 0 1032 0 858 0 c 128,-1,30
 684 0 684 0 536 86 c 128,-1,31
 388 172 388 172 302 320 c 128,-1,20
 216 468 216 468 216 642 c 128,-1,21
EndSplineSet
EndChar

StartChar: uni023D
Encoding: 573 573 447
Width: 1716
GlyphClass: 2
Flags: W
LayerCount: 2
Fore
SplineSet
517 723 m 1,0,-1
 1199 723 l 1,1,-1
 1199 561 l 1,2,-1
 517 561 l 1,3,-1
 517 723 l 1,0,-1
376 642 m 128,-1,5
 376 512 376 512 441 401 c 128,-1,6
 506 290 506 290 617 225 c 128,-1,7
 728 160 728 160 858 160 c 128,-1,8
 988 160 988 160 1099 225 c 128,-1,9
 1210 290 1210 290 1275 401 c 128,-1,10
 1340 512 1340 512 1340 642 c 128,-1,11
 1340 772 1340 772 1275 883 c 128,-1,12
 1210 994 1210 994 1099 1059 c 128,-1,13
 988 1124 988 1124 858 1124 c 128,-1,14
 728 1124 728 1124 617 1059 c 128,-1,15
 506 994 506 994 441 883 c 128,-1,4
 376 772 376 772 376 642 c 128,-1,5
216 642 m 128,-1,17
 216 816 216 816 302 964 c 128,-1,18
 388 1112 388 1112 536 1198 c 128,-1,19
 684 1284 684 1284 858 1284 c 128,-1,20
 1032 1284 1032 1284 1180 1198 c 128,-1,21
 1328 1112 1328 1112 1414 964 c 128,-1,22
 1500 816 1500 816 1500 642 c 128,-1,23
 1500 468 1500 468 1414 320 c 128,-1,24
 1328 172 1328 172 1180 86 c 128,-1,25
 1032 0 1032 0 858 0 c 128,-1,26
 684 0 684 0 536 86 c 128,-1,27
 388 172 388 172 302 320 c 128,-1,16
 216 468 216 468 216 642 c 128,-1,17
EndSplineSet
EndChar

StartChar: uni023E
Encoding: 574 574 448
Width: 1716
GlyphClass: 2
Flags: W
LayerCount: 2
Fore
SplineSet
216 0 m 1,0,-1
 216 1284 l 1,1,-1
 1500 1284 l 1,2,-1
 1500 0 l 1,3,-1
 216 0 l 1,0,-1
778 162 m 1,4,-1
 778 561 l 1,5,-1
 378 561 l 1,6,-1
 378 162 l 1,7,-1
 778 162 l 1,4,-1
938 162 m 1,8,-1
 1338 162 l 1,9,-1
 1338 561 l 1,10,-1
 938 561 l 1,11,-1
 938 162 l 1,8,-1
778 1122 m 1,12,-1
 378 1122 l 1,13,-1
 378 723 l 1,14,-1
 778 723 l 1,15,-1
 778 1122 l 1,12,-1
938 1122 m 1,16,-1
 938 723 l 1,17,-1
 1338 723 l 1,18,-1
 1338 1122 l 1,19,-1
 938 1122 l 1,16,-1
EndSplineSet
EndChar

StartChar: uni023F
Encoding: 575 575 449
Width: 1716
GlyphClass: 2
Flags: W
LayerCount: 2
Fore
SplineSet
216 0 m 1,0,-1
 216 1284 l 1,1,-1
 1500 1284 l 1,2,-1
 1500 0 l 1,3,-1
 216 0 l 1,0,-1
378 561 m 1,4,-1
 378 162 l 1,5,-1
 1338 162 l 1,6,-1
 1338 561 l 1,7,-1
 378 561 l 1,4,-1
378 723 m 1,8,-1
 1338 723 l 1,9,-1
 1338 1122 l 1,10,-1
 378 1122 l 1,11,-1
 378 723 l 1,8,-1
EndSplineSet
EndChar

StartChar: uni0240
Encoding: 576 576 450
Width: 1716
GlyphClass: 2
Flags: W
LayerCount: 2
Fore
SplineSet
216 0 m 1,0,-1
 216 1284 l 1,1,-1
 1500 1284 l 1,2,-1
 1500 0 l 1,3,-1
 216 0 l 1,0,-1
491 162 m 1,4,-1
 1225 162 l 1,5,-1
 858 528 l 1,6,-1
 491 162 l 1,4,-1
378 1008 m 1,7,-1
 378 275 l 1,8,-1
 743 641 l 1,9,-1
 378 1008 l 1,7,-1
1224 1122 m 1,10,-1
 492 1122 l 1,11,-1
 858 756 l 1,12,-1
 1224 1122 l 1,10,-1
1338 276 m 1,13,-1
 1338 1008 l 1,14,-1
 971 641 l 1,15,-1
 1338 276 l 1,13,-1
EndSplineSet
EndChar

StartChar: uni0241
Encoding: 577 577 451
Width: 1716
GlyphClass: 2
Flags: W
LayerCount: 2
Fore
SplineSet
216 0 m 1,0,-1
 216 1284 l 1,1,-1
 1500 1284 l 1,2,-1
 1500 0 l 1,3,-1
 216 0 l 1,0,-1
724 642 m 0,4,5
 724 698 724 698 762.5 736.5 c 128,-1,6
 801 775 801 775 858 775 c 0,7,8
 913 775 913 775 952 736 c 128,-1,9
 991 697 991 697 991 642 c 0,10,11
 991 586 991 586 952 547.5 c 128,-1,12
 913 509 913 509 858 509 c 0,13,14
 801 509 801 509 762.5 547 c 128,-1,15
 724 585 724 585 724 642 c 0,4,5
1338 162 m 1,16,-1
 1338 1122 l 1,17,-1
 378 1122 l 1,18,-1
 378 162 l 1,19,-1
 1338 162 l 1,16,-1
EndSplineSet
EndChar

StartChar: uni0242
Encoding: 578 578 452
Width: 1761
GlyphClass: 2
Flags: W
LayerCount: 2
Fore
SplineSet
217 1493 m 1,0,-1
 379 1493 l 1,1,-1
 379 828 l 1,2,-1
 1544 828 l 1,3,-1
 1544 666 l 1,4,-1
 379 666 l 1,5,-1
 379 0 l 1,6,-1
 217 0 l 1,7,-1
 217 1493 l 1,0,-1
EndSplineSet
EndChar

StartChar: uni0243
Encoding: 579 579 453
Width: 1761
GlyphClass: 2
Flags: W
LayerCount: 2
Fore
SplineSet
1544 1493 m 1,0,-1
 1544 0 l 1,1,-1
 1382 0 l 1,2,-1
 1382 666 l 1,3,-1
 217 666 l 1,4,-1
 217 828 l 1,5,-1
 1382 828 l 1,6,-1
 1382 1493 l 1,7,-1
 1544 1493 l 1,0,-1
EndSplineSet
EndChar

StartChar: uni0244
Encoding: 580 580 454
Width: 1926
GlyphClass: 2
Flags: W
LayerCount: 2
Fore
SplineSet
217 1410 m 1,0,-1
 1709 1410 l 1,1,-1
 1709 1248 l 1,2,-1
 1044 1248 l 1,3,-1
 1044 0 l 1,4,-1
 882 0 l 1,5,-1
 882 1248 l 1,6,-1
 217 1248 l 1,7,-1
 217 1410 l 1,0,-1
EndSplineSet
EndChar

StartChar: uni0245
Encoding: 581 581 455
Width: 1926
GlyphClass: 2
Flags: W
LayerCount: 2
Fore
SplineSet
217 0 m 1,0,-1
 217 162 l 1,1,-1
 882 162 l 1,2,-1
 882 1410 l 1,3,-1
 1044 1410 l 1,4,-1
 1044 162 l 1,5,-1
 1709 162 l 1,6,-1
 1709 0 l 1,7,-1
 217 0 l 1,0,-1
EndSplineSet
EndChar

StartChar: uni0246
Encoding: 582 582 456
Width: 1161
GlyphClass: 2
Flags: W
LayerCount: 2
Fore
SplineSet
217 1493 m 1,0,-1
 379 1493 l 1,1,-1
 379 828 l 1,2,-1
 944 828 l 1,3,-1
 944 666 l 1,4,-1
 379 666 l 1,5,-1
 379 0 l 1,6,-1
 217 0 l 1,7,-1
 217 1493 l 1,0,-1
EndSplineSet
EndChar

StartChar: uni0247
Encoding: 583 583 457
Width: 1161
GlyphClass: 2
Flags: W
LayerCount: 2
Fore
SplineSet
217 1493 m 1,0,-1
 379 1493 l 1,1,-1
 379 1028 l 1,2,-1
 944 1028 l 1,3,-1
 944 866 l 1,4,-1
 379 866 l 1,5,-1
 379 628 l 1,6,-1
 944 628 l 1,7,-1
 944 466 l 1,8,-1
 379 466 l 1,9,-1
 379 0 l 1,10,-1
 217 0 l 1,11,-1
 217 1493 l 1,0,-1
EndSplineSet
EndChar

StartChar: uni0248
Encoding: 584 584 458
Width: 1761
GlyphClass: 2
Flags: W
LayerCount: 2
Fore
SplineSet
217 1493 m 1,0,-1
 379 1493 l 1,1,-1
 379 1003 l 1,2,-1
 1544 1003 l 1,3,-1
 1544 841 l 1,4,-1
 379 841 l 1,5,-1
 379 653 l 1,6,-1
 1544 653 l 1,7,-1
 1544 491 l 1,8,-1
 379 491 l 1,9,-1
 379 0 l 1,10,-1
 217 0 l 1,11,-1
 217 1493 l 1,0,-1
EndSplineSet
EndChar

StartChar: uni0249
Encoding: 585 585 459
Width: 1761
GlyphClass: 2
Flags: W
LayerCount: 2
Fore
SplineSet
379 1493 m 1,0,-1
 379 0 l 1,1,-1
 217 0 l 1,2,-1
 217 1493 l 1,3,-1
 379 1493 l 1,0,-1
567 1493 m 1,4,-1
 729 1493 l 1,5,-1
 729 828 l 1,6,-1
 1544 828 l 1,7,-1
 1544 666 l 1,8,-1
 729 666 l 1,9,-1
 729 0 l 1,10,-1
 567 0 l 1,11,-1
 567 1493 l 1,4,-1
EndSplineSet
Substitution2: "Single Substitution lookup 9 subtable" uni025F
EndChar

StartChar: uni024A
Encoding: 586 586 460
Width: 1564
GlyphClass: 2
Flags: W
LayerCount: 2
Fore
SplineSet
146 206 m 1,0,-1
 306 206 l 1,1,-1
 306 -304 l 1,2,-1
 1258 -304 l 1,3,-1
 1258 206 l 1,4,-1
 1418 206 l 1,5,-1
 1418 -466 l 1,6,-1
 146 -466 l 1,7,-1
 146 206 l 1,0,-1
EndSplineSet
EndChar

StartChar: uni024B
Encoding: 587 587 461
Width: 1716
GlyphClass: 2
Flags: W
LayerCount: 2
Fore
SplineSet
446 682 m 128,-1,1
 446 598 446 598 478.5 521.5 c 128,-1,2
 511 445 511 445 566 390 c 128,-1,3
 621 335 621 335 697.5 302.5 c 128,-1,4
 774 270 774 270 858 270 c 128,-1,5
 942 270 942 270 1018.5 302.5 c 128,-1,6
 1095 335 1095 335 1150 390 c 128,-1,7
 1205 445 1205 445 1237.5 521.5 c 128,-1,8
 1270 598 1270 598 1270 682 c 128,-1,9
 1270 766 1270 766 1237.5 842.5 c 128,-1,10
 1205 919 1205 919 1150 974 c 128,-1,11
 1095 1029 1095 1029 1018.5 1061.5 c 128,-1,12
 942 1094 942 1094 858 1094 c 1,13,-1
 1051 757 l 1,14,-1
 1040 757 l 1,15,-1
 723 1071 l 1,16,17
 710 1067 710 1067 698 1062 c 0,18,19
 621 1029 621 1029 566 974 c 128,-1,20
 511 919 511 919 478.5 842.5 c 128,-1,0
 446 766 446 766 446 682 c 128,-1,1
1432 682 m 128,-1,22
 1432 565 1432 565 1386.5 459 c 128,-1,23
 1341 353 1341 353 1264 276 c 128,-1,24
 1187 199 1187 199 1081 153.5 c 128,-1,25
 975 108 975 108 858 108 c 128,-1,26
 741 108 741 108 635 153.5 c 128,-1,27
 529 199 529 199 452 276 c 128,-1,28
 375 353 375 353 329.5 459 c 128,-1,29
 284 565 284 565 284 682 c 128,-1,30
 284 799 284 799 329.5 905 c 128,-1,31
 375 1011 375 1011 452 1088 c 128,-1,32
 529 1165 529 1165 635 1210 c 0,33,34
 651 1217 651 1217 666 1223 c 1,35,-1
 1040 1593 l 1,36,-1
 1051 1593 l 1,37,-1
 858 1256 l 1,38,39
 975 1256 975 1256 1081 1210.5 c 128,-1,40
 1187 1165 1187 1165 1264 1088 c 128,-1,41
 1341 1011 1341 1011 1386.5 905 c 128,-1,21
 1432 799 1432 799 1432 682 c 128,-1,22
EndSplineSet
EndChar

StartChar: uni024C
Encoding: 588 588 462
Width: 1716
GlyphClass: 2
Flags: W
LayerCount: 2
Fore
SplineSet
446 682 m 128,-1,1
 446 598 446 598 478.5 521.5 c 128,-1,2
 511 445 511 445 566 390 c 128,-1,3
 621 335 621 335 697.5 302.5 c 128,-1,4
 774 270 774 270 858 270 c 128,-1,5
 942 270 942 270 1018.5 302.5 c 128,-1,6
 1095 335 1095 335 1150 390 c 128,-1,7
 1205 445 1205 445 1237.5 521.5 c 128,-1,8
 1270 598 1270 598 1270 682 c 128,-1,9
 1270 766 1270 766 1237.5 842.5 c 128,-1,10
 1205 919 1205 919 1150 974 c 128,-1,11
 1095 1029 1095 1029 1018 1062 c 0,12,13
 1006 1067 1006 1067 993 1071 c 1,14,-1
 676 757 l 1,15,-1
 665 757 l 1,16,-1
 858 1094 l 1,17,18
 774 1094 774 1094 697.5 1061.5 c 128,-1,19
 621 1029 621 1029 566 974 c 128,-1,20
 511 919 511 919 478.5 842.5 c 128,-1,0
 446 766 446 766 446 682 c 128,-1,1
1432 682 m 128,-1,22
 1432 565 1432 565 1386.5 459 c 128,-1,23
 1341 353 1341 353 1264 276 c 128,-1,24
 1187 199 1187 199 1081 153.5 c 128,-1,25
 975 108 975 108 858 108 c 128,-1,26
 741 108 741 108 635 153.5 c 128,-1,27
 529 199 529 199 452 276 c 128,-1,28
 375 353 375 353 329.5 459 c 128,-1,29
 284 565 284 565 284 682 c 128,-1,30
 284 799 284 799 329.5 905 c 128,-1,31
 375 1011 375 1011 452 1088 c 128,-1,32
 529 1165 529 1165 635 1210.5 c 128,-1,33
 741 1256 741 1256 858 1256 c 1,34,-1
 665 1593 l 1,35,-1
 676 1593 l 1,36,-1
 1050 1223 l 1,37,38
 1065 1217 1065 1217 1081 1210 c 0,39,40
 1187 1165 1187 1165 1264 1088 c 128,-1,41
 1341 1011 1341 1011 1386.5 905 c 128,-1,21
 1432 799 1432 799 1432 682 c 128,-1,22
EndSplineSet
EndChar

StartChar: uni024D
Encoding: 589 589 463
Width: 1716
GlyphClass: 2
Flags: W
LayerCount: 2
Fore
SplineSet
239 837 m 1,0,1
 239 982 239 982 341.5 1084.5 c 128,-1,2
 444 1187 444 1187 589 1187 c 128,-1,3
 734 1187 734 1187 836 1084 c 0,4,5
 848 1073 848 1073 858 1061 c 1,6,7
 868 1073 868 1073 880 1084 c 0,8,9
 982 1187 982 1187 1127 1187 c 128,-1,10
 1272 1187 1272 1187 1374.5 1084.5 c 128,-1,11
 1477 982 1477 982 1477 837 c 1,12,-1
 1315 837 l 1,13,14
 1315 915 1315 915 1260 970 c 128,-1,15
 1205 1025 1205 1025 1127 1025 c 128,-1,16
 1049 1025 1049 1025 994 970 c 128,-1,17
 939 915 939 915 939 837 c 2,18,-1
 939 137 l 1,19,-1
 777 137 l 1,20,-1
 777 837 l 2,21,22
 777 915 777 915 722 970 c 128,-1,23
 667 1025 667 1025 589 1025 c 128,-1,24
 511 1025 511 1025 456 970 c 128,-1,25
 401 915 401 915 401 837 c 1,26,-1
 239 837 l 1,0,1
EndSplineSet
EndChar

StartChar: uni024E
Encoding: 590 590 464
Width: 1716
GlyphClass: 2
Flags: W
LayerCount: 2
Fore
SplineSet
1477 470 m 1,0,1
 1477 325 1477 325 1374.5 222.5 c 128,-1,2
 1272 120 1272 120 1127 120 c 128,-1,3
 982 120 982 120 880 223 c 0,4,5
 868 234 868 234 858 246 c 1,6,7
 848 234 848 234 836 223 c 0,8,9
 734 120 734 120 589 120 c 128,-1,10
 444 120 444 120 341.5 222.5 c 128,-1,11
 239 325 239 325 239 470 c 1,12,-1
 401 470 l 1,13,14
 401 392 401 392 456 337 c 128,-1,15
 511 282 511 282 589 282 c 128,-1,16
 667 282 667 282 722 337 c 128,-1,17
 777 392 777 392 777 470 c 2,18,-1
 777 1170 l 1,19,-1
 939 1170 l 1,20,-1
 939 470 l 2,21,22
 939 392 939 392 994 337 c 128,-1,23
 1049 282 1049 282 1127 282 c 128,-1,24
 1205 282 1205 282 1260 337 c 128,-1,25
 1315 392 1315 392 1315 470 c 1,26,-1
 1477 470 l 1,0,1
EndSplineSet
EndChar

StartChar: uni0256
Encoding: 598 598 472
Width: 799
GlyphClass: 2
Flags: W
LayerCount: 2
Fore
SplineSet
176 1556 m 1,0,-1
 641 1556 l 1,1,-1
 641 1450 l 1,2,-1
 367 1450 l 1,3,-1
 367 826 l 1,4,-1
 176 826 l 1,5,-1
 176 1556 l 1,0,-1
EndSplineSet
EndChar

StartChar: uni0257
Encoding: 599 599 473
Width: 799
GlyphClass: 2
Flags: W
LayerCount: 2
Fore
SplineSet
432 1450 m 1,0,-1
 158 1450 l 1,1,-1
 158 1556 l 1,2,-1
 623 1556 l 1,3,-1
 623 826 l 1,4,-1
 432 826 l 1,5,-1
 432 1450 l 1,0,-1
EndSplineSet
EndChar

StartChar: uni0258
Encoding: 600 600 474
Width: 799
GlyphClass: 2
Flags: W
LayerCount: 2
Fore
SplineSet
367 -164 m 1,0,-1
 641 -164 l 1,1,-1
 641 -270 l 1,2,-1
 176 -270 l 1,3,-1
 176 460 l 1,4,-1
 367 460 l 1,5,-1
 367 -164 l 1,0,-1
EndSplineSet
EndChar

StartChar: uni0259
Encoding: 601 601 475
Width: 799
GlyphClass: 2
Flags: W
LayerCount: 2
Fore
SplineSet
623 -270 m 1,0,-1
 158 -270 l 1,1,-1
 158 -164 l 1,2,-1
 432 -164 l 1,3,-1
 432 460 l 1,4,-1
 623 460 l 1,5,-1
 623 -270 l 1,0,-1
EndSplineSet
EndChar

StartChar: uni02BB
Encoding: 699 699 518
Width: 651
GlyphClass: 2
Flags: W
LayerCount: 2
Fore
SplineSet
549 1440 m 1,0,1
 472 1376 472 1376 437.5 1291 c 128,-1,2
 403 1206 403 1206 403 1077 c 2,3,-1
 403 1014 l 1,4,-1
 209 1014 l 1,5,6
 210 1188 210 1188 272.5 1308.5 c 128,-1,7
 335 1429 335 1429 471 1520 c 1,8,-1
 549 1440 l 1,0,1
EndSplineSet
EndChar

StartChar: uni02BC
Encoding: 700 700 519
Width: 1716
GlyphClass: 2
Flags: W
LayerCount: 2
Fore
SplineSet
209 1094 m 1,0,1
 286 1158 286 1158 320.5 1243 c 128,-1,2
 355 1328 355 1328 355 1457 c 2,3,-1
 355 1520 l 1,4,-1
 549 1520 l 1,5,6
 548 1346 548 1346 485.5 1225.5 c 128,-1,7
 423 1105 423 1105 287 1014 c 1,8,-1
 209 1094 l 1,0,1
EndSplineSet
EndChar

StartChar: uni02BD
Encoding: 701 701 520
Width: 651
GlyphClass: 2
Flags: W
LayerCount: 2
Fore
SplineSet
549 1094 m 1,0,1
 549 1094 549 1094 471 1014 c 1,2,3
 335 1105 335 1105 272.5 1225.5 c 128,-1,4
 210 1346 210 1346 209 1520 c 1,5,6
 209 1520 209 1520 403 1520 c 1,7,-1
 403 1457 l 2,8,9
 403 1328 403 1328 437.5 1243 c 128,-1,10
 472 1158 472 1158 549 1094 c 1,0,1
EndSplineSet
EndChar

StartChar: uni02BE
Encoding: 702 702 521
Width: 1716
GlyphClass: 2
Flags: W
LayerCount: 2
Fore
SplineSet
117 1007 m 1,0,1
 117 1068 117 1068 117 1130 c 1,2,3
 181 1130 181 1130 225 1174 c 128,-1,4
 269 1218 269 1218 269 1282 c 0,5,6
 269 1345 269 1345 225 1389 c 128,-1,7
 181 1433 181 1433 117 1433 c 1,8,9
 117 1494 117 1494 117 1556 c 1,10,11
 232 1556 232 1556 312 1476 c 0,12,13
 391 1397 391 1397 391 1282 c 128,-1,14
 391 1167 391 1167 312 1087 c 0,15,16
 232 1007 232 1007 117 1007 c 1,0,1
EndSplineSet
EndChar

StartChar: uni02BF
Encoding: 703 703 522
Width: 629
GlyphClass: 2
Flags: W
LayerCount: 2
Fore
SplineSet
391 1007 m 1,0,1
 276 1007 276 1007 196 1087 c 0,2,3
 117 1167 117 1167 117 1282 c 128,-1,4
 117 1397 117 1397 196 1476 c 0,5,6
 276 1556 276 1556 391 1556 c 1,7,8
 391 1494 391 1494 391 1433 c 1,9,10
 327 1433 327 1433 283 1389 c 128,-1,11
 239 1345 239 1345 239 1282 c 0,12,13
 239 1218 239 1218 283 1174 c 128,-1,14
 327 1130 327 1130 391 1130 c 1,15,16
 391 1068 391 1068 391 1007 c 1,0,1
EndSplineSet
EndChar

StartChar: uni02C0
Encoding: 704 704 523
Width: 1716
GlyphClass: 2
Flags: W
LayerCount: 2
Fore
SplineSet
160 769 m 1,0,-1
 160 1176 l 1,1,-1
 236 1176 l 2,2,3
 294 1176 294 1176 323 1210 c 0,4,5
 350 1244 350 1244 350 1353 c 0,6,7
 350 1459 350 1459 323 1493 c 0,8,9
 294 1527 294 1527 236 1527 c 0,10,11
 182 1527 182 1527 155 1502 c 0,12,13
 127 1477 127 1477 123 1423 c 1,14,-1
 60 1423 l 1,15,-1
 60 1545 l 1,16,17
 101 1564 101 1564 144 1573 c 0,18,19
 186 1582 186 1582 233 1582 c 0,20,21
 344 1582 344 1582 407 1530 c 0,22,23
 471 1478 471 1478 471 1353 c 0,24,25
 471 1225 471 1225 407 1172 c 0,26,27
 354 1129 354 1129 280 1125 c 1,28,-1
 280 769 l 1,29,-1
 393 769 l 1,30,-1
 393 710 l 1,31,-1
 280 710 l 1,32,-1
 160 710 l 1,33,-1
 46 710 l 1,34,-1
 46 769 l 1,35,-1
 160 769 l 1,0,-1
EndSplineSet
EndChar

StartChar: uni02C1
Encoding: 705 705 524
Width: 575
GlyphClass: 2
Flags: W
LayerCount: 2
Fore
SplineSet
357 710 m 1,0,-1
 237 710 l 1,1,-1
 124 710 l 1,2,-1
 124 769 l 1,3,-1
 237 769 l 1,4,-1
 237 1125 l 1,5,6
 163 1129 163 1129 110 1172 c 0,7,8
 46 1225 46 1225 46 1353 c 0,9,10
 46 1478 46 1478 110 1530 c 0,11,12
 173 1582 173 1582 284 1582 c 0,13,14
 331 1582 331 1582 374 1573 c 0,15,16
 416 1564 416 1564 456 1545 c 1,17,-1
 456 1423 l 1,18,-1
 394 1423 l 1,19,20
 390 1477 390 1477 362 1502 c 0,21,22
 335 1527 335 1527 281 1527 c 0,23,24
 222 1527 222 1527 194 1493 c 128,-1,25
 166 1459 166 1459 166 1353 c 0,26,27
 166 1244 166 1244 194 1210 c 128,-1,28
 222 1176 222 1176 281 1176 c 2,29,-1
 357 1176 l 1,30,-1
 357 769 l 1,31,-1
 471 769 l 1,32,-1
 471 710 l 1,33,-1
 357 710 l 1,0,-1
EndSplineSet
EndChar

StartChar: uni02C2
Encoding: 706 706 525
Width: 1716
GlyphClass: 2
Flags: W
LayerCount: 2
Fore
SplineSet
267 1467 m 1,0,-1
 757 1712 l 1,1,-1
 757 1573 l 1,2,-1
 398 1393 l 1,3,-1
 757 1213 l 1,4,-1
 757 1074 l 1,5,-1
 267 1319 l 1,6,-1
 267 1467 l 1,0,-1
EndSplineSet
EndChar

StartChar: uni02C3
Encoding: 707 707 526
Width: 1233
GlyphClass: 2
Flags: W
LayerCount: 2
Fore
SplineSet
757 1319 m 1,0,-1
 267 1074 l 1,1,-1
 267 1213 l 1,2,-1
 626 1393 l 1,3,-1
 267 1573 l 1,4,-1
 267 1712 l 1,5,-1
 757 1467 l 1,6,-1
 757 1319 l 1,0,-1
EndSplineSet
EndChar

StartChar: uni02C4
Encoding: 708 708 527
Width: 1716
GlyphClass: 2
Flags: W
LayerCount: 2
Fore
SplineSet
428 1638 m 1,0,-1
 596 1638 l 1,1,-1
 831 1148 l 1,2,-1
 715 1148 l 1,3,-1
 512 1507 l 1,4,-1
 309 1148 l 1,5,-1
 193 1148 l 1,6,-1
 428 1638 l 1,0,-1
EndSplineSet
EndChar

StartChar: uni02C5
Encoding: 709 709 528
Width: 1233
GlyphClass: 2
Flags: W
LayerCount: 2
Fore
SplineSet
596 1148 m 1,0,-1
 428 1148 l 1,1,-1
 193 1638 l 1,2,-1
 309 1638 l 1,3,-1
 512 1279 l 1,4,-1
 715 1638 l 1,5,-1
 831 1638 l 1,6,-1
 596 1148 l 1,0,-1
EndSplineSet
EndChar

StartChar: circumflex
Encoding: 710 710 529
Width: 1716
GlyphClass: 2
Flags: W
LayerCount: 2
Fore
SplineSet
428 1638 m 1,0,-1
 596 1638 l 1,1,-1
 831 1262 l 1,2,-1
 715 1262 l 1,3,-1
 512 1522 l 1,4,-1
 309 1262 l 1,5,-1
 193 1262 l 1,6,-1
 428 1638 l 1,0,-1
EndSplineSet
EndChar

StartChar: caron
Encoding: 711 711 530
Width: 1233
GlyphClass: 2
Flags: W
LayerCount: 2
Fore
SplineSet
428 1262 m 1,0,-1
 193 1638 l 1,1,-1
 309 1638 l 1,2,-1
 512 1378 l 1,3,-1
 715 1638 l 1,4,-1
 831 1638 l 1,5,-1
 596 1262 l 1,6,-1
 428 1262 l 1,0,-1
EndSplineSet
EndChar

StartChar: uni02C8
Encoding: 712 712 531
Width: 1716
GlyphClass: 2
Flags: W
LayerCount: 2
Fore
SplineSet
212 1077 m 1,0,-1
 212 1555 l 1,1,-1
 360 1555 l 1,2,-1
 360 1077 l 1,3,-1
 212 1077 l 1,0,-1
EndSplineSet
EndChar

StartChar: uni02C9
Encoding: 713 713 532
Width: 1233
GlyphClass: 2
Flags: W
LayerCount: 2
Fore
SplineSet
213 1526 m 1,0,-1
 811 1526 l 1,1,-1
 811 1378 l 1,2,-1
 213 1378 l 1,3,-1
 213 1526 l 1,0,-1
EndSplineSet
EndChar

StartChar: uni02CA
Encoding: 714 714 533
Width: 1716
GlyphClass: 2
Flags: W
LayerCount: 2
Fore
SplineSet
651 1638 m 1,0,-1
 850 1638 l 1,1,-1
 510 1262 l 1,2,-1
 393 1262 l 1,3,-1
 651 1638 l 1,0,-1
EndSplineSet
EndChar

StartChar: uni02CC
Encoding: 716 716 535
Width: 1716
GlyphClass: 2
Flags: W
LayerCount: 2
Fore
SplineSet
212 -253 m 1,0,-1
 212 225 l 1,1,-1
 360 225 l 1,2,-1
 360 -253 l 1,3,-1
 212 -253 l 1,0,-1
EndSplineSet
EndChar

StartChar: uni02CD
Encoding: 717 717 536
Width: 1233
GlyphClass: 2
Flags: W
LayerCount: 2
Fore
SplineSet
213 -172 m 1,0,-1
 811 -172 l 1,1,-1
 811 -320 l 1,2,-1
 213 -320 l 1,3,-1
 213 -172 l 1,0,-1
EndSplineSet
EndChar

StartChar: uni02D0
Encoding: 720 720 537
Width: 1716
GlyphClass: 2
Flags: W
LayerCount: 2
Fore
SplineSet
474 0 m 1,0,-1
 216 0 l 1,1,-1
 315 268 l 1,2,-1
 376 268 l 1,3,-1
 474 0 l 1,0,-1
216 888 m 1,4,-1
 474 888 l 1,5,-1
 375 620 l 1,6,-1
 314 620 l 1,7,-1
 216 888 l 1,4,-1
EndSplineSet
EndChar

StartChar: uni02D1
Encoding: 721 721 538
Width: 1319
GlyphClass: 2
Flags: W
LayerCount: 2
Fore
SplineSet
216 888 m 1,0,-1
 474 888 l 1,1,-1
 375 620 l 1,2,-1
 314 620 l 1,3,-1
 216 888 l 1,0,-1
EndSplineSet
EndChar

StartChar: uni02D6
Encoding: 726 726 541
Width: 1716
GlyphClass: 2
Flags: W
LayerCount: 2
Fore
SplineSet
255 627 m 1,0,-1
 255 792 l 1,1,-1
 403 792 l 1,2,-1
 403 627 l 1,3,-1
 568 627 l 1,4,-1
 568 479 l 1,5,-1
 403 479 l 1,6,-1
 403 314 l 1,7,-1
 255 314 l 1,8,-1
 255 479 l 1,9,-1
 90 479 l 1,10,-1
 90 627 l 1,11,-1
 255 627 l 1,0,-1
EndSplineSet
EndChar

StartChar: uni02D7
Encoding: 727 727 542
Width: 1319
GlyphClass: 2
Flags: W
LayerCount: 2
Fore
SplineSet
568 627 m 1,0,-1
 568 479 l 1,1,-1
 90 479 l 1,2,-1
 90 627 l 1,3,-1
 568 627 l 1,0,-1
EndSplineSet
EndChar

StartChar: breve
Encoding: 728 728 543
Width: 1716
GlyphClass: 2
Flags: W
LayerCount: 2
Fore
SplineSet
199 1608 m 1,0,-1
 295 1608 l 1,1,2
 308 1529 308 1529 360 1493.5 c 128,-1,3
 412 1458 412 1458 512 1458 c 256,4,5
 612 1458 612 1458 664 1493.5 c 128,-1,6
 716 1529 716 1529 729 1608 c 1,7,-1
 825 1608 l 1,8,9
 815 1465 815 1465 736 1393 c 128,-1,10
 657 1321 657 1321 512 1321 c 256,11,12
 367 1321 367 1321 288 1393 c 128,-1,13
 209 1465 209 1465 199 1608 c 1,0,-1
EndSplineSet
EndChar

StartChar: dotaccent
Encoding: 729 729 544
Width: 1319
GlyphClass: 2
Flags: W
LayerCount: 2
Fore
SplineSet
512 1569 m 256,0,1
 560 1569 560 1569 594.5 1534.5 c 128,-1,2
 629 1500 629 1500 629 1452 c 0,3,4
 629 1401 629 1401 596 1368 c 128,-1,5
 563 1335 563 1335 512 1335 c 256,6,7
 461 1335 461 1335 428 1368 c 128,-1,8
 395 1401 395 1401 395 1452 c 0,9,10
 395 1500 395 1500 429.5 1534.5 c 128,-1,11
 464 1569 464 1569 512 1569 c 256,0,1
EndSplineSet
EndChar

StartChar: ring
Encoding: 730 730 545
Width: 1716
GlyphClass: 2
Flags: W
LayerCount: 2
Fore
SplineSet
786 1524 m 256,0,1
 786 1409 786 1409 706.5 1329 c 128,-1,2
 627 1249 627 1249 512 1249 c 256,3,4
 397 1249 397 1249 317.5 1329 c 128,-1,5
 238 1409 238 1409 238 1524 c 256,6,7
 238 1639 238 1639 317.5 1718.5 c 128,-1,8
 397 1798 397 1798 512 1798 c 256,9,10
 627 1798 627 1798 706.5 1718.5 c 128,-1,11
 786 1639 786 1639 786 1524 c 256,0,1
664 1524 m 0,12,13
 664 1587 664 1587 620 1631 c 128,-1,14
 576 1675 576 1675 512 1675 c 0,15,16
 447 1675 447 1675 403.5 1631.5 c 128,-1,17
 360 1588 360 1588 360 1524 c 0,18,19
 360 1459 360 1459 403.5 1415.5 c 128,-1,20
 447 1372 447 1372 512 1372 c 0,21,22
 576 1372 576 1372 620 1416 c 128,-1,23
 664 1460 664 1460 664 1524 c 0,12,13
EndSplineSet
EndChar

StartChar: ogonek
Encoding: 731 731 546
Width: 1319
GlyphClass: 2
Flags: W
LayerCount: 2
Fore
SplineSet
461 0 m 1,0,-1
 555 0 l 1,1,-1
 554 -2 l 1,2,3
 467 -125 467 -125 467 -172 c 0,4,5
 467 -218 467 -218 500.5 -246 c 128,-1,6
 534 -274 534 -274 590 -274 c 0,7,8
 617 -274 617 -274 646 -267.5 c 128,-1,9
 675 -261 675 -261 705 -248 c 1,10,-1
 704 -375 l 1,11,12
 668 -384 668 -384 634.5 -388.5 c 128,-1,13
 601 -393 601 -393 569 -393 c 0,14,15
 456 -393 456 -393 394 -348.5 c 128,-1,16
 332 -304 332 -304 332 -223 c 0,17,18
 332 -174 332 -174 362 -121.5 c 128,-1,19
 392 -69 392 -69 461 0 c 1,0,-1
EndSplineSet
EndChar

StartChar: tilde
Encoding: 732 732 547
Width: 1157
GlyphClass: 2
Flags: W
LayerCount: 2
Fore
SplineSet
508 1370 m 2,0,-1
 451 1425 l 2,1,2
 425 1449 425 1449 408.5 1456.5 c 128,-1,3
 392 1464 392 1464 373 1464 c 0,4,5
 331 1464 331 1464 307 1424.5 c 128,-1,6
 283 1385 283 1385 278 1309 c 1,7,-1
 182 1309 l 1,8,9
 184 1444 184 1444 235 1517.5 c 128,-1,10
 286 1591 286 1591 377 1591 c 0,11,12
 415 1591 415 1591 447 1577 c 128,-1,13
 479 1563 479 1563 516 1530 c 2,14,-1
 573 1475 l 2,15,16
 596 1452 596 1452 613 1444 c 128,-1,17
 630 1436 630 1436 651 1436 c 0,18,19
 694 1436 694 1436 718 1476 c 128,-1,20
 742 1516 742 1516 746 1591 c 1,21,-1
 842 1591 l 1,22,23
 840 1456 840 1456 789 1382.5 c 128,-1,24
 738 1309 738 1309 647 1309 c 0,25,26
 609 1309 609 1309 577 1323 c 128,-1,27
 545 1337 545 1337 508 1370 c 2,0,-1
EndSplineSet
EndChar

StartChar: hungarumlaut
Encoding: 733 733 548
Width: 1157
GlyphClass: 2
Flags: W
LayerCount: 2
Fore
SplineSet
432 1638 m 1,0,-1
 602 1638 l 1,1,-1
 358 1262 l 1,2,-1
 244 1262 l 1,3,-1
 432 1638 l 1,0,-1
762 1638 m 1,4,-1
 940 1638 l 1,5,-1
 653 1262 l 1,6,-1
 537 1262 l 1,7,-1
 762 1638 l 1,4,-1
EndSplineSet
EndChar

